<svg width="48" height="48" viewBox="0 0 48 48" fill="none" xmlns="http://www.w3.org/2000/svg">
<path d="M0 28.2835L5.83932 29.602C8.22995 37.3611 15.4564 43.0001 24 43.0001C33.6718 43.0001 41.6558 35.7734 42.8467 26.4251C41.3072 26.3957 39.8632 26.4077 38.9284 26.4155C38.26 26.421 37.8519 26.4244 37.8552 26.4089C37.8394 26.3827 37.8394 26.3537 37.8394 26.3537C37.6448 25.6858 37.1636 25.2099 36.5877 24.9259L30.6239 21.5074C29.7587 21.0315 28.8936 20.7501 27.9312 20.5608L24.1867 19.906C24.092 19.906 24.0894 19.8114 24.0894 19.8114C24.0894 19.2381 23.7029 18.7622 22.7404 18.5729L22.7495 18.5789C23.0332 18.7662 23.32 18.9556 23.4136 19.3354C23.5109 19.7167 23.5135 20.1006 23.3216 20.3873C22.751 21.6337 21.7044 23.8372 20.0741 24.1291C18.7304 24.421 19.3956 22.7933 19.3956 22.7933C19.3956 22.7933 20.1556 20.879 20.3423 19.5379C20.529 18.1995 20.9103 17.6236 21.5808 17.3343C21.7189 17.2786 21.859 17.2228 22.0006 17.1665C22.8402 16.8323 23.7309 16.4778 24.5522 15.9827C24.6271 15.945 24.7059 15.9072 24.7863 15.8686C25.115 15.7108 25.471 15.5399 25.7013 15.3096C26.1416 15.3096 26.5265 15.5309 26.855 15.7197C26.9561 15.7779 27.0519 15.833 27.1423 15.8776L31.4706 18.252C31.9518 18.5387 32.2411 18.8227 32.4356 19.3012C32.4987 19.4301 32.5434 19.5668 32.5671 19.7115L32.6039 18.6254C32.6092 18.5071 32.6591 18.4019 32.7407 18.3283C56.4741 13.5807 35.3064 17.7389 48 15.2002V41.0001C48 44.8661 44.866 48.0001 41 48.0001H7C3.13401 48.0001 0 44.8661 0 41.0001V28.2835Z" fill="#2061CB"/>
<path d="M10.5025 29.998C10.4236 30.2899 10.3973 30.5791 10.4157 30.8526C10.463 31.5731 10.818 32.1805 11.3755 32.3856C11.954 32.5986 12.5851 32.3251 13.1058 31.7677C13.274 31.5889 13.4292 31.3811 13.5686 31.1497C13.5712 31.1445 13.5738 31.1392 13.5791 31.134V31.0393C13.0295 30.8421 12.5062 30.6449 11.9961 30.4476C11.6018 30.2965 11.2166 30.1454 10.8315 29.9942L10.5998 29.9033C10.5367 29.9033 10.5051 29.9358 10.5051 30.0006L10.5025 29.998Z" fill="#2061CB"/>
<path d="M22.1199 31.2922C21.8333 31.1975 21.5466 31.1055 21.26 31.1055H21.2547C20.6537 31.1055 20.285 31.4922 20.0768 31.7105C20.0528 31.7358 20.0308 31.7588 20.011 31.7786C19.7243 32.0679 18.9618 33.5036 18.9618 33.5036C18.9618 33.5036 18.1992 35.0367 19.5455 35.51C19.7375 35.6046 19.9294 35.6046 20.2187 35.602C21.5462 35.5968 22.2115 33.9132 22.4099 33.4111L22.417 33.3932L22.4488 33.3294L22.4706 33.2861C22.7633 32.7044 23.2053 31.8261 22.1199 31.2895V31.2922Z" fill="#2061CB"/>
<path d="M14.8176 31.7519C14.6914 31.9123 14.6204 32.0912 14.5836 32.27C14.4836 32.7591 14.644 33.235 14.644 33.235C14.644 33.235 14.8413 34.5735 15.8957 34.5682C16.2796 34.5682 17.526 34.371 18.0046 33.6031C18.1966 33.2192 18.9539 31.2076 16.2665 31.2208C15.4934 31.2234 15.0569 31.4522 14.8176 31.7519Z" fill="#2061CB"/>
<path d="M23.665 36.7382C23.3822 36.7383 23.1928 36.7383 23.0034 36.5489C22.2355 35.9783 22.3276 35.3078 22.6142 34.9239C22.6142 34.9239 23.0902 34.0614 23.2821 33.7747L23.3086 33.7341L23.3328 33.6965C23.5085 33.4226 23.7145 33.1016 24.2393 33.1016H24.2507C24.5336 33.1015 24.8177 33.1015 25.0071 33.2909C26.2588 34.0508 25.6882 35.2972 24.4444 36.449C24.2524 36.641 23.9658 36.7382 23.6765 36.7382H23.665Z" fill="#2061CB"/>
<path d="M0 7C0 3.13401 3.13401 0 7 0H41C44.866 0 48 3.13401 48 7V14.1803L41.0339 15.5735C37.9283 9.30764 31.4672 5 24 5C15.8674 5 8.92823 10.1095 6.21748 17.2935C10.1586 18.5148 15.3743 20.0237 16.6583 20.0237C16.7266 20.0237 16.7924 20.0237 16.8555 20.0185L14.1102 19.2743L19.9505 15.9032C20.5237 15.5193 21.2915 15.5167 21.9647 15.8953L22.4459 16.1819L21.1048 16.7604C21.1048 16.7604 19.9557 17.0523 19.5797 19.4426C19.393 20.497 19.1064 21.4542 18.7251 22.4114C18.7251 22.4114 17.7732 24.423 19.4062 24.799C21.0391 25.175 22.5669 23.5421 23.3321 22.0117C23.6161 21.5331 23.808 21.0545 23.9001 20.5759L27.6472 21.2307C28.5123 21.4174 29.3748 21.7014 30.1453 22.08C30.1453 22.08 34.5708 24.6439 36.1091 25.4985C36.493 25.6904 37.65 26.545 36.7902 28.1754H36.7928C36.3169 29.1325 35.0678 28.6592 34.392 28.3752C33.7423 28.1356 31.7139 27.2157 31.1065 26.9403C31.0207 26.9013 30.9632 26.8753 30.942 26.8658C31.1314 26.971 34.2264 28.7013 34.9732 29.8083C35.5543 30.6656 35.2677 31.5281 34.8864 31.8147C34.5051 32.1039 33.9292 32.2985 32.6802 31.7279C31.5284 31.1573 30.3741 30.5919 29.2197 30.116C29.2749 30.1528 31.0577 31.3598 31.7204 31.8278C32.2989 32.2065 32.3962 33.0663 32.0149 33.6422C31.155 34.7913 28.9436 33.6527 28.9436 33.6527L26.6427 32.6141C26.7926 32.693 29.7693 34.2628 28.2809 35.667C27.6104 36.3375 26.3613 35.8642 25.9774 35.5802C26.264 35.1963 26.3561 34.7177 26.2614 34.2418C26.2614 34.0507 26.1749 33.8596 26.0885 33.6685C26.0452 33.573 26.002 33.4774 25.9695 33.3819C25.775 33.0953 25.583 32.9059 25.2964 32.8113C25.0071 32.622 24.6232 32.5273 24.2393 32.4326C23.95 32.4326 23.6634 32.5299 23.4715 32.6272C23.4715 32.5802 23.4948 32.5092 23.5183 32.4377C23.5421 32.3652 23.5661 32.2923 23.5661 32.2433C23.5661 31.7647 23.3689 31.0942 22.5038 30.6209C22.1199 30.4315 21.7359 30.3369 21.352 30.3369C20.3922 30.3421 19.7217 31.0127 19.5324 31.3019L18.9591 32.1644C18.9591 31.8778 18.8618 31.6858 18.6672 31.4965C18.2807 30.8286 17.5129 30.4499 16.2638 30.4552C16.0719 30.4552 15.8562 30.4815 15.6406 30.5183C15.4855 30.5446 15.333 30.5762 15.1857 30.6103C7.37095 28.8087 6.89834 28.8159 0 27.2582V7Z" fill="#DE2E2B"/>
</svg>
