<svg width="96" height="88" viewBox="0 0 96 88" fill="none" xmlns="http://www.w3.org/2000/svg">
<path d="M24 28.2835L29.8393 29.602C32.2299 37.3611 39.4564 43.0001 48 43.0001C57.6718 43.0001 65.6558 35.7734 66.8467 26.4251C65.3072 26.3957 63.8632 26.4077 62.9284 26.4155C62.26 26.421 61.8519 26.4244 61.8552 26.4089C61.8394 26.3827 61.8394 26.3537 61.8394 26.3537C61.6448 25.6858 61.1636 25.2099 60.5877 24.9259L54.6239 21.5074C53.7587 21.0315 52.8936 20.7501 51.9312 20.5608L48.1867 19.906C48.092 19.906 48.0894 19.8114 48.0894 19.8114C48.0894 19.2381 47.7029 18.7622 46.7404 18.5729L46.7495 18.5789C47.0332 18.7662 47.32 18.9556 47.4136 19.3354C47.5109 19.7167 47.5135 20.1006 47.3216 20.3873C46.751 21.6337 45.7044 23.8372 44.0741 24.1291C42.7304 24.421 43.3956 22.7933 43.3956 22.7933C43.3956 22.7933 44.1556 20.879 44.3423 19.5379C44.529 18.1995 44.9103 17.6236 45.5808 17.3343C45.7189 17.2786 45.859 17.2228 46.0006 17.1665C46.8402 16.8323 47.7309 16.4778 48.5522 15.9827C48.6271 15.945 48.7059 15.9072 48.7863 15.8686C49.115 15.7108 49.471 15.5399 49.7013 15.3096C50.1416 15.3096 50.5265 15.5309 50.855 15.7197C50.9561 15.7779 51.0519 15.833 51.1423 15.8776L55.4706 18.252C55.9518 18.5387 56.2411 18.8227 56.4356 19.3012C56.4987 19.4301 56.5434 19.5668 56.5671 19.7115L56.6039 18.6254C56.6092 18.5071 56.6591 18.4019 56.7407 18.3283C80.4741 13.5807 59.3064 17.7389 72 15.2002V41.0001C72 44.8661 68.866 48.0001 65 48.0001H31C27.134 48.0001 24 44.8661 24 41.0001V28.2835Z" fill="#2061CB"/>
<path d="M34.5025 29.998C34.4236 30.2899 34.3973 30.5791 34.4157 30.8526C34.463 31.5731 34.818 32.1805 35.3755 32.3856C35.954 32.5986 36.5851 32.3251 37.1058 31.7677C37.274 31.5889 37.4292 31.3811 37.5686 31.1497C37.5712 31.1445 37.5738 31.1392 37.5791 31.134V31.0393C37.0295 30.8421 36.5062 30.6449 35.9961 30.4476C35.6018 30.2965 35.2166 30.1454 34.8315 29.9942L34.5998 29.9033C34.5367 29.9033 34.5051 29.9358 34.5051 30.0006L34.5025 29.998Z" fill="#2061CB"/>
<path d="M46.1199 31.2922C45.8333 31.1975 45.5466 31.1055 45.26 31.1055H45.2547C44.6537 31.1055 44.285 31.4922 44.0768 31.7105C44.0528 31.7358 44.0308 31.7588 44.011 31.7786C43.7243 32.0679 42.9618 33.5036 42.9618 33.5036C42.9618 33.5036 42.1992 35.0367 43.5455 35.51C43.7375 35.6046 43.9294 35.6046 44.2187 35.602C45.5462 35.5968 46.2115 33.9132 46.4099 33.4111L46.417 33.3932L46.4488 33.3294L46.4706 33.2861C46.7633 32.7044 47.2053 31.8261 46.1199 31.2895V31.2922Z" fill="#2061CB"/>
<path d="M38.8176 31.7519C38.6914 31.9123 38.6204 32.0912 38.5836 32.27C38.4836 32.7591 38.644 33.235 38.644 33.235C38.644 33.235 38.8413 34.5735 39.8957 34.5682C40.2796 34.5682 41.526 34.371 42.0046 33.6031C42.1966 33.2192 42.9539 31.2076 40.2665 31.2208C39.4934 31.2234 39.0569 31.4522 38.8176 31.7519Z" fill="#2061CB"/>
<path d="M47.665 36.7382C47.3822 36.7383 47.1928 36.7383 47.0034 36.5489C46.2355 35.9783 46.3276 35.3078 46.6142 34.9239C46.6142 34.9239 47.0902 34.0614 47.2821 33.7747L47.3086 33.7341L47.3328 33.6965C47.5085 33.4226 47.7145 33.1016 48.2393 33.1016H48.2507C48.5336 33.1015 48.8177 33.1015 49.0071 33.2909C50.2588 34.0508 49.6882 35.2972 48.4444 36.449C48.2524 36.641 47.9658 36.7382 47.6765 36.7382H47.665Z" fill="#2061CB"/>
<path d="M24 7C24 3.13401 27.134 0 31 0H65C68.866 0 72 3.13401 72 7V14.1803L65.0339 15.5735C61.9283 9.30764 55.4672 5 48 5C39.8674 5 32.9282 10.1095 30.2175 17.2935C34.1586 18.5148 39.3743 20.0237 40.6583 20.0237C40.7266 20.0237 40.7924 20.0237 40.8555 20.0185L38.1102 19.2743L43.9505 15.9032C44.5237 15.5193 45.2915 15.5167 45.9647 15.8953L46.4459 16.1819L45.1048 16.7604C45.1048 16.7604 43.9557 17.0523 43.5797 19.4426C43.393 20.497 43.1064 21.4542 42.7251 22.4114C42.7251 22.4114 41.7732 24.423 43.4062 24.799C45.0391 25.175 46.5669 23.5421 47.3321 22.0117C47.6161 21.5331 47.808 21.0545 47.9001 20.5759L51.6472 21.2307C52.5123 21.4174 53.3748 21.7014 54.1453 22.08C54.1453 22.08 58.5708 24.6439 60.1091 25.4985C60.493 25.6904 61.65 26.545 60.7902 28.1754H60.7928C60.3169 29.1325 59.0678 28.6592 58.392 28.3752C57.7423 28.1356 55.7139 27.2157 55.1065 26.9403C55.0207 26.9013 54.9632 26.8753 54.942 26.8658C55.1314 26.971 58.2264 28.7013 58.9732 29.8083C59.5543 30.6656 59.2677 31.5281 58.8864 31.8147C58.5051 32.1039 57.9292 32.2985 56.6802 31.7279C55.5284 31.1573 54.3741 30.5919 53.2197 30.116C53.2749 30.1528 55.0577 31.3598 55.7204 31.8278C56.2989 32.2065 56.3962 33.0663 56.0149 33.6422C55.155 34.7913 52.9436 33.6527 52.9436 33.6527L50.6427 32.6141C50.7926 32.693 53.7693 34.2628 52.2809 35.667C51.6104 36.3375 50.3613 35.8642 49.9774 35.5802C50.264 35.1963 50.3561 34.7177 50.2614 34.2418C50.2614 34.0507 50.1749 33.8596 50.0885 33.6685C50.0452 33.573 50.002 33.4774 49.9695 33.3819C49.775 33.0953 49.583 32.9059 49.2964 32.8113C49.0071 32.622 48.6232 32.5273 48.2393 32.4326C47.95 32.4326 47.6634 32.5299 47.4715 32.6272C47.4715 32.5802 47.4948 32.5092 47.5183 32.4377C47.5421 32.3652 47.5661 32.2923 47.5661 32.2433C47.5661 31.7647 47.3689 31.0942 46.5038 30.6209C46.1199 30.4315 45.7359 30.3369 45.352 30.3369C44.3922 30.3421 43.7217 31.0127 43.5324 31.3019L42.9591 32.1644C42.9591 31.8778 42.8618 31.6858 42.6672 31.4965C42.2807 30.8286 41.5129 30.4499 40.2638 30.4552C40.0719 30.4552 39.8562 30.4815 39.6406 30.5183C39.4855 30.5446 39.333 30.5762 39.1857 30.6103C31.371 28.8087 30.8983 28.8159 24 27.2582V7Z" fill="#DE2E2B"/>
<path d="M25.2623 78.7256V80H20.7945V73.335H25.2623V74.6094H22.3814V76.0596H25.0865V77.2314H22.3814V78.7256H25.2623ZM28.4016 76.3037V77.0508C28.4016 77.4251 28.4504 77.7425 28.548 78.0029C28.649 78.2633 28.7938 78.4603 28.9826 78.5938C29.1747 78.7272 29.4042 78.7939 29.6711 78.7939C29.9055 78.7939 30.1073 78.7451 30.2766 78.6475C30.4491 78.5465 30.5826 78.4098 30.677 78.2373C30.7714 78.0648 30.8251 77.8678 30.8381 77.6465H32.3664C32.3664 77.679 32.3664 77.7116 32.3664 77.7441C32.3664 77.7767 32.3664 77.8076 32.3664 77.8369C32.3566 78.2926 32.2329 78.693 31.9953 79.0381C31.7609 79.3799 31.4419 79.6468 31.0383 79.8389C30.6346 80.0277 30.1757 80.1221 29.6613 80.1221C29.0396 80.1221 28.5122 79.9967 28.0793 79.7461C27.6496 79.4954 27.3225 79.1406 27.0979 78.6816C26.8765 78.2227 26.7658 77.6774 26.7658 77.0459V76.3037C26.7658 75.6689 26.8781 75.1221 27.1027 74.6631C27.3273 74.2008 27.6545 73.8444 28.0842 73.5938C28.5171 73.3431 29.0428 73.2178 29.6613 73.2178C30.0487 73.2178 30.4051 73.2731 30.7307 73.3838C31.0562 73.4912 31.3394 73.6475 31.5803 73.8525C31.8212 74.0576 32.01 74.3034 32.1467 74.5898C32.2867 74.873 32.3599 75.1904 32.3664 75.542C32.3664 75.5745 32.3664 75.6071 32.3664 75.6396C32.3664 75.6689 32.3664 75.6982 32.3664 75.7275H30.8381C30.8251 75.4997 30.7697 75.2962 30.6721 75.1172C30.5777 74.9382 30.4458 74.7982 30.2766 74.6973C30.1073 74.5931 29.9055 74.541 29.6711 74.541C29.4042 74.541 29.1763 74.611 28.9875 74.751C28.7987 74.8877 28.6538 75.0863 28.5529 75.3467C28.452 75.6071 28.4016 75.9261 28.4016 76.3037ZM38.0545 76.2695C38.0545 75.8822 37.9975 75.5599 37.8836 75.3027C37.7729 75.0423 37.6183 74.847 37.4197 74.7168C37.2212 74.5866 36.99 74.5215 36.7264 74.5215C36.4594 74.5215 36.2267 74.5866 36.0281 74.7168C35.8296 74.847 35.6733 75.0423 35.5594 75.3027C35.4487 75.5599 35.3934 75.8822 35.3934 76.2695V77.0703C35.3934 77.4544 35.4487 77.7767 35.5594 78.0371C35.6733 78.2975 35.8296 78.4928 36.0281 78.623C36.2267 78.7533 36.4594 78.8184 36.7264 78.8184C36.99 78.8184 37.2212 78.7533 37.4197 78.623C37.6183 78.4928 37.7729 78.2975 37.8836 78.0371C37.9975 77.7767 38.0545 77.4544 38.0545 77.0703V76.2695ZM39.6902 77.0654C39.6902 77.6872 39.573 78.2275 39.3387 78.6865C39.1076 79.1455 38.7706 79.5003 38.3279 79.751C37.8885 79.9984 37.3546 80.1221 36.7264 80.1221C36.1014 80.1221 35.5659 79.9984 35.1199 79.751C34.6772 79.5003 34.3387 79.1455 34.1043 78.6865C33.8732 78.2275 33.7576 77.6872 33.7576 77.0654V76.2891C33.7576 75.6576 33.8732 75.1123 34.1043 74.6533C34.3387 74.1911 34.6772 73.8363 35.1199 73.5889C35.5659 73.3415 36.1014 73.2178 36.7264 73.2178C37.3546 73.2178 37.8885 73.3431 38.3279 73.5938C38.7706 73.8444 39.1076 74.1992 39.3387 74.6582C39.573 75.1139 39.6902 75.6576 39.6902 76.2891V77.0654Z" fill="#DE2E2B"/>
<path d="M41.018 78.0957H42.5463C42.5593 78.2031 42.5951 78.3057 42.6537 78.4033C42.7156 78.501 42.7986 78.5872 42.9027 78.6621C43.0069 78.7337 43.1306 78.7907 43.2738 78.833C43.4171 78.8753 43.5798 78.8965 43.7621 78.8965C44.0128 78.8965 44.2178 78.8639 44.3773 78.7988C44.5401 78.7305 44.6605 78.6393 44.7387 78.5254C44.8168 78.4082 44.8559 78.2764 44.8559 78.1299C44.8559 77.9215 44.7729 77.762 44.6068 77.6514C44.4408 77.5407 44.1951 77.4512 43.8695 77.3828L42.9271 77.1777C42.5723 77.1061 42.2615 76.9922 41.9945 76.8359C41.7309 76.6797 41.5242 76.4746 41.3744 76.2207C41.2279 75.9635 41.1547 75.651 41.1547 75.2832C41.1547 74.8568 41.2637 74.4889 41.4818 74.1797C41.7032 73.8672 42.0076 73.6279 42.3949 73.4619C42.7855 73.2926 43.238 73.208 43.7523 73.208C44.309 73.208 44.7745 73.3008 45.1488 73.4863C45.5264 73.6686 45.8129 73.9095 46.0082 74.209C46.2035 74.5085 46.3077 74.8307 46.3207 75.1758H44.8363C44.8168 75.0423 44.7631 74.9186 44.6752 74.8047C44.5906 74.6908 44.4701 74.598 44.3139 74.5264C44.1609 74.4548 43.9721 74.4189 43.7475 74.4189C43.4252 74.4189 43.1778 74.4906 43.0053 74.6338C42.836 74.7738 42.7514 74.9512 42.7514 75.166C42.7514 75.3451 42.8295 75.4899 42.9857 75.6006C43.1452 75.7113 43.365 75.7943 43.6449 75.8496L44.6117 76.0498C44.9535 76.1149 45.2611 76.2207 45.5346 76.3672C45.8113 76.5137 46.031 76.7155 46.1938 76.9727C46.3565 77.2298 46.4379 77.5618 46.4379 77.9688C46.4379 78.3919 46.3337 78.7663 46.1254 79.0918C45.9171 79.4141 45.6094 79.6663 45.2025 79.8486C44.7989 80.0309 44.2976 80.1221 43.6986 80.1221C43.2299 80.1221 42.8279 80.0667 42.4926 79.9561C42.1573 79.8454 41.8822 79.694 41.6674 79.502C41.4525 79.3099 41.293 79.0934 41.1889 78.8525C41.0847 78.6084 41.0277 78.3561 41.018 78.0957ZM51.0811 80H49.4746V77.6709L47.2432 73.335H49.001L50.2705 76.084H50.334L51.6133 73.335H53.3125L51.0811 77.6318V80ZM54.0738 78.0957H55.6021C55.6152 78.2031 55.651 78.3057 55.7096 78.4033C55.7714 78.501 55.8544 78.5872 55.9586 78.6621C56.0628 78.7337 56.1865 78.7907 56.3297 78.833C56.4729 78.8753 56.6357 78.8965 56.818 78.8965C57.0686 78.8965 57.2737 78.8639 57.4332 78.7988C57.596 78.7305 57.7164 78.6393 57.7945 78.5254C57.8727 78.4082 57.9117 78.2764 57.9117 78.1299C57.9117 77.9215 57.8287 77.762 57.6627 77.6514C57.4967 77.5407 57.2509 77.4512 56.9254 77.3828L55.983 77.1777C55.6282 77.1061 55.3173 76.9922 55.0504 76.8359C54.7867 76.6797 54.58 76.4746 54.4303 76.2207C54.2838 75.9635 54.2105 75.651 54.2105 75.2832C54.2105 74.8568 54.3196 74.4889 54.5377 74.1797C54.7591 73.8672 55.0634 73.6279 55.4508 73.4619C55.8414 73.2926 56.2939 73.208 56.8082 73.208C57.3648 73.208 57.8303 73.3008 58.2047 73.4863C58.5823 73.6686 58.8688 73.9095 59.0641 74.209C59.2594 74.5085 59.3635 74.8307 59.3766 75.1758H57.8922C57.8727 75.0423 57.8189 74.9186 57.7311 74.8047C57.6464 74.6908 57.526 74.598 57.3697 74.5264C57.2167 74.4548 57.0279 74.4189 56.8033 74.4189C56.4811 74.4189 56.2337 74.4906 56.0611 74.6338C55.8919 74.7738 55.8072 74.9512 55.8072 75.166C55.8072 75.3451 55.8854 75.4899 56.0416 75.6006C56.2011 75.7113 56.4208 75.7943 56.7008 75.8496L57.6676 76.0498C58.0094 76.1149 58.317 76.2207 58.5904 76.3672C58.8671 76.5137 59.0869 76.7155 59.2496 76.9727C59.4124 77.2298 59.4938 77.5618 59.4938 77.9688C59.4938 78.3919 59.3896 78.7663 59.1813 79.0918C58.9729 79.4141 58.6653 79.6663 58.2584 79.8486C57.8548 80.0309 57.3535 80.1221 56.7545 80.1221C56.2857 80.1221 55.8837 80.0667 55.5484 79.9561C55.2132 79.8454 54.9381 79.694 54.7232 79.502C54.5084 79.3099 54.3489 79.0934 54.2447 78.8525C54.1406 78.6084 54.0836 78.3561 54.0738 78.0957ZM63.9904 80H62.3889V74.6484H60.5725V73.335H65.8068V74.6484H63.9904V80ZM71.6365 78.7256V80H67.1687V73.335H71.6365V74.6094H68.7557V76.0596H71.4607V77.2314H68.7557V78.7256H71.6365ZM74.8441 80H73.4184V73.335H75.0736L76.7875 77.1338H76.8412L78.5551 73.335H80.2006V80H78.7553V75.8447H78.6771L77.2758 78.999H76.3334L74.9174 75.8447H74.8441V80Z" fill="#2061CB"/>
<path d="M6.07754 69V62.335H9.02676C9.64199 62.335 10.1368 62.4798 10.5111 62.7695C10.8855 63.056 11.0727 63.4564 11.0727 63.9707C11.0727 64.2539 11.0173 64.4964 10.9066 64.6982C10.7992 64.9001 10.656 65.0612 10.477 65.1816C10.2979 65.3021 10.101 65.3835 9.88613 65.4258V65.499C10.1335 65.5153 10.3712 65.5853 10.599 65.709C10.8301 65.8294 11.0189 66.0068 11.1654 66.2412C11.3152 66.4723 11.39 66.762 11.39 67.1104C11.39 67.5107 11.2875 67.8525 11.0824 68.1357C10.8773 68.4157 10.599 68.6305 10.2475 68.7803C9.89915 68.9268 9.50853 69 9.07558 69H6.07754ZM7.66445 63.4727V65.0449H8.4457C8.6931 65.0449 8.89492 65.0124 9.05117 64.9473C9.20742 64.8789 9.32135 64.7861 9.39297 64.6689C9.46784 64.5485 9.50527 64.4085 9.50527 64.249C9.50527 64.0114 9.42877 63.8226 9.27578 63.6826C9.12278 63.5426 8.90469 63.4727 8.62148 63.4727H7.66445ZM7.66445 66.0801V67.8623H8.53359C8.96979 67.8623 9.28392 67.7842 9.47598 67.6279C9.66803 67.4684 9.76406 67.252 9.76406 66.9785C9.76406 66.7962 9.72337 66.6383 9.64199 66.5049C9.56387 66.3682 9.44505 66.264 9.28555 66.1924C9.1293 66.1175 8.93236 66.0801 8.69473 66.0801H7.66445ZM15.3963 67.7842C15.7478 67.7842 16.0343 67.6768 16.2557 67.4619C16.477 67.2471 16.5877 66.9297 16.5877 66.5098V62.335H18.1893V66.6953C18.1893 67.1836 18.0753 67.61 17.8475 67.9746C17.6196 68.3392 17.2973 68.6224 16.8807 68.8242C16.464 69.0228 15.9692 69.1221 15.3963 69.1221C14.8266 69.1221 14.3318 69.0228 13.9119 68.8242C13.4952 68.6224 13.173 68.3392 12.9451 67.9746C12.7205 67.61 12.6082 67.1836 12.6082 66.6953V62.335H14.2098V66.5098C14.2098 66.9362 14.3188 67.2552 14.5369 67.4668C14.7583 67.6784 15.0447 67.7842 15.3963 67.7842ZM19.4123 67.0957H20.9406C20.9536 67.2031 20.9895 67.3057 21.048 67.4033C21.1099 67.501 21.1929 67.5872 21.2971 67.6621C21.4012 67.7337 21.5249 67.7907 21.6682 67.833C21.8114 67.8753 21.9742 67.8965 22.1564 67.8965C22.4071 67.8965 22.6122 67.8639 22.7717 67.7988C22.9344 67.7305 23.0549 67.6393 23.133 67.5254C23.2111 67.4082 23.2502 67.2764 23.2502 67.1299C23.2502 66.9215 23.1672 66.762 23.0012 66.6514C22.8352 66.5407 22.5894 66.4512 22.2639 66.3828L21.3215 66.1777C20.9667 66.1061 20.6558 65.9922 20.3889 65.8359C20.1252 65.6797 19.9185 65.4746 19.7687 65.2207C19.6223 64.9635 19.549 64.651 19.549 64.2832C19.549 63.8568 19.6581 63.4889 19.8762 63.1797C20.0975 62.8672 20.4019 62.6279 20.7893 62.4619C21.1799 62.2926 21.6324 62.208 22.1467 62.208C22.7033 62.208 23.1688 62.3008 23.5432 62.4863C23.9208 62.6686 24.2072 62.9095 24.4025 63.209C24.5978 63.5085 24.702 63.8307 24.715 64.1758H23.2307C23.2111 64.0423 23.1574 63.9186 23.0695 63.8047C22.9849 63.6908 22.8645 63.598 22.7082 63.5264C22.5552 63.4548 22.3664 63.4189 22.1418 63.4189C21.8195 63.4189 21.5721 63.4906 21.3996 63.6338C21.2303 63.7738 21.1457 63.9512 21.1457 64.166C21.1457 64.3451 21.2238 64.4899 21.3801 64.6006C21.5396 64.7113 21.7593 64.7943 22.0393 64.8496L23.0061 65.0498C23.3478 65.1149 23.6555 65.2207 23.9289 65.3672C24.2056 65.5137 24.4253 65.7155 24.5881 65.9727C24.7508 66.2298 24.8322 66.5618 24.8322 66.9688C24.8322 67.3919 24.7281 67.7663 24.5197 68.0918C24.3114 68.4141 24.0038 68.6663 23.5969 68.8486C23.1932 69.0309 22.6919 69.1221 22.093 69.1221C21.6242 69.1221 21.2222 69.0667 20.8869 68.9561C20.5516 68.8454 20.2766 68.694 20.0617 68.502C19.8469 68.3099 19.6874 68.0934 19.5832 67.8525C19.479 67.6084 19.4221 67.3561 19.4123 67.0957ZM27.7789 69H26.1725V62.335H27.7789V69ZM30.9209 69H29.4268V62.335H30.6963L33.3672 66.2949H33.4307V62.335H34.9248V69H33.665L30.9844 65.001H30.9209V69ZM41.0453 67.7256V69H36.5775V62.335H41.0453V63.6094H38.1645V65.0596H40.8695V66.2314H38.1645V67.7256H41.0453ZM42.1561 67.0957H43.6844C43.6974 67.2031 43.7332 67.3057 43.7918 67.4033C43.8536 67.501 43.9367 67.5872 44.0408 67.6621C44.145 67.7337 44.2687 67.7907 44.4119 67.833C44.5551 67.8753 44.7179 67.8965 44.9002 67.8965C45.1508 67.8965 45.3559 67.8639 45.5154 67.7988C45.6782 67.7305 45.7986 67.6393 45.8768 67.5254C45.9549 67.4082 45.9939 67.2764 45.9939 67.1299C45.9939 66.9215 45.9109 66.762 45.7449 66.6514C45.5789 66.5407 45.3331 66.4512 45.0076 66.3828L44.0652 66.1777C43.7104 66.1061 43.3995 65.9922 43.1326 65.8359C42.8689 65.6797 42.6622 65.4746 42.5125 65.2207C42.366 64.9635 42.2928 64.651 42.2928 64.2832C42.2928 63.8568 42.4018 63.4889 42.6199 63.1797C42.8413 62.8672 43.1456 62.6279 43.533 62.4619C43.9236 62.2926 44.3761 62.208 44.8904 62.208C45.4471 62.208 45.9126 62.3008 46.2869 62.4863C46.6645 62.6686 46.951 62.9095 47.1463 63.209C47.3416 63.5085 47.4458 63.8307 47.4588 64.1758H45.9744C45.9549 64.0423 45.9012 63.9186 45.8133 63.8047C45.7286 63.6908 45.6082 63.598 45.452 63.5264C45.299 63.4548 45.1102 63.4189 44.8855 63.4189C44.5633 63.4189 44.3159 63.4906 44.1434 63.6338C43.9741 63.7738 43.8895 63.9512 43.8895 64.166C43.8895 64.3451 43.9676 64.4899 44.1238 64.6006C44.2833 64.7113 44.5031 64.7943 44.783 64.8496L45.7498 65.0498C46.0916 65.1149 46.3992 65.2207 46.6727 65.3672C46.9493 65.5137 47.1691 65.7155 47.3318 65.9727C47.4946 66.2298 47.576 66.5618 47.576 66.9688C47.576 67.3919 47.4718 67.7663 47.2635 68.0918C47.0551 68.4141 46.7475 68.6663 46.3406 68.8486C45.937 69.0309 45.4357 69.1221 44.8367 69.1221C44.368 69.1221 43.9659 69.0667 43.6307 68.9561C43.2954 68.8454 43.0203 68.694 42.8055 68.502C42.5906 68.3099 42.4311 68.0934 42.327 67.8525C42.2228 67.6084 42.1658 67.3561 42.1561 67.0957ZM48.5549 67.0957H50.0832C50.0962 67.2031 50.132 67.3057 50.1906 67.4033C50.2525 67.501 50.3355 67.5872 50.4396 67.6621C50.5438 67.7337 50.6675 67.7907 50.8107 67.833C50.954 67.8753 51.1167 67.8965 51.299 67.8965C51.5497 67.8965 51.7548 67.8639 51.9143 67.7988C52.077 67.7305 52.1975 67.6393 52.2756 67.5254C52.3537 67.4082 52.3928 67.2764 52.3928 67.1299C52.3928 66.9215 52.3098 66.762 52.1437 66.6514C51.9777 66.5407 51.732 66.4512 51.4064 66.3828L50.4641 66.1777C50.1092 66.1061 49.7984 65.9922 49.5314 65.8359C49.2678 65.6797 49.0611 65.4746 48.9113 65.2207C48.7648 64.9635 48.6916 64.651 48.6916 64.2832C48.6916 63.8568 48.8007 63.4889 49.0187 63.1797C49.2401 62.8672 49.5445 62.6279 49.9318 62.4619C50.3225 62.2926 50.7749 62.208 51.2893 62.208C51.8459 62.208 52.3114 62.3008 52.6857 62.4863C53.0633 62.6686 53.3498 62.9095 53.5451 63.209C53.7404 63.5085 53.8446 63.8307 53.8576 64.1758H52.3732C52.3537 64.0423 52.3 63.9186 52.2121 63.8047C52.1275 63.6908 52.007 63.598 51.8508 63.5264C51.6978 63.4548 51.509 63.4189 51.2844 63.4189C50.9621 63.4189 50.7147 63.4906 50.5422 63.6338C50.3729 63.7738 50.2883 63.9512 50.2883 64.166C50.2883 64.3451 50.3664 64.4899 50.5227 64.6006C50.6822 64.7113 50.9019 64.7943 51.1818 64.8496L52.1486 65.0498C52.4904 65.1149 52.798 65.2207 53.0715 65.3672C53.3482 65.5137 53.5679 65.7155 53.7307 65.9727C53.8934 66.2298 53.9748 66.5618 53.9748 66.9688C53.9748 67.3919 53.8706 67.7663 53.6623 68.0918C53.454 68.4141 53.1464 68.6663 52.7395 68.8486C52.3358 69.0309 51.8345 69.1221 51.2355 69.1221C50.7668 69.1221 50.3648 69.0667 50.0295 68.9561C49.6942 68.8454 49.4191 68.694 49.2043 68.502C48.9895 68.3099 48.8299 68.0934 48.7258 67.8525C48.6216 67.6084 48.5646 67.3561 48.5549 67.0957Z" fill="#2061CB"/>
<path d="M60.4248 62.335C60.9391 62.335 61.3672 62.4408 61.709 62.6523C62.054 62.8607 62.3145 63.1406 62.4902 63.4922C62.666 63.8405 62.7539 64.2246 62.7539 64.6445C62.7539 65.0677 62.6644 65.4535 62.4854 65.8018C62.3096 66.1468 62.0475 66.4219 61.6992 66.627C61.3509 66.8288 60.9196 66.9297 60.4053 66.9297H59.2139V69H57.6123V62.335H60.4248ZM61.1279 64.6445C61.1279 64.2962 61.0319 64.0293 60.8398 63.8438C60.6478 63.6582 60.3857 63.5654 60.0537 63.5654H59.209V65.7236H60.0537C60.2751 65.7236 60.4655 65.6813 60.625 65.5967C60.7878 65.512 60.9115 65.39 60.9961 65.2305C61.084 65.0677 61.1279 64.8724 61.1279 64.6445ZM67.9809 65.2695C67.9809 64.8822 67.9239 64.5599 67.81 64.3027C67.6993 64.0423 67.5447 63.847 67.3461 63.7168C67.1475 63.5866 66.9164 63.5215 66.6527 63.5215C66.3858 63.5215 66.1531 63.5866 65.9545 63.7168C65.7559 63.847 65.5997 64.0423 65.4857 64.3027C65.3751 64.5599 65.3197 64.8822 65.3197 65.2695V66.0703C65.3197 66.4544 65.3751 66.7767 65.4857 67.0371C65.5997 67.2975 65.7559 67.4928 65.9545 67.623C66.1531 67.7533 66.3858 67.8184 66.6527 67.8184C66.9164 67.8184 67.1475 67.7533 67.3461 67.623C67.5447 67.4928 67.6993 67.2975 67.81 67.0371C67.9239 66.7767 67.9809 66.4544 67.9809 66.0703V65.2695ZM69.6166 66.0654C69.6166 66.6872 69.4994 67.2275 69.265 67.6865C69.0339 68.1455 68.697 68.5003 68.2543 68.751C67.8148 68.9984 67.281 69.1221 66.6527 69.1221C66.0277 69.1221 65.4923 68.9984 65.0463 68.751C64.6036 68.5003 64.265 68.1455 64.0307 67.6865C63.7995 67.2275 63.684 66.6872 63.684 66.0654V65.2891C63.684 64.6576 63.7995 64.1123 64.0307 63.6533C64.265 63.1911 64.6036 62.8363 65.0463 62.5889C65.4923 62.3415 66.0277 62.2178 66.6527 62.2178C67.281 62.2178 67.8148 62.3431 68.2543 62.5938C68.697 62.8444 69.0339 63.1992 69.265 63.6582C69.4994 64.1139 69.6166 64.6576 69.6166 65.2891V66.0654ZM73.4422 69H71.9529L70.2391 62.335H71.9334L72.7879 66.8662H72.866L73.9549 62.335H75.2635L76.3572 66.8662H76.4353L77.2801 62.335H78.9744L77.2654 69H75.7713L74.6385 64.7324H74.5799L73.4422 69ZM84.4602 67.7256V69H79.9924V62.335H84.4602V63.6094H81.5793V65.0596H84.2844V66.2314H81.5793V67.7256H84.4602ZM88.7496 62.335C89.277 62.335 89.7229 62.4261 90.0875 62.6084C90.4521 62.7874 90.7288 63.0413 90.9176 63.3701C91.1064 63.6956 91.2008 64.0781 91.2008 64.5176C91.2008 64.8594 91.1373 65.1589 91.0104 65.416C90.8834 65.6699 90.7271 65.8783 90.5416 66.041C90.3593 66.2038 90.1819 66.321 90.0094 66.3926L91.3375 69H89.5602L88.4322 66.6172H87.5094V69H85.9322V62.335H88.7496ZM87.5094 65.4795H88.4957C88.8082 65.4795 89.0621 65.4014 89.2574 65.2451C89.4527 65.0856 89.5504 64.8464 89.5504 64.5273C89.5504 64.2051 89.4511 63.9593 89.2525 63.79C89.054 63.6208 88.8066 63.5361 88.5104 63.5361H87.5094V65.4795Z" fill="#DE2E2B"/>
</svg>
