<svg width="232" height="48" viewBox="0 0 232 48" fill="none" xmlns="http://www.w3.org/2000/svg">
<path d="M0 28.2835L5.83932 29.602C8.22995 37.3611 15.4564 43.0001 24 43.0001C33.6718 43.0001 41.6558 35.7734 42.8467 26.4251C41.3072 26.3957 39.8632 26.4077 38.9284 26.4155C38.26 26.421 37.8519 26.4244 37.8552 26.4089C37.8394 26.3827 37.8394 26.3537 37.8394 26.3537C37.6448 25.6858 37.1636 25.2099 36.5877 24.9259L30.6239 21.5074C29.7587 21.0315 28.8936 20.7501 27.9312 20.5608L24.1867 19.906C24.092 19.906 24.0894 19.8114 24.0894 19.8114C24.0894 19.2381 23.7029 18.7622 22.7404 18.5729L22.7495 18.5789C23.0332 18.7662 23.32 18.9556 23.4136 19.3354C23.5109 19.7167 23.5135 20.1006 23.3216 20.3873C22.751 21.6337 21.7044 23.8372 20.0741 24.1291C18.7304 24.421 19.3956 22.7933 19.3956 22.7933C19.3956 22.7933 20.1556 20.879 20.3423 19.5379C20.529 18.1995 20.9103 17.6236 21.5808 17.3343C21.7189 17.2786 21.859 17.2228 22.0006 17.1665C22.8402 16.8323 23.7309 16.4778 24.5522 15.9827C24.6271 15.945 24.7059 15.9072 24.7863 15.8686C25.115 15.7108 25.471 15.5399 25.7013 15.3096C26.1416 15.3096 26.5265 15.5309 26.855 15.7197C26.9561 15.7779 27.0519 15.833 27.1423 15.8776L31.4706 18.252C31.9518 18.5387 32.2411 18.8227 32.4356 19.3012C32.4987 19.4301 32.5434 19.5668 32.5671 19.7115L32.6039 18.6254C32.6092 18.5071 32.6591 18.4019 32.7407 18.3283C56.4741 13.5807 35.3064 17.7389 48 15.2002V41.0001C48 44.8661 44.866 48.0001 41 48.0001H7C3.13401 48.0001 0 44.8661 0 41.0001V28.2835Z" fill="#2061CB"/>
<path d="M10.5025 29.998C10.4236 30.2899 10.3973 30.5791 10.4157 30.8526C10.463 31.5731 10.818 32.1805 11.3755 32.3856C11.954 32.5986 12.5851 32.3251 13.1058 31.7677C13.274 31.5889 13.4292 31.3811 13.5686 31.1497C13.5712 31.1445 13.5738 31.1392 13.5791 31.134V31.0393C13.0295 30.8421 12.5062 30.6449 11.9961 30.4476C11.6018 30.2965 11.2166 30.1454 10.8315 29.9942L10.5998 29.9033C10.5367 29.9033 10.5051 29.9358 10.5051 30.0006L10.5025 29.998Z" fill="#2061CB"/>
<path d="M22.1199 31.2922C21.8333 31.1975 21.5466 31.1055 21.26 31.1055H21.2547C20.6537 31.1055 20.285 31.4922 20.0768 31.7105C20.0528 31.7358 20.0308 31.7588 20.011 31.7786C19.7243 32.0679 18.9618 33.5036 18.9618 33.5036C18.9618 33.5036 18.1992 35.0367 19.5455 35.51C19.7375 35.6046 19.9294 35.6046 20.2187 35.602C21.5462 35.5968 22.2115 33.9132 22.4099 33.4111L22.417 33.3932L22.4488 33.3294L22.4706 33.2861C22.7633 32.7044 23.2053 31.8261 22.1199 31.2895V31.2922Z" fill="#2061CB"/>
<path d="M14.8176 31.7519C14.6914 31.9123 14.6204 32.0912 14.5836 32.27C14.4836 32.7591 14.644 33.235 14.644 33.235C14.644 33.235 14.8413 34.5735 15.8957 34.5682C16.2796 34.5682 17.526 34.371 18.0046 33.6031C18.1966 33.2192 18.9539 31.2076 16.2665 31.2208C15.4934 31.2234 15.0569 31.4522 14.8176 31.7519Z" fill="#2061CB"/>
<path d="M23.665 36.7382C23.3822 36.7383 23.1928 36.7383 23.0034 36.5489C22.2355 35.9783 22.3276 35.3078 22.6142 34.9239C22.6142 34.9239 23.0902 34.0614 23.2821 33.7747L23.3086 33.7341L23.3328 33.6965C23.5085 33.4226 23.7145 33.1016 24.2393 33.1016H24.2507C24.5336 33.1015 24.8177 33.1015 25.0071 33.2909C26.2588 34.0508 25.6882 35.2972 24.4444 36.449C24.2524 36.641 23.9658 36.7382 23.6765 36.7382H23.665Z" fill="#2061CB"/>
<path d="M0 7C0 3.13401 3.13401 0 7 0H41C44.866 0 48 3.13401 48 7V14.1803L41.0339 15.5735C37.9283 9.30764 31.4672 5 24 5C15.8674 5 8.92823 10.1095 6.21748 17.2935C10.1586 18.5148 15.3743 20.0237 16.6583 20.0237C16.7266 20.0237 16.7924 20.0237 16.8555 20.0185L14.1102 19.2743L19.9505 15.9032C20.5237 15.5193 21.2915 15.5167 21.9647 15.8953L22.4459 16.1819L21.1048 16.7604C21.1048 16.7604 19.9557 17.0523 19.5797 19.4426C19.393 20.497 19.1064 21.4542 18.7251 22.4114C18.7251 22.4114 17.7732 24.423 19.4062 24.799C21.0391 25.175 22.5669 23.5421 23.3321 22.0117C23.6161 21.5331 23.808 21.0545 23.9001 20.5759L27.6472 21.2307C28.5123 21.4174 29.3748 21.7014 30.1453 22.08C30.1453 22.08 34.5708 24.6439 36.1091 25.4985C36.493 25.6904 37.65 26.545 36.7902 28.1754H36.7928C36.3169 29.1325 35.0678 28.6592 34.392 28.3752C33.7423 28.1356 31.7139 27.2157 31.1065 26.9403C31.0207 26.9013 30.9632 26.8753 30.942 26.8658C31.1314 26.971 34.2264 28.7013 34.9732 29.8083C35.5543 30.6656 35.2677 31.5281 34.8864 31.8147C34.5051 32.1039 33.9292 32.2985 32.6802 31.7279C31.5284 31.1573 30.3741 30.5919 29.2197 30.116C29.2749 30.1528 31.0577 31.3598 31.7204 31.8278C32.2989 32.2065 32.3962 33.0663 32.0149 33.6422C31.155 34.7913 28.9436 33.6527 28.9436 33.6527L26.6427 32.6141C26.7926 32.693 29.7693 34.2628 28.2809 35.667C27.6104 36.3375 26.3613 35.8642 25.9774 35.5802C26.264 35.1963 26.3561 34.7177 26.2614 34.2418C26.2614 34.0507 26.1749 33.8596 26.0885 33.6685C26.0452 33.573 26.002 33.4774 25.9695 33.3819C25.775 33.0953 25.583 32.9059 25.2964 32.8113C25.0071 32.622 24.6232 32.5273 24.2393 32.4326C23.95 32.4326 23.6634 32.5299 23.4715 32.6272C23.4715 32.5802 23.4948 32.5092 23.5183 32.4377C23.5421 32.3652 23.5661 32.2923 23.5661 32.2433C23.5661 31.7647 23.3689 31.0942 22.5038 30.6209C22.1199 30.4315 21.7359 30.3369 21.352 30.3369C20.3922 30.3421 19.7217 31.0127 19.5324 31.3019L18.9591 32.1644C18.9591 31.8778 18.8618 31.6858 18.6672 31.4965C18.2807 30.8286 17.5129 30.4499 16.2638 30.4552C16.0719 30.4552 15.8562 30.4815 15.6406 30.5183C15.4855 30.5446 15.333 30.5762 15.1857 30.6103C7.37095 28.8087 6.89834 28.8159 0 27.2582V7Z" fill="#DE2E2B"/>
<path d="M78.9693 28.796C79.836 28.796 80.616 28.9997 81.3093 29.407C82.0026 29.8057 82.5486 30.3603 82.9473 31.071C83.346 31.773 83.5453 32.566 83.5453 33.45C83.5453 34.334 83.346 35.1313 82.9473 35.842C82.5486 36.544 82.0026 37.0987 81.3093 37.506C80.616 37.9047 79.836 38.104 78.9693 38.104C78.224 38.104 77.548 37.9827 76.9413 37.74C76.3346 37.4973 75.8276 37.142 75.4203 36.674L76.2393 35.855C76.924 36.5743 77.8123 36.934 78.9043 36.934C79.485 36.934 80.0136 36.8083 80.4903 36.557C80.967 36.297 81.357 35.9373 81.6603 35.478C81.9636 35.0187 82.1456 34.4943 82.2063 33.905H77.7993V32.839H82.1933C82.1066 32.2757 81.9116 31.7773 81.6083 31.344C81.305 30.9107 80.9193 30.5727 80.4513 30.33C79.9833 30.0873 79.4676 29.966 78.9043 29.966C77.821 29.966 76.9326 30.3257 76.2393 31.045L75.4203 30.226C75.8276 29.758 76.3346 29.4027 76.9413 29.16C77.5566 28.9173 78.2326 28.796 78.9693 28.796ZM89.3437 33.996H87.4457V38H86.1717V28.9H87.4457V32.852H89.3697L92.2297 28.9H93.6207L90.3707 33.307L93.7767 38H92.2947L89.3437 33.996ZM99.6988 38.104C98.7802 38.104 97.9525 37.9047 97.2158 37.506C96.4792 37.0987 95.8985 36.5397 95.4738 35.829C95.0578 35.1183 94.8498 34.3253 94.8498 33.45C94.8498 32.5747 95.0578 31.7817 95.4738 31.071C95.8985 30.3603 96.4792 29.8057 97.2158 29.407C97.9525 28.9997 98.7802 28.796 99.6988 28.796C100.609 28.796 101.432 28.9997 102.169 29.407C102.905 29.8057 103.482 30.3603 103.898 31.071C104.314 31.773 104.522 32.566 104.522 33.45C104.522 34.334 104.314 35.1313 103.898 35.842C103.482 36.544 102.905 37.0987 102.169 37.506C101.432 37.9047 100.609 38.104 99.6988 38.104ZM99.6988 36.947C100.366 36.947 100.964 36.7953 101.493 36.492C102.03 36.1887 102.45 35.7727 102.754 35.244C103.066 34.7067 103.222 34.1087 103.222 33.45C103.222 32.7913 103.066 32.1977 102.754 31.669C102.45 31.1317 102.03 30.7113 101.493 30.408C100.964 30.1047 100.366 29.953 99.6988 29.953C99.0315 29.953 98.4248 30.1047 97.8788 30.408C97.3415 30.7113 96.9168 31.1317 96.6048 31.669C96.3015 32.1977 96.1498 32.7913 96.1498 33.45C96.1498 34.1087 96.3015 34.7067 96.6048 35.244C96.9168 35.7727 97.3415 36.1887 97.8788 36.492C98.4248 36.7953 99.0315 36.947 99.6988 36.947Z" fill="#D42421"/>
<path d="M111.212 38.104C110.302 38.104 109.479 37.9047 108.742 37.506C108.014 37.0987 107.442 36.544 107.026 35.842C106.61 35.1313 106.402 34.334 106.402 33.45C106.402 32.566 106.61 31.773 107.026 31.071C107.442 30.3603 108.019 29.8057 108.755 29.407C109.492 28.9997 110.315 28.796 111.225 28.796C111.936 28.796 112.586 28.9173 113.175 29.16C113.765 29.394 114.267 29.745 114.683 30.213L113.838 31.032C113.154 30.3127 112.3 29.953 111.277 29.953C110.601 29.953 109.99 30.1047 109.444 30.408C108.898 30.7113 108.469 31.1317 108.157 31.669C107.854 32.1977 107.702 32.7913 107.702 33.45C107.702 34.1087 107.854 34.7067 108.157 35.244C108.469 35.7727 108.898 36.1887 109.444 36.492C109.99 36.7953 110.601 36.947 111.277 36.947C112.291 36.947 113.145 36.583 113.838 35.855L114.683 36.674C114.267 37.142 113.76 37.4973 113.162 37.74C112.573 37.9827 111.923 38.104 111.212 38.104ZM116.994 28.9H118.281V35.92L123.663 28.9H124.859V38H123.585V30.993L118.19 38H116.994V28.9ZM132.286 38.104C131.376 38.104 130.552 37.9047 129.816 37.506C129.088 37.0987 128.516 36.544 128.1 35.842C127.684 35.1313 127.476 34.334 127.476 33.45C127.476 32.566 127.684 31.773 128.1 31.071C128.516 30.3603 129.092 29.8057 129.829 29.407C130.565 28.9997 131.389 28.796 132.299 28.796C133.009 28.796 133.659 28.9173 134.249 29.16C134.838 29.394 135.341 29.745 135.757 30.213L134.912 31.032C134.227 30.3127 133.373 29.953 132.351 29.953C131.675 29.953 131.064 30.1047 130.518 30.408C129.972 30.7113 129.543 31.1317 129.231 31.669C128.927 32.1977 128.776 32.7913 128.776 33.45C128.776 34.1087 128.927 34.7067 129.231 35.244C129.543 35.7727 129.972 36.1887 130.518 36.492C131.064 36.7953 131.675 36.947 132.351 36.947C133.365 36.947 134.218 36.583 134.912 35.855L135.757 36.674C135.341 37.142 134.834 37.4973 134.236 37.74C133.646 37.9827 132.996 38.104 132.286 38.104ZM144.219 30.031H141.099V38H139.825V30.031H136.718V28.9H144.219V30.031ZM152.923 36.869V38H146.319V28.9H152.741V30.031H147.619V32.826H152.182V33.931H147.619V36.869H152.923ZM163.922 38L163.909 31.37L160.62 36.895H160.022L156.733 31.409V38H155.485V28.9H156.551L160.347 35.296L164.091 28.9H165.157L165.17 38H163.922ZM174.437 35.725H169.601L168.6 38H167.261L171.382 28.9H172.669L176.803 38H175.438L174.437 35.725ZM173.982 34.685L172.019 30.226L170.056 34.685H173.982Z" fill="#2061CB"/>
<path d="M59.8824 12.1H69.4874V14.293H62.6194V16.741H65.9174C67.3568 16.741 68.4504 17.0413 69.1984 17.642C69.9578 18.2427 70.3374 19.1097 70.3374 20.243C70.3374 21.433 69.9181 22.3567 69.0794 23.014C68.2408 23.6713 67.0564 24 65.5264 24H59.8824V12.1ZM65.3734 21.96C66.0761 21.96 66.6144 21.824 66.9884 21.552C67.3624 21.2687 67.5494 20.8607 67.5494 20.328C67.5494 19.2853 66.8241 18.764 65.3734 18.764H62.6194V21.96H65.3734ZM72.6032 12.1H75.3402V19.852L81.0182 12.1H83.6022V24H80.8822V16.265L75.2042 24H72.6032V12.1ZM93.5011 17.795C94.1924 18.033 94.7308 18.407 95.1161 18.917C95.5128 19.4157 95.7111 19.9993 95.7111 20.668C95.7111 21.3933 95.4731 22.0223 94.9971 22.555C94.5211 23.0877 93.8751 23.4957 93.0591 23.779C92.2544 24.0623 91.3704 24.204 90.4071 24.204C89.5911 24.204 88.7751 24.102 87.9591 23.898C87.1544 23.694 86.3894 23.3823 85.6641 22.963L86.5141 20.991C87.0354 21.3083 87.6078 21.552 88.2311 21.722C88.8658 21.8807 89.4834 21.96 90.0841 21.96C90.9001 21.96 91.5744 21.8127 92.1071 21.518C92.6511 21.2233 92.9231 20.8097 92.9231 20.277C92.9231 19.835 92.7361 19.5007 92.3621 19.274C91.9994 19.0473 91.5008 18.934 90.8661 18.934H87.9591V16.86H90.6621C91.2174 16.86 91.6481 16.7467 91.9541 16.52C92.2714 16.2933 92.4301 15.9817 92.4301 15.585C92.4301 15.1203 92.2034 14.7577 91.7501 14.497C91.3081 14.2363 90.7358 14.106 90.0331 14.106C89.5118 14.106 88.9734 14.1797 88.4181 14.327C87.8628 14.463 87.3358 14.6727 86.8371 14.956L86.0041 12.814C87.2621 12.168 88.6221 11.845 90.0841 11.845C91.0134 11.845 91.8691 11.981 92.6511 12.253C93.4331 12.525 94.0564 12.9217 94.5211 13.443C94.9858 13.9643 95.2181 14.5707 95.2181 15.262C95.2181 15.8287 95.0651 16.333 94.7591 16.775C94.4531 17.217 94.0338 17.557 93.5011 17.795ZM108.975 12.1V24H106.221V19.121H100.815V24H98.0614V12.1H100.815V16.792H106.221V12.1H108.975ZM121.341 21.79V24H112.127V12.1H121.12V14.31H114.864V16.894H120.389V19.036H114.864V21.79H121.341ZM129.329 24.204C128.116 24.204 127.017 23.9433 126.031 23.422C125.056 22.8893 124.286 22.1583 123.719 21.229C123.164 20.2883 122.886 19.2287 122.886 18.05C122.886 16.8713 123.164 15.8173 123.719 14.888C124.286 13.9473 125.056 13.2163 126.031 12.695C127.017 12.1623 128.122 11.896 129.346 11.896C130.377 11.896 131.307 12.0773 132.134 12.44C132.973 12.8027 133.675 13.324 134.242 14.004L132.474 15.636C131.669 14.7067 130.672 14.242 129.482 14.242C128.745 14.242 128.088 14.4063 127.51 14.735C126.932 15.0523 126.479 15.5 126.15 16.078C125.833 16.656 125.674 17.3133 125.674 18.05C125.674 18.7867 125.833 19.444 126.15 20.022C126.479 20.6 126.932 21.0533 127.51 21.382C128.088 21.6993 128.745 21.858 129.482 21.858C130.672 21.858 131.669 21.3877 132.474 20.447L134.242 22.079C133.675 22.7703 132.973 23.2973 132.134 23.66C131.295 24.0227 130.36 24.204 129.329 24.204Z" fill="#2061CB"/>
<path d="M146.819 24.204C145.606 24.204 144.507 23.9433 143.521 23.422C142.546 22.8893 141.775 22.1583 141.209 21.229C140.653 20.2883 140.376 19.2287 140.376 18.05C140.376 16.8713 140.653 15.8173 141.209 14.888C141.775 13.9473 142.546 13.2163 143.521 12.695C144.507 12.1623 145.612 11.896 146.836 11.896C147.867 11.896 148.796 12.0773 149.624 12.44C150.462 12.8027 151.165 13.324 151.732 14.004L149.964 15.636C149.159 14.7067 148.162 14.242 146.972 14.242C146.235 14.242 145.578 14.4063 145 14.735C144.422 15.0523 143.968 15.5 143.64 16.078C143.322 16.656 143.164 17.3133 143.164 18.05C143.164 18.7867 143.322 19.444 143.64 20.022C143.968 20.6 144.422 21.0533 145 21.382C145.578 21.6993 146.235 21.858 146.972 21.858C148.162 21.858 149.159 21.3877 149.964 20.447L151.732 22.079C151.165 22.7703 150.462 23.2973 149.624 23.66C148.785 24.0227 147.85 24.204 146.819 24.204ZM153.697 12.1H156.434V19.852L162.112 12.1H164.696V24H161.976V16.265L156.298 24H153.697V12.1ZM178.353 12.1V24H175.633V14.344H171.553L171.468 16.826C171.412 18.5147 171.276 19.886 171.06 20.94C170.845 21.9827 170.482 22.7873 169.972 23.354C169.474 23.9093 168.771 24.187 167.864 24.187C167.49 24.187 167.037 24.1247 166.504 24L166.674 21.671C166.822 21.7163 166.986 21.739 167.167 21.739C167.825 21.739 168.284 21.3537 168.544 20.583C168.805 19.801 168.969 18.5827 169.037 16.928L169.207 12.1H178.353ZM189.554 21.45H184.029L182.975 24H180.153L185.457 12.1H188.177L193.498 24H190.608L189.554 21.45ZM188.687 19.359L186.8 14.803L184.913 19.359H188.687Z" fill="#DE2E2B"/>
</svg>
