<?xml version="1.0" encoding="UTF-8"?>
<!DOCTYPE svg PUBLIC "-//W3C//DTD SVG 1.1//EN" "http://www.w3.org/Graphics/SVG/1.1/DTD/svg11.dtd">
<svg xmlns="http://www.w3.org/2000/svg" version="1.1" width="841px" height="196px" style="shape-rendering:geometricPrecision; text-rendering:geometricPrecision; image-rendering:optimizeQuality; fill-rule:evenodd; clip-rule:evenodd">
<g><path style="opacity:1" fill="#fbfbfb" d="M -0.5,-0.5 C 279.833,-0.5 560.167,-0.5 840.5,-0.5C 840.5,64.8333 840.5,130.167 840.5,195.5C 560.167,195.5 279.833,195.5 -0.5,195.5C -0.5,130.167 -0.5,64.8333 -0.5,-0.5 Z"/></g>
<g><path style="opacity:1" fill="#c54a4c" d="M 668.5,51.5 C 672.275,51.0719 675.775,51.7386 679,53.5C 690.212,49.3628 694.879,53.3628 693,65.5C 685.56,79.605 676.893,80.605 667,68.5C 663.241,62.3444 663.741,56.6778 668.5,51.5 Z"/></g>
<g><path style="opacity:1" fill="#c44b4d" d="M 622.5,122.5 C 620.464,105.643 624.797,90.6432 635.5,77.5C 641.646,71.361 648.646,66.361 656.5,62.5C 657.833,64.5 657.833,66.5 656.5,68.5C 646.584,72.9165 639.084,79.9165 634,89.5C 631.466,96.1024 629.133,102.769 627,109.5C 626.759,117.941 627.426,126.274 629,134.5C 627.815,136.559 626.648,136.726 625.5,135C 623.635,131.039 622.635,126.872 622.5,122.5 Z"/></g>
<g><path style="opacity:1" fill="#c64e4f" d="M 736.5,120.5 C 735.549,121.919 735.216,123.585 735.5,125.5C 735.091,128.991 734.091,132.325 732.5,135.5C 731.019,134.52 729.685,133.353 728.5,132C 730.016,130.103 730.683,127.936 730.5,125.5C 733.741,105.389 727.741,88.5561 712.5,75C 708.882,72.0259 704.882,69.8592 700.5,68.5C 700.201,66.396 700.534,64.396 701.5,62.5C 725.626,74.2967 737.292,93.63 736.5,120.5 Z"/></g>
<g><path style="opacity:1" fill="#ad9b9b" d="M 230.5,77.5 C 255.337,76.171 280.337,76.171 305.5,77.5C 305.376,78.1067 305.043,78.44 304.5,78.5C 280.006,77.5023 255.339,77.169 230.5,77.5 Z"/></g>
<g><path style="opacity:1" fill="#b79c9d" d="M 307.5,77.5 C 332.337,76.171 357.337,76.171 382.5,77.5C 382.376,78.1067 382.043,78.44 381.5,78.5C 357.006,77.5023 332.339,77.169 307.5,77.5 Z"/></g>
<g><path style="opacity:1" fill="#353535" d="M 104.5,124.5 C 85.4971,124.333 66.4971,124.5 47.5,125C 48.0442,125.717 48.7109,126.217 49.5,126.5C 52.3733,127.25 54.3733,128.917 55.5,131.5C 53.6259,136.456 51.9592,141.456 50.5,146.5C 43.1591,146.666 35.8258,146.5 28.5,146C 37.2616,123.313 45.595,100.479 53.5,77.5C 77.5653,77.0296 101.565,77.5296 125.5,79C 128.167,81 129.5,83.6667 129.5,87C 127.605,95.0186 125.105,102.852 122,110.5C 118.388,117.946 112.554,122.613 104.5,124.5 Z"/></g>
<g><path style="opacity:1" fill="#493739" d="M 195.5,95.5 C 196.404,94.791 196.737,93.791 196.5,92.5C 180.163,92.3334 163.83,92.5001 147.5,93C 148.527,93.5133 149.527,94.0133 150.5,94.5C 152.925,95.4238 154.925,96.9238 156.5,99C 150.923,114.567 145.256,130.067 139.5,145.5C 132.416,146.126 125.75,145.459 119.5,143.5C 125.728,123.646 133.228,104.312 142,85.5C 145.428,81.7323 149.595,79.2323 154.5,78C 173.833,77.3333 193.167,77.3333 212.5,78C 218.234,81.1801 220.067,86.0134 218,92.5C 210.8,110.268 204.3,128.268 198.5,146.5C 191.159,146.666 183.826,146.5 176.5,146C 178.696,141.08 180.696,136.08 182.5,131C 169.018,133.325 162.018,127.825 161.5,114.5C 170.506,114.666 179.506,114.5 188.5,114C 191.131,107.938 193.465,101.772 195.5,95.5 Z"/></g>
<g><path style="opacity:1" fill="#5e3a3b" d="M 230.5,77.5 C 255.339,77.169 280.006,77.5023 304.5,78.5C 302.833,83.1667 301.167,87.8333 299.5,92.5C 287.162,92.3335 274.829,92.5001 262.5,93C 263.044,93.7172 263.711,94.2172 264.5,94.5C 266.68,95.757 268.68,97.257 270.5,99C 264.33,114.679 258.663,130.512 253.5,146.5C 246.5,146.5 239.5,146.5 232.5,146.5C 238.293,129.121 244.293,111.787 250.5,94.5C 251.043,94.44 251.376,94.1067 251.5,93.5C 242.676,92.8333 234.009,92.1666 225.5,91.5C 226.774,86.6766 228.441,82.0099 230.5,77.5 Z"/></g>
<g><path style="opacity:1" fill="#723d3f" d="M 307.5,77.5 C 332.339,77.169 357.006,77.5023 381.5,78.5C 380.038,82.883 378.371,87.2164 376.5,91.5C 364.18,92.3326 351.847,92.8326 339.5,93C 342.198,95.0094 344.864,97.0094 347.5,99C 341.33,114.679 335.663,130.512 330.5,146.5C 323.5,146.5 316.5,146.5 309.5,146.5C 314.899,128.971 320.899,111.637 327.5,94.5C 328.043,94.44 328.376,94.1067 328.5,93.5C 319.676,92.8333 311.009,92.1666 302.5,91.5C 303.792,86.6184 305.459,81.9517 307.5,77.5 Z"/></g>
<g><path style="opacity:1" fill="#874042" d="M 452.5,92.5 C 432.831,92.3334 413.164,92.5 393.5,93C 394.044,93.7172 394.711,94.2172 395.5,94.5C 397.386,95.3606 399.22,96.3606 401,97.5C 401.651,99.235 401.485,100.902 400.5,102.5C 412.82,103.333 425.153,103.833 437.5,104C 435.531,108.74 433.865,113.573 432.5,118.5C 416.574,119.318 400.574,119.818 384.5,120C 385.044,120.717 385.711,121.217 386.5,121.5C 388.754,122.415 390.754,123.748 392.5,125.5C 391.873,126.417 391.539,127.417 391.5,128.5C 390.957,128.56 390.624,128.893 390.5,129.5C 406.486,130.499 422.486,130.833 438.5,130.5C 436.645,135.712 434.645,140.878 432.5,146C 412.744,146.975 393.077,146.642 373.5,145C 370.898,144.065 369.398,142.232 369,139.5C 368.333,136.5 368.333,133.5 369,130.5C 373.53,118.576 377.864,106.576 382,94.5C 384.833,86.3333 390.333,80.8333 398.5,78C 418.175,77.167 437.842,77.3336 457.5,78.5C 455.432,83.0383 453.765,87.705 452.5,92.5 Z"/></g>
<g><path style="opacity:1" fill="#9b4345" d="M 518.5,124.5 C 515.15,124.335 511.817,124.502 508.5,125C 509.044,125.717 509.711,126.217 510.5,126.5C 514.167,132.5 517.833,138.5 521.5,144.5C 515.021,145.491 508.354,145.824 501.5,145.5C 497.18,138.87 492.847,132.203 488.5,125.5C 479.343,124.342 470.009,124.176 460.5,125C 461.527,125.513 462.527,126.013 463.5,126.5C 465.925,127.424 467.925,128.924 469.5,131C 467.722,136.165 466.056,141.332 464.5,146.5C 457.159,146.666 449.826,146.5 442.5,146C 450.927,123.555 459.26,101.055 467.5,78.5C 479,78.1667 490.5,77.8333 502,77.5C 514.567,77.3622 527.067,77.8622 539.5,79C 542.167,81 543.5,83.6667 543.5,87C 541.073,95.6153 538.239,104.115 535,112.5C 531.159,118.832 525.659,122.832 518.5,124.5 Z"/></g>
<g><path style="opacity:1" fill="#b04548" d="M 635.5,77.5 C 624.797,90.6432 620.464,105.643 622.5,122.5C 619.332,129.988 616.332,137.655 613.5,145.5C 606.167,146.833 598.833,146.833 591.5,145.5C 584.667,131.167 577.833,116.833 571,102.5C 565.57,116.972 560.07,131.305 554.5,145.5C 547.416,146.126 540.75,145.459 534.5,143.5C 541.806,121.417 549.806,99.5834 558.5,78C 565.856,77.1687 573.189,77.3354 580.5,78.5C 587.605,92.3774 594.439,106.377 601,120.5C 606.67,106.322 611.837,91.9886 616.5,77.5C 622.833,77.5 629.167,77.5 635.5,77.5 Z"/></g>
<g><path style="opacity:1" fill="#da4b4d" d="M 777.5,145.5 C 762.833,145.5 748.167,145.5 733.5,145.5C 731.805,141.805 729.139,139.139 725.5,137.5C 725.109,133.617 725.776,129.95 727.5,126.5C 728.325,125.614 729.325,125.281 730.5,125.5C 730.683,127.936 730.016,130.103 728.5,132C 729.685,133.353 731.019,134.52 732.5,135.5C 734.091,132.325 735.091,128.991 735.5,125.5C 740.032,125.182 744.366,125.515 748.5,126.5C 748.5,126.833 748.5,127.167 748.5,127.5C 747.596,128.209 747.263,129.209 747.5,130.5C 756.682,130.827 765.682,130.493 774.5,129.5C 775.295,126.45 776.295,123.45 777.5,120.5C 772.544,119.506 767.544,119.173 762.5,119.5C 763.562,114.314 765.229,109.314 767.5,104.5C 772.802,103.671 778.136,103.171 783.5,103C 784.642,100.55 785.642,98.0501 786.5,95.5C 787.404,94.791 787.737,93.791 787.5,92.5C 778.318,92.1734 769.318,92.5067 760.5,93.5C 760.167,94.8333 759.833,96.1667 759.5,97.5C 752.313,97.8245 745.313,97.4912 738.5,96.5C 740.822,87.3419 746.488,81.1752 755.5,78C 771.5,77.3333 787.5,77.3333 803.5,78C 807.953,80.0711 809.953,83.5711 809.5,88.5C 808.646,98.5494 803.98,106.216 795.5,111.5C 797.617,113.736 798.617,116.403 798.5,119.5C 797.167,132.872 790.167,141.538 777.5,145.5 Z"/></g>
<g><path style="opacity:1" fill="#c75254" d="M 678.5,85.5 C 680.026,86.4919 680.693,87.9919 680.5,90C 679.5,96 678.5,96 677.5,90C 677.605,88.4085 677.939,86.9085 678.5,85.5 Z"/></g>
<g><path style="opacity:1" fill="#ca5a5a" d="M 664.5,88.5 C 665.496,88.4142 666.329,88.7476 667,89.5C 668.783,98.4868 667.616,98.8202 663.5,90.5C 663.863,89.8165 664.196,89.1499 664.5,88.5 Z"/></g>
<g><path style="opacity:1" fill="#c95858" d="M 691.5,88.5 C 692.995,88.4148 693.995,89.0815 694.5,90.5C 693.649,92.8816 692.316,94.8816 690.5,96.5C 690.167,95.8333 689.833,95.1667 689.5,94.5C 690.178,92.484 690.844,90.484 691.5,88.5 Z"/></g>
<g><path style="opacity:1" fill="#989898" d="M 106.5,93.5 C 91.324,93.1706 76.324,93.5039 61.5,94.5C 60.5266,94.0133 59.5266,93.5133 58.5,93C 75.2415,92.175 91.2415,92.3416 106.5,93.5 Z"/></g>
<g><path style="opacity:1" fill="#a19899" d="M 195.5,95.5 C 188.364,94.1692 180.864,93.5025 173,93.5C 165.326,93.5003 157.826,93.8336 150.5,94.5C 149.527,94.0133 148.527,93.5133 147.5,93C 163.83,92.5001 180.163,92.3334 196.5,92.5C 196.737,93.791 196.404,94.791 195.5,95.5 Z"/></g>
<g><path style="opacity:1" fill="#ac9a9b" d="M 225.5,91.5 C 234.009,92.1666 242.676,92.8333 251.5,93.5C 251.376,94.1067 251.043,94.44 250.5,94.5C 241.991,93.8334 233.324,93.1667 224.5,92.5C 224.624,91.8933 224.957,91.56 225.5,91.5 Z"/></g>
<g><path style="opacity:1" fill="#ad9b9b" d="M 299.5,92.5 C 287.833,93.1667 276.167,93.8333 264.5,94.5C 263.711,94.2172 263.044,93.7172 262.5,93C 274.829,92.5001 287.162,92.3335 299.5,92.5 Z"/></g>
<g><path style="opacity:1" fill="#b59a9b" d="M 302.5,91.5 C 311.009,92.1666 319.676,92.8333 328.5,93.5C 328.376,94.1067 328.043,94.44 327.5,94.5C 318.991,93.8334 310.324,93.1667 301.5,92.5C 301.624,91.8933 301.957,91.56 302.5,91.5 Z"/></g>
<g><path style="opacity:1" fill="#c09d9e" d="M 452.5,92.5 C 433.5,93.1667 414.5,93.8333 395.5,94.5C 394.711,94.2172 394.044,93.7172 393.5,93C 413.164,92.5 432.831,92.3334 452.5,92.5 Z"/></g>
<g><path style="opacity:1" fill="#cc9fa0" d="M 520.5,93.5 C 505.324,93.1706 490.324,93.5039 475.5,94.5C 474.527,94.0133 473.527,93.5133 472.5,93C 489.242,92.175 505.242,92.3416 520.5,93.5 Z"/></g>
<g><path style="opacity:1" fill="#eba2a3" d="M 760.5,93.5 C 769.318,92.5067 778.318,92.1734 787.5,92.5C 787.737,93.791 787.404,94.791 786.5,95.5C 778.231,93.5302 769.565,92.8636 760.5,93.5 Z"/></g>
<g><path style="opacity:1" fill="#f4f4f4" d="M 61.5,94.5 C 76.324,93.5039 91.324,93.1706 106.5,93.5C 104.829,98.8449 103.163,104.178 101.5,109.5C 88.8289,109.667 76.1623,109.5 63.5,109C 64.8288,105.684 66.1621,102.35 67.5,99C 65.68,97.257 63.68,95.757 61.5,94.5 Z"/></g>
<g><path style="opacity:1" fill="#fbfafa" d="M 475.5,94.5 C 490.324,93.5039 505.324,93.1706 520.5,93.5C 519.031,98.5738 517.364,103.574 515.5,108.5C 502.989,108.829 490.655,108.495 478.5,107.5C 479.197,104.577 480.197,101.744 481.5,99C 479.68,97.257 477.68,95.757 475.5,94.5 Z"/></g>
<g><path style="opacity:1" fill="#ca5858" d="M 650.5,95.5 C 653.407,96.7341 655.741,98.7341 657.5,101.5C 656.635,102.583 655.635,102.749 654.5,102C 652.077,100.429 650.744,98.2626 650.5,95.5 Z"/></g>
<g><path style="opacity:1" fill="#cb5c5c" d="M 705.5,95.5 C 707.225,95.8425 707.725,96.8425 707,98.5C 705.611,100.227 703.944,101.561 702,102.5C 701.5,102.167 701,101.833 700.5,101.5C 702.19,99.4807 703.856,97.4807 705.5,95.5 Z"/></g>
<g><path style="opacity:1" fill="#e37c7c" d="M 738.5,96.5 C 745.313,97.4912 752.313,97.8245 759.5,97.5C 752.323,98.8194 744.99,98.8194 737.5,97.5C 737.624,96.8933 737.957,96.56 738.5,96.5 Z"/></g>
<g><path style="opacity:1" fill="#c54a4c" d="M 676.5,102.5 C 685.207,102.037 688.707,106.037 687,114.5C 684.045,118.277 680.212,119.443 675.5,118C 669.974,112.357 670.308,107.19 676.5,102.5 Z"/></g>
<g><path style="opacity:1" fill="#c64e4f" d="M 656.5,107.5 C 663.827,106.329 666.994,109.329 666,116.5C 661.577,121.899 657.577,121.565 654,115.5C 653.388,112.389 654.221,109.723 656.5,107.5 Z"/></g>
<g><path style="opacity:1" fill="#c64d4f" d="M 695.5,107.5 C 705.334,107.129 707.667,110.962 702.5,119C 698.698,121.035 695.531,120.202 693,116.5C 691.927,112.9 692.76,109.9 695.5,107.5 Z"/></g>
<g><path style="opacity:1" fill="#cb9e9f" d="M 478.5,107.5 C 490.655,108.495 502.989,108.829 515.5,108.5C 502.994,109.825 490.327,109.825 477.5,108.5C 477.624,107.893 477.957,107.56 478.5,107.5 Z"/></g>
<g><path style="opacity:1" fill="#decccc" d="M 432.5,118.5 C 417.361,120.162 402.027,121.162 386.5,121.5C 385.711,121.217 385.044,120.717 384.5,120C 400.574,119.818 416.574,119.318 432.5,118.5 Z"/></g>
<g><path style="opacity:1" fill="#c4484a" d="M 694.5,135.5 C 684.833,135.5 675.167,135.5 665.5,135.5C 665.5,132.5 665.5,129.5 665.5,126.5C 666.29,125.206 667.29,124.039 668.5,123C 675.833,122.333 683.167,122.333 690.5,123C 692.333,123.5 693.5,124.667 694,126.5C 694.498,129.482 694.665,132.482 694.5,135.5 Z"/></g>
<g><path style="opacity:1" fill="#c75152" d="M 651.5,122.5 C 656.179,122.334 660.845,122.501 665.5,123C 662.769,125.897 661.769,129.397 662.5,133.5C 657.833,133.5 653.167,133.5 648.5,133.5C 647.944,129.334 648.944,125.668 651.5,122.5 Z"/></g>
<g><path style="opacity:1" fill="#c64f50" d="M 694.5,123.5 C 698.646,122.353 702.98,122.186 707.5,123C 710.231,125.897 711.231,129.397 710.5,133.5C 705.833,133.5 701.167,133.5 696.5,133.5C 696.664,130.813 696.497,128.146 696,125.5C 695.722,124.584 695.222,123.918 694.5,123.5 Z"/></g>
<g><path style="opacity:1" fill="#999999" d="M 104.5,124.5 C 86.1667,125.167 67.8333,125.833 49.5,126.5C 48.7109,126.217 48.0442,125.717 47.5,125C 66.4971,124.5 85.4971,124.333 104.5,124.5 Z"/></g>
<g><path style="opacity:1" fill="#cb9e9f" d="M 488.5,125.5 C 479.983,125.174 471.65,125.507 463.5,126.5C 462.527,126.013 461.527,125.513 460.5,125C 470.009,124.176 479.343,124.342 488.5,125.5 Z"/></g>
<g><path style="opacity:1" fill="#cea4a5" d="M 518.5,124.5 C 515.833,125.167 513.167,125.833 510.5,126.5C 509.711,126.217 509.044,125.717 508.5,125C 511.817,124.502 515.15,124.335 518.5,124.5 Z"/></g>
<g><path style="opacity:1" fill="#e79e9f" d="M 736.5,120.5 C 736.5,121.833 736.5,123.167 736.5,124.5C 740.884,124.174 745.217,124.508 749.5,125.5C 749.376,126.107 749.043,126.44 748.5,126.5C 744.366,125.515 740.032,125.182 735.5,125.5C 735.216,123.585 735.549,121.919 736.5,120.5 Z"/></g>
<g><path style="opacity:1" fill="#decbcb" d="M 391.5,128.5 C 407.167,129.167 422.833,129.833 438.5,130.5C 422.486,130.833 406.486,130.499 390.5,129.5C 390.624,128.893 390.957,128.56 391.5,128.5 Z"/></g>
<g><path style="opacity:1" fill="#f3cccc" d="M 748.5,127.5 C 756.769,129.47 765.435,130.136 774.5,129.5C 765.682,130.493 756.682,130.827 747.5,130.5C 747.263,129.209 747.596,128.209 748.5,127.5 Z"/></g>
<g><path style="opacity:1" fill="#e9bcbd" d="M 665.5,126.5 C 665.5,129.5 665.5,132.5 665.5,135.5C 675.167,135.5 684.833,135.5 694.5,135.5C 684.681,136.494 674.681,136.827 664.5,136.5C 664.187,132.958 664.521,129.625 665.5,126.5 Z"/></g>
<g><path style="opacity:1" fill="#c54c4d" d="M 725.5,137.5 C 729.139,139.139 731.805,141.805 733.5,145.5C 733.5,148.5 733.5,151.5 733.5,154.5C 733.262,158.138 731.596,160.971 728.5,163C 722.279,165.439 715.946,167.106 709.5,168C 710.376,166.414 711.376,164.914 712.5,163.5C 709.434,161.707 707.6,159.04 707,155.5C 704.969,144.858 709.302,138.524 720,136.5C 721.825,136.943 723.658,137.277 725.5,137.5 Z"/></g>
<g><path style="opacity:1" fill="#c4494b" d="M 639.5,139.5 C 640.833,139.5 642.167,139.5 643.5,139.5C 642.833,142.167 642.167,144.833 641.5,147.5C 645.226,147.177 648.893,147.511 652.5,148.5C 651.117,152.75 650.117,157.083 649.5,161.5C 644.167,161.5 638.833,161.5 633.5,161.5C 633.334,156.489 633.501,151.489 634,146.5C 636.454,144.559 638.287,142.225 639.5,139.5 Z"/></g>
<g><path style="opacity:1" fill="#776a6b" d="M 119.5,143.5 C 125.75,145.459 132.416,146.126 139.5,145.5C 132.687,146.491 125.687,146.825 118.5,146.5C 118.263,145.209 118.596,144.209 119.5,143.5 Z"/></g>
<g><path style="opacity:1" fill="#b37072" d="M 521.5,144.5 C 522.043,144.56 522.376,144.893 522.5,145.5C 515.344,146.819 508.344,146.819 501.5,145.5C 508.354,145.824 515.021,145.491 521.5,144.5 Z"/></g>
<g><path style="opacity:1" fill="#c37375" d="M 534.5,143.5 C 540.75,145.459 547.416,146.126 554.5,145.5C 547.687,146.491 540.687,146.825 533.5,146.5C 533.263,145.209 533.596,144.209 534.5,143.5 Z"/></g>
<g><path style="opacity:1" fill="#fbfafa" d="M 713.5,145.5 C 718.214,145.173 722.88,145.507 727.5,146.5C 725.167,146.833 722.833,147.167 720.5,147.5C 717.731,147.471 715.397,146.805 713.5,145.5 Z"/></g>
<g><path style="opacity:1" fill="#e07878" d="M 733.5,145.5 C 748.167,145.5 762.833,145.5 777.5,145.5C 763.343,146.496 749.01,146.829 734.5,146.5C 734.806,149.385 734.473,152.052 733.5,154.5C 733.5,151.5 733.5,148.5 733.5,145.5 Z"/></g>
<g><path style="opacity:1" fill="#c34748" d="M 625.5,148.5 C 627.167,148.5 628.833,148.5 630.5,148.5C 630.5,152.833 630.5,157.167 630.5,161.5C 628.833,161.5 627.167,161.5 625.5,161.5C 625.5,157.167 625.5,152.833 625.5,148.5 Z"/></g>
<g><path style="opacity:1" fill="#f7ecec" d="M 727.5,149.5 C 723.285,151.436 718.619,152.103 713.5,151.5C 717.715,149.564 722.381,148.897 727.5,149.5 Z"/></g>
<g><path style="opacity:1" fill="#df9f9f" d="M 727.5,149.5 C 728.404,150.209 728.737,151.209 728.5,152.5C 723.305,152.821 718.305,152.487 713.5,151.5C 718.619,152.103 723.285,151.436 727.5,149.5 Z"/></g>
<g><path style="opacity:1" fill="#f4e4e4" d="M 713.5,154.5 C 716.247,154.187 718.914,154.52 721.5,155.5C 720.167,155.833 718.833,156.167 717.5,156.5C 715.667,156.415 714.334,155.748 713.5,154.5 Z"/></g>
<g><path style="opacity:1" fill="#c85455" d="M 659.5,164.5 C 672.307,168.419 685.14,168.419 698,164.5C 700.163,164.495 701.663,165.495 702.5,167.5C 687.183,175.182 671.85,175.349 656.5,168C 657.71,166.961 658.71,165.794 659.5,164.5 Z"/></g>
</svg>
