<svg width="96" height="88" viewBox="0 0 96 88" fill="none" xmlns="http://www.w3.org/2000/svg">
<path d="M13.1725 72.92C13.8392 72.92 14.4392 73.0767 14.9725 73.39C15.5059 73.6967 15.9259 74.1233 16.2325 74.67C16.5392 75.21 16.6925 75.82 16.6925 76.5C16.6925 77.18 16.5392 77.7933 16.2325 78.34C15.9259 78.88 15.5059 79.3067 14.9725 79.62C14.4392 79.9267 13.8392 80.08 13.1725 80.08C12.5992 80.08 12.0792 79.9867 11.6125 79.8C11.1459 79.6133 10.7559 79.34 10.4425 78.98L11.0725 78.35C11.5992 78.9033 12.2825 79.18 13.1225 79.18C13.5692 79.18 13.9759 79.0833 14.3425 78.89C14.7092 78.69 15.0092 78.4133 15.2425 78.06C15.4759 77.7067 15.6159 77.3033 15.6625 76.85H12.2725V76.03H15.6525C15.5859 75.5967 15.4359 75.2133 15.2025 74.88C14.9692 74.5467 14.6725 74.2867 14.3125 74.1C13.9525 73.9133 13.5559 73.82 13.1225 73.82C12.2892 73.82 11.6059 74.0967 11.0725 74.65L10.4425 74.02C10.7559 73.66 11.1459 73.3867 11.6125 73.2C12.0859 73.0133 12.6059 72.92 13.1725 72.92ZM20.8529 76.92H19.3929V80H18.4129V73H19.3929V76.04H20.8729L23.0729 73H24.1429L21.6429 76.39L24.2629 80H23.1229L20.8529 76.92ZM28.5183 80.08C27.8117 80.08 27.175 79.9267 26.6083 79.62C26.0417 79.3067 25.595 78.8767 25.2683 78.33C24.9483 77.7833 24.7883 77.1733 24.7883 76.5C24.7883 75.8267 24.9483 75.2167 25.2683 74.67C25.595 74.1233 26.0417 73.6967 26.6083 73.39C27.175 73.0767 27.8117 72.92 28.5183 72.92C29.2183 72.92 29.8517 73.0767 30.4183 73.39C30.985 73.6967 31.4283 74.1233 31.7483 74.67C32.0683 75.21 32.2283 75.82 32.2283 76.5C32.2283 77.18 32.0683 77.7933 31.7483 78.34C31.4283 78.88 30.985 79.3067 30.4183 79.62C29.8517 79.9267 29.2183 80.08 28.5183 80.08ZM28.5183 79.19C29.0317 79.19 29.4917 79.0733 29.8983 78.84C30.3117 78.6067 30.635 78.2867 30.8683 77.88C31.1083 77.4667 31.2283 77.0067 31.2283 76.5C31.2283 75.9933 31.1083 75.5367 30.8683 75.13C30.635 74.7167 30.3117 74.3933 29.8983 74.16C29.4917 73.9267 29.0317 73.81 28.5183 73.81C28.005 73.81 27.5383 73.9267 27.1183 74.16C26.705 74.3933 26.3783 74.7167 26.1383 75.13C25.905 75.5367 25.7883 75.9933 25.7883 76.5C25.7883 77.0067 25.905 77.4667 26.1383 77.88C26.3783 78.2867 26.705 78.6067 27.1183 78.84C27.5383 79.0733 28.005 79.19 28.5183 79.19Z" fill="#DE2E2B"/>
<path d="M37.0749 80.08C36.3749 80.08 35.7415 79.9267 35.1749 79.62C34.6149 79.3067 34.1749 78.88 33.8549 78.34C33.5349 77.7933 33.3749 77.18 33.3749 76.5C33.3749 75.82 33.5349 75.21 33.8549 74.67C34.1749 74.1233 34.6182 73.6967 35.1849 73.39C35.7515 73.0767 36.3849 72.92 37.0849 72.92C37.6315 72.92 38.1315 73.0133 38.5849 73.2C39.0382 73.38 39.4249 73.65 39.7449 74.01L39.0949 74.64C38.5682 74.0867 37.9115 73.81 37.1249 73.81C36.6049 73.81 36.1349 73.9267 35.7149 74.16C35.2949 74.3933 34.9649 74.7167 34.7249 75.13C34.4915 75.5367 34.3749 75.9933 34.3749 76.5C34.3749 77.0067 34.4915 77.4667 34.7249 77.88C34.9649 78.2867 35.2949 78.6067 35.7149 78.84C36.1349 79.0733 36.6049 79.19 37.1249 79.19C37.9049 79.19 38.5615 78.91 39.0949 78.35L39.7449 78.98C39.4249 79.34 39.0349 79.6133 38.5749 79.8C38.1215 79.9867 37.6215 80.08 37.0749 80.08ZM41.2226 73H42.2126V78.4L46.3526 73H47.2726V80H46.2926V74.61L42.1426 80H41.2226V73ZM52.685 80.08C51.985 80.08 51.3517 79.9267 50.785 79.62C50.225 79.3067 49.785 78.88 49.465 78.34C49.145 77.7933 48.985 77.18 48.985 76.5C48.985 75.82 49.145 75.21 49.465 74.67C49.785 74.1233 50.2284 73.6967 50.795 73.39C51.3617 73.0767 51.995 72.92 52.695 72.92C53.2417 72.92 53.7417 73.0133 54.195 73.2C54.6484 73.38 55.035 73.65 55.355 74.01L54.705 74.64C54.1784 74.0867 53.5217 73.81 52.735 73.81C52.215 73.81 51.745 73.9267 51.325 74.16C50.905 74.3933 50.575 74.7167 50.335 75.13C50.1017 75.5367 49.985 75.9933 49.985 76.5C49.985 77.0067 50.1017 77.4667 50.335 77.88C50.575 78.2867 50.905 78.6067 51.325 78.84C51.745 79.0733 52.215 79.19 52.735 79.19C53.515 79.19 54.1717 78.91 54.705 78.35L55.355 78.98C55.035 79.34 54.645 79.6133 54.185 79.8C53.7317 79.9867 53.2317 80.08 52.685 80.08ZM61.5646 73.87H59.1646V80H58.1846V73.87H55.7946V73H61.5646V73.87ZM67.96 79.13V80H62.88V73H67.82V73.87H63.88V76.02H67.39V76.87H63.88V79.13H67.96ZM76.1204 80L76.1104 74.9L73.5804 79.15H73.1204L70.5904 74.93V80H69.6304V73H70.4504L73.3704 77.92L76.2504 73H77.0704L77.0804 80H76.1204ZM83.9093 78.25H80.1893L79.4193 80H78.3893L81.5593 73H82.5493L85.7293 80H84.6793L83.9093 78.25ZM83.5593 77.45L82.0493 74.02L80.5393 77.45H83.5593Z" fill="#2061CB"/>
<path d="M9.1748 62H15.0248V63.53H11.1248V64.66H12.9348C13.7815 64.66 14.4315 64.84 14.8848 65.2C15.3381 65.56 15.5648 66.0767 15.5648 66.75C15.5648 67.4567 15.3115 68.01 14.8048 68.41C14.2981 68.8033 13.5881 69 12.6748 69H9.1748V62ZM12.5448 67.58C12.8781 67.58 13.1315 67.5133 13.3048 67.38C13.4781 67.2467 13.5648 67.0567 13.5648 66.81C13.5648 66.3167 13.2248 66.07 12.5448 66.07H11.1248V67.58H12.5448ZM16.6869 62H18.6369V66.11L21.5269 62H23.3869V69H21.4369V64.9L18.5569 69H16.6869V62ZM29.32 65.36C29.7067 65.5067 30.01 65.7267 30.23 66.02C30.45 66.3133 30.56 66.65 30.56 67.03C30.56 67.4633 30.4134 67.84 30.12 68.16C29.8267 68.48 29.43 68.7267 28.93 68.9C28.43 69.0667 27.88 69.15 27.28 69.15C26.8067 69.15 26.3234 69.0933 25.83 68.98C25.3434 68.8667 24.8767 68.6967 24.43 68.47L25.02 67.09C25.3334 67.25 25.6667 67.3733 26.02 67.46C26.38 67.54 26.7267 67.58 27.06 67.58C27.5 67.58 27.86 67.51 28.14 67.37C28.42 67.2233 28.56 67.02 28.56 66.76C28.56 66.5533 28.4734 66.4 28.3 66.3C28.1267 66.2 27.8934 66.15 27.6 66.15H25.81V64.7H27.44C27.7067 64.7 27.9134 64.6467 28.06 64.54C28.2067 64.4333 28.28 64.29 28.28 64.11C28.28 63.8833 28.1667 63.71 27.94 63.59C27.7134 63.4633 27.42 63.4 27.06 63.4C26.7667 63.4 26.4567 63.4433 26.13 63.53C25.8034 63.61 25.4934 63.7267 25.2 63.88L24.62 62.38C25.3667 62.02 26.1867 61.84 27.08 61.84C27.6534 61.84 28.1834 61.9233 28.67 62.09C29.1634 62.25 29.5534 62.4833 29.84 62.79C30.1334 63.0967 30.28 63.46 30.28 63.88C30.28 64.2067 30.1934 64.5 30.02 64.76C29.8534 65.0133 29.62 65.2133 29.32 65.36ZM38.3907 62V69H36.4107V66.27H33.7107V69H31.7307V62H33.7107V64.63H36.4107V62H38.3907ZM45.6147 67.47V69H39.9947V62H45.4847V63.53H41.9547V64.71H45.0647V66.19H41.9547V67.47H45.6147ZM50.243 69.14C49.5097 69.14 48.8497 68.9867 48.263 68.68C47.683 68.3667 47.2263 67.9333 46.893 67.38C46.5597 66.8267 46.393 66.2 46.393 65.5C46.393 64.8 46.5597 64.1733 46.893 63.62C47.2263 63.0667 47.683 62.6367 48.263 62.33C48.8497 62.0167 49.5097 61.86 50.243 61.86C50.883 61.86 51.4597 61.9733 51.973 62.2C52.4863 62.4267 52.913 62.7533 53.253 63.18L51.993 64.32C51.5397 63.7733 50.9897 63.5 50.343 63.5C49.963 63.5 49.623 63.5833 49.323 63.75C49.0297 63.9167 48.7997 64.1533 48.633 64.46C48.473 64.76 48.393 65.1067 48.393 65.5C48.393 65.8933 48.473 66.2433 48.633 66.55C48.7997 66.85 49.0297 67.0833 49.323 67.25C49.623 67.4167 49.963 67.5 50.343 67.5C50.9897 67.5 51.5397 67.2267 51.993 66.68L53.253 67.82C52.913 68.2467 52.4863 68.5733 51.973 68.8C51.4597 69.0267 50.883 69.14 50.243 69.14Z" fill="#2061CB"/>
<path d="M60.6676 69.14C59.9343 69.14 59.2743 68.9867 58.6876 68.68C58.1076 68.3667 57.651 67.9333 57.3176 67.38C56.9843 66.8267 56.8176 66.2 56.8176 65.5C56.8176 64.8 56.9843 64.1733 57.3176 63.62C57.651 63.0667 58.1076 62.6367 58.6876 62.33C59.2743 62.0167 59.9343 61.86 60.6676 61.86C61.3076 61.86 61.8843 61.9733 62.3976 62.2C62.911 62.4267 63.3376 62.7533 63.6776 63.18L62.4176 64.32C61.9643 63.7733 61.4143 63.5 60.7676 63.5C60.3876 63.5 60.0476 63.5833 59.7476 63.75C59.4543 63.9167 59.2243 64.1533 59.0576 64.46C58.8976 64.76 58.8176 65.1067 58.8176 65.5C58.8176 65.8933 58.8976 66.2433 59.0576 66.55C59.2243 66.85 59.4543 67.0833 59.7476 67.25C60.0476 67.4167 60.3876 67.5 60.7676 67.5C61.4143 67.5 61.9643 67.2267 62.4176 66.68L63.6776 67.82C63.3376 68.2467 62.911 68.5733 62.3976 68.8C61.8843 69.0267 61.3076 69.14 60.6676 69.14ZM64.6721 62H66.6221V66.11L69.5121 62H71.3721V69H69.4221V64.9L66.5421 69H64.6721V62ZM79.4857 62V69H77.5357V63.57H75.5257L75.4857 64.71C75.4523 65.71 75.369 66.5233 75.2357 67.15C75.109 67.7767 74.889 68.2633 74.5757 68.61C74.2623 68.95 73.819 69.12 73.2457 69.12C72.979 69.12 72.679 69.08 72.3457 69L72.4557 67.38C72.5423 67.4 72.6323 67.41 72.7257 67.41C72.9857 67.41 73.1857 67.3067 73.3257 67.1C73.4657 66.8933 73.5657 66.6067 73.6257 66.24C73.6857 65.8667 73.7257 65.3833 73.7457 64.79L73.8457 62H79.4857ZM85.913 67.64H82.953L82.403 69H80.383L83.473 62H85.423L88.523 69H86.463L85.913 67.64ZM85.333 66.18L84.433 63.94L83.533 66.18H85.333Z" fill="#DE2E2B"/>
<path d="M24 28.2835L29.8393 29.602C32.2299 37.3611 39.4564 43.0001 48 43.0001C57.6718 43.0001 65.6558 35.7734 66.8467 26.4251C65.3072 26.3957 63.8632 26.4077 62.9284 26.4155C62.26 26.421 61.8519 26.4244 61.8552 26.4089C61.8394 26.3827 61.8394 26.3537 61.8394 26.3537C61.6448 25.6858 61.1636 25.2099 60.5877 24.9259L54.6239 21.5074C53.7587 21.0315 52.8936 20.7501 51.9312 20.5608L48.1867 19.906C48.092 19.906 48.0894 19.8114 48.0894 19.8114C48.0894 19.2381 47.7029 18.7622 46.7404 18.5729L46.7495 18.5789C47.0332 18.7662 47.32 18.9556 47.4136 19.3354C47.5109 19.7167 47.5135 20.1006 47.3216 20.3873C46.751 21.6337 45.7044 23.8372 44.0741 24.1291C42.7304 24.421 43.3956 22.7933 43.3956 22.7933C43.3956 22.7933 44.1556 20.879 44.3423 19.5379C44.529 18.1995 44.9103 17.6236 45.5808 17.3343C45.7189 17.2786 45.859 17.2228 46.0006 17.1665C46.8402 16.8323 47.7309 16.4778 48.5522 15.9827C48.6271 15.945 48.7059 15.9072 48.7863 15.8686C49.115 15.7108 49.471 15.5399 49.7013 15.3096C50.1416 15.3096 50.5265 15.5309 50.855 15.7197C50.9561 15.7779 51.0519 15.833 51.1423 15.8776L55.4706 18.252C55.9518 18.5387 56.2411 18.8227 56.4356 19.3012C56.4987 19.4301 56.5434 19.5668 56.5671 19.7115L56.6039 18.6254C56.6092 18.5071 56.6591 18.4019 56.7407 18.3283C80.4741 13.5807 59.3064 17.7389 72 15.2002V41.0001C72 44.8661 68.866 48.0001 65 48.0001H31C27.134 48.0001 24 44.8661 24 41.0001V28.2835Z" fill="#2061CB"/>
<path d="M34.5025 29.998C34.4236 30.2899 34.3973 30.5791 34.4157 30.8526C34.463 31.5731 34.818 32.1805 35.3755 32.3856C35.954 32.5986 36.5851 32.3251 37.1058 31.7677C37.274 31.5889 37.4292 31.3811 37.5686 31.1497C37.5712 31.1445 37.5738 31.1392 37.5791 31.134V31.0393C37.0295 30.8421 36.5062 30.6449 35.9961 30.4476C35.6018 30.2965 35.2166 30.1454 34.8315 29.9942L34.5998 29.9033C34.5367 29.9033 34.5051 29.9358 34.5051 30.0006L34.5025 29.998Z" fill="#2061CB"/>
<path d="M46.1199 31.2922C45.8333 31.1975 45.5466 31.1055 45.26 31.1055H45.2547C44.6537 31.1055 44.285 31.4922 44.0768 31.7105C44.0528 31.7358 44.0308 31.7588 44.011 31.7786C43.7243 32.0679 42.9618 33.5036 42.9618 33.5036C42.9618 33.5036 42.1992 35.0367 43.5455 35.51C43.7375 35.6046 43.9294 35.6046 44.2187 35.602C45.5462 35.5968 46.2115 33.9132 46.4099 33.4111L46.417 33.3932L46.4488 33.3294L46.4706 33.2861C46.7633 32.7044 47.2053 31.8261 46.1199 31.2895V31.2922Z" fill="#2061CB"/>
<path d="M38.8176 31.7519C38.6914 31.9123 38.6204 32.0912 38.5836 32.27C38.4836 32.7591 38.644 33.235 38.644 33.235C38.644 33.235 38.8413 34.5735 39.8957 34.5682C40.2796 34.5682 41.526 34.371 42.0046 33.6031C42.1966 33.2192 42.9539 31.2076 40.2665 31.2208C39.4934 31.2234 39.0569 31.4522 38.8176 31.7519Z" fill="#2061CB"/>
<path d="M47.665 36.7382C47.3822 36.7383 47.1928 36.7383 47.0034 36.5489C46.2355 35.9783 46.3276 35.3078 46.6142 34.9239C46.6142 34.9239 47.0902 34.0614 47.2821 33.7747L47.3086 33.7341L47.3328 33.6965C47.5085 33.4226 47.7145 33.1016 48.2393 33.1016H48.2507C48.5336 33.1015 48.8177 33.1015 49.0071 33.2909C50.2588 34.0508 49.6882 35.2972 48.4444 36.449C48.2524 36.641 47.9658 36.7382 47.6765 36.7382H47.665Z" fill="#2061CB"/>
<path d="M24 7C24 3.13401 27.134 0 31 0H65C68.866 0 72 3.13401 72 7V14.1803L65.0339 15.5735C61.9283 9.30764 55.4672 5 48 5C39.8674 5 32.9282 10.1095 30.2175 17.2935C34.1586 18.5148 39.3743 20.0237 40.6583 20.0237C40.7266 20.0237 40.7924 20.0237 40.8555 20.0185L38.1102 19.2743L43.9505 15.9032C44.5237 15.5193 45.2915 15.5167 45.9647 15.8953L46.4459 16.1819L45.1048 16.7604C45.1048 16.7604 43.9557 17.0523 43.5797 19.4426C43.393 20.497 43.1064 21.4542 42.7251 22.4114C42.7251 22.4114 41.7732 24.423 43.4062 24.799C45.0391 25.175 46.5669 23.5421 47.3321 22.0117C47.6161 21.5331 47.808 21.0545 47.9001 20.5759L51.6472 21.2307C52.5123 21.4174 53.3748 21.7014 54.1453 22.08C54.1453 22.08 58.5708 24.6439 60.1091 25.4985C60.493 25.6904 61.65 26.545 60.7902 28.1754H60.7928C60.3169 29.1325 59.0678 28.6592 58.392 28.3752C57.7423 28.1356 55.7139 27.2157 55.1065 26.9403C55.0207 26.9013 54.9632 26.8753 54.942 26.8658C55.1314 26.971 58.2264 28.7013 58.9732 29.8083C59.5543 30.6656 59.2677 31.5281 58.8864 31.8147C58.5051 32.1039 57.9292 32.2985 56.6802 31.7279C55.5284 31.1573 54.3741 30.5919 53.2197 30.116C53.2749 30.1528 55.0577 31.3598 55.7204 31.8278C56.2989 32.2065 56.3962 33.0663 56.0149 33.6422C55.155 34.7913 52.9436 33.6527 52.9436 33.6527L50.6427 32.6141C50.7926 32.693 53.7693 34.2628 52.2809 35.667C51.6104 36.3375 50.3613 35.8642 49.9774 35.5802C50.264 35.1963 50.3561 34.7177 50.2614 34.2418C50.2614 34.0507 50.1749 33.8596 50.0885 33.6685C50.0452 33.573 50.002 33.4774 49.9695 33.3819C49.775 33.0953 49.583 32.9059 49.2964 32.8113C49.0071 32.622 48.6232 32.5273 48.2393 32.4326C47.95 32.4326 47.6634 32.5299 47.4715 32.6272C47.4715 32.5802 47.4948 32.5092 47.5183 32.4377C47.5421 32.3652 47.5661 32.2923 47.5661 32.2433C47.5661 31.7647 47.3689 31.0942 46.5038 30.6209C46.1199 30.4315 45.7359 30.3369 45.352 30.3369C44.3922 30.3421 43.7217 31.0127 43.5324 31.3019L42.9591 32.1644C42.9591 31.8778 42.8618 31.6858 42.6672 31.4965C42.2807 30.8286 41.5129 30.4499 40.2638 30.4552C40.0719 30.4552 39.8562 30.4815 39.6406 30.5183C39.4855 30.5446 39.333 30.5762 39.1857 30.6103C31.371 28.8087 30.8983 28.8159 24 27.2582V7Z" fill="#DE2E2B"/>
</svg>
