<svg width="120" height="120" viewBox="0 0 120 120" fill="none" xmlns="http://www.w3.org/2000/svg">
<rect width="120" height="120" fill="#E55E5C"/>
<path d="M120 0H0V120H120V0Z" fill="url(#paint0_radial_6183_42107)"/>
<path d="M0 120H85.8252C83.301 110.68 75.7282 102.524 67.1845 96.8932C69.0367 95.9671 70.7095 95.8088 72.4102 95.6478C74.5088 95.4492 76.65 95.2465 79.2233 93.5922C83.9906 90.5275 87.4135 81.1575 90.9294 71.5327C94.0117 63.0951 97.1654 54.4617 101.359 49.7087L92.6214 43.301L62.3301 44.2718C58.1145 47.6739 53.0432 52.0162 47.7726 56.5291C34.5929 67.8141 20.1668 80.1663 14.7573 81.5534C13.0217 81.9984 11.3985 83.9266 9.43681 86.2568C7.40424 88.6712 5.00832 91.5172 1.74757 93.5922C1.15501 93.9693 0.57242 94.3596 0 94.7659V120Z" fill="#174692"/>
<path d="M84.5672 62.9629C84.5672 61.0665 85.1574 59.8313 86.4242 59.0541C87.7039 58.2689 89.1077 57.5745 89.8523 56.2707C92.2322 52.1034 93.5921 47.2785 93.5921 42.1359C93.5921 26.3717 80.8127 13.5922 65.0484 13.5922C49.2842 13.5922 36.5048 26.3717 36.5048 42.1359C36.5048 51.9191 41.4266 60.5527 48.9291 65.6957L32.8154 79.2233L49.7086 92.8155L60.0903 79.8384C61.1899 78.4639 63.2254 78.3372 64.6044 79.4311C66.7643 81.1444 68.9864 82.4956 70.9637 83.3311C73.0628 84.218 75.226 82.9695 76.2598 80.9388L79.7168 74.1483C79.8822 73.8235 80.2511 73.6574 80.6039 73.7488L83.1821 74.4172C84.201 74.6814 85.1821 73.8771 85.1229 72.8262L84.5672 62.9629Z" fill="#F7E0CE"/>
<path d="M42.9126 81.3592L44.2718 77.0874C73.5922 55.7281 91.2621 44.466 101.359 49.7087C97.0874 37.6699 89.3204 13.5922 63.8835 13.5922C32.233 13.5922 23.6893 65.0485 20.5825 78.4466C42.3301 78.4466 44.2718 110.68 67.1845 111.845C57.6699 101.553 58.4466 87.5728 42.9126 81.3592Z" fill="#1C55B0"/>
<defs>
<radialGradient id="paint0_radial_6183_42107" cx="0" cy="0" r="1" gradientUnits="userSpaceOnUse" gradientTransform="translate(60 60.156) scale(84.234)">
<stop stop-color="white"/>
<stop offset="0.06368" stop-color="white" stop-opacity="0.894"/>
<stop offset="0.23104" stop-color="white" stop-opacity="0.647"/>
<stop offset="0.46656" stop-color="white" stop-opacity="0.353"/>
<stop offset="0.73472" stop-color="white" stop-opacity="0.106"/>
<stop offset="1" stop-color="white" stop-opacity="0"/>
</radialGradient>
</defs>
</svg>
