<svg fill="none" height="32" viewBox="0 0 32 32" width="32" xmlns="http://www.w3.org/2000/svg"><clipPath id="a"><path d="m0 0h32v32h-32z"/></clipPath><g clip-path="url(#a)"><rect fill="#fcfcfd" height="32" rx="6" width="32"/><g fill="#2061cb"><path d="m27.8932 17.6074c-.7659-.0069-1.4562-.0012-1.9411.0028-.4455.0037-.7176.006-.7154-.0043-.0106-.0176-.0106-.0368-.0106-.0368-.1297-.4453-.4505-.7626-.8344-.9519l-3.9759-2.279c-.5767-.3173-1.1535-.5049-1.7951-.6311l-2.4963-.4365c-.0631 0-.0649-.0631-.0649-.0631 0-.3822-.2577-.6995-.8993-.8257l.0061.004c.1891.1249.3802.2512.4427.5044.0648.2542.0666.5101-.0614.7012-.3804.831-1.0781 2.3-2.165 2.4946-.8958.1946-.4523-.8906-.4523-.8906s.5067-1.2762.6311-2.1702c.1245-.8923.3787-1.2762.8257-1.4691.092-.0371.1854-.0743.2797-.1118.5598-.2228 1.1537-.4592 1.7012-.7892.05-.0252.1025-.0504.156-.0761.2192-.1052.4566-.2192.6101-.3727.2935 0 .5502.1476.7691.2734.0675.0388.1313.0755.1916.1053l2.8855 1.5829c.3208.1911.5136.3805.6433.6995.0421.0859.0719.1771.0877.2735l.0245-.724c.0035-.0789.0369-.149.0912-.1981l5.5324-.211.0031.0038 4.6375-1.4269v15.4152c0 3.3138-2.6863 6-6 6h-20.00001c-3.3137 0-5.99999-2.6862-5.99999-6v-6.3962l4.85645.857c1.77033 4.4185 6.09245 7.5393 11.14355 7.5393 6.0823 0 11.1078-4.5253 11.8932-10.3926z"/><path d="m7.00153 19.9985c-.05259.1946-.07012.3874-.05785.5698.03155.4803.26821.8852.63986 1.022.38566.142.80639-.0403 1.1535-.412.11219-.1192.21562-.2577.30853-.4119 0 0 .00351-.0071.00701-.0106v-.0631c-.36638-.1315-.71524-.2629-1.05533-.3944-.26285-.1008-.51963-.2015-.7764-.3023l-.15446-.0606c-.04207 0-.06311.0216-.06311.0649z"/><path d="m14.7464 20.8613c-.191-.0631-.3821-.1245-.5732-.1245h-.0035c-.4007 0-.6465.2578-.7853.4034-.016.0168-.0307.0322-.0439.0454-.1911.1929-.6995 1.15-.6995 1.15s-.5083 1.022.3892 1.3376c.128.0631.256.0631.4488.0613.885-.0034 1.3285-1.1258 1.4608-1.4606l.0047-.0119.0212-.0426.0145-.0288c.1952-.3878.4892-.9719-.2338-1.3293z"/><path d="m9.72224 21.5132c.02454-.1192.07187-.2384.15602-.3454.15954-.1998.45054-.3523.96594-.3541 1.7916-.0088 1.2867 1.3323 1.1587 1.5883-.319.5118-1.15.6433-1.4059.6433-.70296.0035-.83444-.8888-.83444-.8888s-.10694-.3173-.04032-.6433z"/><path d="m15.7765 24.492c-.1885 0-.3148.0001-.4411-.1262-.5118-.3804-.4505-.8274-.2594-1.0834 0 0 .3173-.575.4453-.7661l.0176-.027.0162-.0251c.1171-.1826.2544-.3966.6043-.3966h.0076c.1886-.0001.378-.0001.5043.1262.8344.5066.454 1.3376-.3752 2.1054-.128.128-.319.1928-.5119.1928z"/></g><path d="m5.99999 0c-3.3137 0-5.99999 2.68629-5.99999 5.99999v11.57271l4.22371.7454c-.00236-.0121-.0047-.0242-.00703-.0363 2.16517.4928 2.40961.7266 2.66497.9708.27386.262.56029.5359 3.24215 1.1542.0982-.0228.1999-.0438.3033-.0613.1437-.0246.2875-.0421.4155-.0421.8327-.0035 1.3445.2489 1.6022.6942.1298.1262.1946.2542.1946.4453l.3822-.575c.1262-.1929.5732-.6399 1.2131-.6434.2559 0 .5119.0631.7678.1893.5768.3156.7083.7626.7083 1.0817 0 .0326-.016.0813-.0319.1296-.0157.0476-.0313.095-.0313.1263.128-.0649.3191-.1297.5119-.1297.256.0631.5119.1262.7048.2524.191.0631.319.1893.4487.3804.0217.0637.0505.1274.0793.1911.0577.1274.1153.2548.1153.3822.0631.3173.0018.6363-.1893.8923.2559.1893 1.0886.5048 1.5357.0578.9922-.9361-.9923-1.9827-1.0922-2.0353l1.5339.6925s1.4743.7591 2.0476-.007c.2542-.3839.1893-.9572-.1964-1.2096-.4417-.3121-1.6303-1.1167-1.6671-1.1412.7696.3173 1.5392.6942 2.307 1.0746.8327.3804 1.2166.2506 1.4708.0578.2542-.1911.4453-.7661.0578-1.3376-.4978-.738-2.5612-1.8915-2.6874-1.9616l.1097.0496c.4052.1838 1.7573.7969 2.1903.9566.4505.1894 1.2815.5049 1.5988-.1332.5732-1.0869-.1981-1.6566-.4541-1.7846-1.0255-.5697-3.9758-2.2789-3.9758-2.2789-.5137-.2525-1.0887-.4418-1.6654-.5663l-2.4981-.4365c-.0614.3191-.1893.6381-.3787.9572-.5101 1.0203-1.5286 2.1089-2.6173 1.8582-1.0886-.2507-.454-1.5918-.454-1.5918.2542-.6381.4453-1.2762.5697-1.9791.2507-1.5935 1.0168-1.7881 1.0168-1.7881l.8941-.3857-.3208-.1911c-.4488-.2524-.9607-.2507-1.3429.0053l-3.89347 2.2474 1.83017.4961c-.0421.0035-.0859.0035-.1315.0035-.7882 0-3.79864-.8529-6.32183-1.6237 1.72235-4.51676 6.09463-7.72541 11.21633-7.72541 4.5175 0 8.452 2.49628 10.4993 6.18471l5.5007-1.69254v-2.49217c0-3.3137-2.6863-5.99999-6-5.99999z" fill="#de2e2b"/></g></svg>