<svg xmlns="http://www.w3.org/2000/svg">
    <symbol fill="none" viewBox="0 0 21 20" id="checkbox" xmlns="http://www.w3.org/2000/svg">
        <rect x=".5" width="20" height="20" rx="5" fill="#2061CB"/>
        <path d="M6.5 11l3 3 6-6" stroke="#fff" stroke-width="2" stroke-linecap="round" stroke-linejoin="round"/>
    </symbol>
    <symbol fill="none" viewBox="0 0 24 24" id="fullscreen" xmlns="http://www.w3.org/2000/svg">
        <path d="M4 8V6a2 2 0 012-2h2M4 16v2a2 2 0 002 2h2m8-16h2a2 2 0 012 2v2m-4 12h2a2 2 0 002-2v-2"
              stroke="currentColor" stroke-width="var(--icon-stroke-width)" stroke-linejoin="round"/>
    </symbol>
    <symbol fill="none" viewBox="0 0 24 24" id="icon" xmlns="http://www.w3.org/2000/svg">
        <g stroke="#4F88E3" stroke-width="2" stroke-linecap="round" stroke-linejoin="round">
            <path d="M5 17a2 2 0 104 0 2 2 0 00-4 0zM15 17a2 2 0 104 0 2 2 0 00-4 0z"/>
            <path d="M5 17H3v-6m0 0l2-5h9l4 5M3 11h15m0 0h1a2 2 0 012 2v4h-2m-4 0H9m3-6V6"/>
        </g>
    </symbol>
    <symbol fill="none" viewBox="0 0 24 24" id="icon-abc" xmlns="http://www.w3.org/2000/svg">
        <path d="M4 21l.889-2M12 21l-.889-2M4.89 19L8 12l3.111 7M4.89 19h6.222M13 3h7l-7 9h7" stroke="currentColor"
              stroke-width="var(--icon-stroke-width)" stroke-linecap="round" stroke-linejoin="round"/>
    </symbol>
    <symbol fill="none" viewBox="0 0 24 24" id="icon-advertising" xmlns="http://www.w3.org/2000/svg">
        <path d="M18 8a3 3 0 010 6m-8-6v11a1 1 0 01-1 1H8a1 1 0 01-1-1v-5m5-6l4.524-3.77A.9.9 0 0118 4.922v12.156a.9.9 0 01-1.476.692L12 14H4a1 1 0 01-1-1V9a1 1 0 011-1h8z"
              stroke="currentColor" stroke-width="var(--icon-stroke-width)" stroke-linecap="round"
              stroke-linejoin="round"/>
    </symbol>
    <symbol fill="none" viewBox="0 0 24 24" id="icon-album" xmlns="http://www.w3.org/2000/svg">
        <path d="M7 5H5a2 2 0 00-2 2v10a2 2 0 002 2h2M7 5h12a2 2 0 012 2v10a2 2 0 01-2 2H7M7 5v14m5-6h4a1 1 0 001-1v-2a1 1 0 00-1-1h-4a1 1 0 00-1 1v2a1 1 0 001 1z"
              stroke="currentColor" stroke-width="var(--icon-stroke-width)"/>
    </symbol>
    <symbol fill="none" viewBox="0 0 24 24" id="icon-aligncenter" xmlns="http://www.w3.org/2000/svg">
        <path d="M4 6h16M8 12h8M6 18h12" stroke="currentColor" stroke-width="var(--icon-stroke-width)"
              stroke-linecap="round" stroke-linejoin="round"/>
    </symbol>
    <symbol fill="none" viewBox="0 0 24 24" id="icon-alignleft" xmlns="http://www.w3.org/2000/svg">
        <path d="M4 6h16M4 12h10M4 18h14" stroke="currentColor" stroke-width="var(--icon-stroke-width)"
              stroke-linecap="round" stroke-linejoin="round"/>
    </symbol>
    <symbol fill="none" viewBox="0 0 24 24" id="icon-alignright" xmlns="http://www.w3.org/2000/svg">
        <path d="M4 6h16m-10 6h10M6 18h14" stroke="currentColor" stroke-width="var(--icon-stroke-width)"
              stroke-linecap="round" stroke-linejoin="round"/>
    </symbol>
    <symbol fill="none" viewBox="0 0 24 24" id="icon-all" xmlns="http://www.w3.org/2000/svg">
        <path d="M13.5 19.5a1.5 1.5 0 10-3 0 1.5 1.5 0 003 0zM17.5 12a1.5 1.5 0 10-3 0 1.5 1.5 0 003 0zM9.5 12a1.5 1.5 0 10-3 0 1.5 1.5 0 003 0zM6 4.5a1.5 1.5 0 10-3 0 1.5 1.5 0 003 0zM21 4.5a1.5 1.5 0 10-3 0 1.5 1.5 0 003 0zM13.5 4.5a1.5 1.5 0 10-3 0 1.5 1.5 0 003 0z"
              stroke="currentColor" stroke-width="var(--icon-stroke-width)"/>
    </symbol>
    <symbol fill="none" viewBox="0 0 24 24" id="icon-archive" xmlns="http://www.w3.org/2000/svg">
        <path d="M19 8a2 2 0 100-4H5a2 2 0 100 4m14 0H5m14 0v10a2 2 0 01-2 2H7a2 2 0 01-2-2V8m5 4h4"
              stroke="currentColor" stroke-width="var(--icon-stroke-width)" stroke-linecap="round"
              stroke-linejoin="round"/>
    </symbol>
    <symbol fill="none" viewBox="0 0 24 24" id="icon-arrow" xmlns="http://www.w3.org/2000/svg">
        <path d="M6 15l6-6 6 6" stroke="currentColor" stroke-width="var(--icon-stroke-width)" stroke-linecap="round"
              stroke-linejoin="round"/>
    </symbol>
    <symbol fill="none" viewBox="0 0 24 24" id="icon-arrow-left-up" xmlns="http://www.w3.org/2000/svg">
        <path d="M18 17.747h-6a3 3 0 01-3-3v-10l-4 4m8 0l-4-4" stroke="currentColor"
              stroke-width="var(--icon-stroke-width)" stroke-linecap="round" stroke-linejoin="round"/>
    </symbol>
    <symbol fill="none" viewBox="0 0 24 24" id="icon-arrows-down-up" xmlns="http://www.w3.org/2000/svg">
        <path d="M17 3v18M10 18l-3 3-3-3M7 21V3M20 6l-3-3-3 3" stroke="currentColor"
              stroke-width="var(--icon-stroke-width)" stroke-linecap="round" stroke-linejoin="round"/>
    </symbol>
    <symbol fill="none" viewBox="0 0 24 24" id="icon-ball" xmlns="http://www.w3.org/2000/svg">
        <g stroke="currentColor" stroke-width="var(--icon-stroke-width)" stroke-linecap="round" stroke-linejoin="round">
            <path d="M21 12a9 9 0 11-18 0 9 9 0 0118 0zM18.35 5.65l-12.7 12.7M18.35 18.35L5.65 5.65M12 3a9 9 0 01-9 9M21 12a9 9 0 00-9 9"/>
        </g>
    </symbol>
    <symbol fill="none" viewBox="0 0 24 24" id="icon-ballon" xmlns="http://www.w3.org/2000/svg">
        <path d="M12 17c3.866 0 6-5.134 6-9 0-3-2.134-6-6-6S6 5 6 8c0 3.866 2.134 9 6 9zm0 0v5m0-5l-2 1m2-1l2 1M9 8.474C9 6.737 10.067 5 12 5"
              stroke="currentColor" stroke-width="var(--icon-stroke-width)" stroke-linecap="round"/>
    </symbol>
    <symbol fill="none" viewBox="0 0 24 24" id="icon-bell" xmlns="http://www.w3.org/2000/svg">
        <path d="M9 17v1a3 3 0 006 0v-1M10 5a2 2 0 114 0 7 7 0 014 6v3a4 4 0 002 3H4a4 4 0 002-3v-3a7 7 0 014-6z"
              stroke="currentColor" stroke-width="var(--icon-stroke-width)" stroke-linecap="round"
              stroke-linejoin="round"/>
    </symbol>
    <symbol fill="none" viewBox="0 0 24 24" id="icon-bill" xmlns="http://www.w3.org/2000/svg">
        <path d="M14 8h-2.5a1.5 1.5 0 000 3h1a1.5 1.5 0 110 3H10m2 0v1.5m0-9V8M5 21V5a2 2 0 012-2h10a2 2 0 012 2v16l-3-2-2 2-2-2-2 2-2-2-3 2z"
              stroke="currentColor" stroke-width="var(--icon-stroke-width)" stroke-linecap="round"
              stroke-linejoin="round"/>
    </symbol>
    <symbol fill="none" viewBox="0 0 24 24" id="icon-birthday" xmlns="http://www.w3.org/2000/svg">
        <path d="M13 9a1 1 0 10-2 0h2zm-8 7a1 1 0 102 0H5zm12 0a1 1 0 102 0h-2zm-4-9a1 1 0 102 0h-2zM9 7a1 1 0 002 0H9zm11 8v4h2v-4h-2zm-1 5H5v2h14v-2zM4 19v-4H2v4h2zm3-7h5v-2H7v2zm5 0h5v-2h-5v2zm-1-3v2h2V9h-2zM5 20a1 1 0 01-1-1H2a3 3 0 003 3v-2zm15-1a1 1 0 01-1 1v2a3 3 0 003-3h-2zm2-4a5 5 0 00-5-5v2a3 3 0 013 3h2zM4 15a3 3 0 013-3v-2a5 5 0 00-5 5h2zm4 0a1 1 0 011 1h2a3 3 0 00-3-3v2zm0-2a3 3 0 00-3 3h2a1 1 0 011-1v-2zm8 2a1 1 0 011 1h2a3 3 0 00-3-3v2zm0-2a3 3 0 00-3 3h2a1 1 0 011-1v-2zm-4 6a3 3 0 003-3h-2a1 1 0 01-1 1v2zm0-2a1 1 0 01-1-1H9a3 3 0 003 3v-2zm1-11v1h2V6h-2zm-2 1V6H9v1h2zm4-1c0-.768-.293-1.692-.725-2.423a3.895 3.895 0 00-.865-1.039C13.053 2.247 12.573 2 12 2v2c-.021 0 .026-.01.147.089.122.1.266.268.406.506C12.845 5.088 13 5.664 13 6h2zm-4 0c0-.337.155-.912.447-1.405.14-.238.284-.407.406-.506C11.974 3.99 12.021 4 12 4V2c-.573 0-1.053.247-1.41.538-.357.29-.644.664-.865 1.039C9.293 4.307 9 5.232 9 6h2z"
              fill="currentColor"/>
    </symbol>
    <symbol fill="none" viewBox="0 0 24 24" id="icon-blocked" xmlns="http://www.w3.org/2000/svg">
        <path d="M20.042 16.045A9 9 0 007.955 3.958M5.637 5.635a9 9 0 1012.725 12.73M3 3l18 18" stroke="currentColor"
              stroke-width="var(--icon-stroke-width)" stroke-linecap="round" stroke-linejoin="round"/>
    </symbol>
    <symbol fill="none" viewBox="0 0 24 24" id="icon-bookmark" xmlns="http://www.w3.org/2000/svg">
        <path d="M8 3h8a2 2 0 012 2v16l-6-3-6 3V5a2 2 0 012-2z" stroke="currentColor"
              stroke-width="var(--icon-stroke-width)" stroke-linecap="round" stroke-linejoin="round"/>
    </symbol>
    <symbol fill="none" viewBox="0 0 24 24" id="icon-box" xmlns="http://www.w3.org/2000/svg">
        <g stroke="currentColor" stroke-width="var(--icon-stroke-width)" stroke-linecap="round" stroke-linejoin="round">
            <path d="M12 3l8 4.5v9L12 21l-8-4.5v-9L12 3zM12 12l8-4.5M12 12v9M12 12L4 7.5"/>
        </g>
    </symbol>
    <symbol fill="none" viewBox="0 0 24 24" id="icon-broadcast" xmlns="http://www.w3.org/2000/svg">
        <path d="M8.43 8.5A4.984 4.984 0 007 12c0 1.363.545 2.598 1.43 3.5m7.14-7A4.984 4.984 0 0117 12a4.984 4.984 0 01-1.43 3.5M5.293 6A8.967 8.967 0 003 12c0 2.305.867 4.408 2.292 6M18.708 6A8.967 8.967 0 0121 12a8.967 8.967 0 01-2.292 6M13 12a1 1 0 11-2 0 1 1 0 012 0z"
              stroke="currentColor" stroke-width="var(--icon-stroke-width)" stroke-linecap="round"/>
    </symbol>
    <symbol fill="none" viewBox="0 0 24 24" id="icon-browser" xmlns="http://www.w3.org/2000/svg">
        <path d="M4 8h16M8 4v4M5 4h14a1 1 0 011 1v14a1 1 0 01-1 1H5a1 1 0 01-1-1V5a1 1 0 011-1z" stroke="currentColor"
              stroke-width="var(--icon-stroke-width)" stroke-linecap="round" stroke-linejoin="round"/>
    </symbol>
    <symbol fill="none" viewBox="0 0 24 24" id="icon-burger" xmlns="http://www.w3.org/2000/svg">
        <path d="M2.667 5h18.666M2.667 12h18.666M2.667 19h18.666" stroke="currentColor"
              stroke-width="var(--icon-stroke-width)" stroke-linecap="round" stroke-linejoin="round"/>
    </symbol>
    <symbol fill="none" viewBox="0 0 25 24" id="icon-buy" xmlns="http://www.w3.org/2000/svg">
        <path d="M21.191 12l-.083-1-.167-2h-16l-1 12h10" stroke="currentColor" stroke-width="var(--icon-stroke-width)"
              stroke-linecap="round" stroke-linejoin="round"/>
        <path d="M16.941 11V7a4 4 0 00-8 0v4" stroke="currentColor" stroke-width="var(--icon-stroke-width)"
              stroke-linecap="round"/>
        <path d="M18.941 21v-7m0 7l3-3m-3 3l-3-3" stroke="currentColor" stroke-width="var(--icon-stroke-width)"
              stroke-linecap="round" stroke-linejoin="round"/>
    </symbol>
    <symbol fill="none" viewBox="0 0 24 24" id="icon-cake" xmlns="http://www.w3.org/2000/svg">
        <path d="M13 9a1 1 0 10-2 0h2zm-8 7a1 1 0 102 0H5zm12 0a1 1 0 102 0h-2zm-4-9a1 1 0 102 0h-2zM9 7a1 1 0 002 0H9zm11 8v4h2v-4h-2zm-1 5H5v2h14v-2zM4 19v-4H2v4h2zm3-7h5v-2H7v2zm5 0h5v-2h-5v2zm-1-3v2h2V9h-2zM5 20a1 1 0 01-1-1H2a3 3 0 003 3v-2zm15-1a1 1 0 01-1 1v2a3 3 0 003-3h-2zm2-4a5 5 0 00-5-5v2a3 3 0 013 3h2zM4 15a3 3 0 013-3v-2a5 5 0 00-5 5h2zm4 0a1 1 0 011 1h2a3 3 0 00-3-3v2zm0-2a3 3 0 00-3 3h2a1 1 0 011-1v-2zm8 2a1 1 0 011 1h2a3 3 0 00-3-3v2zm0-2a3 3 0 00-3 3h2a1 1 0 011-1v-2zm-4 6a3 3 0 003-3h-2a1 1 0 01-1 1v2zm0-2a1 1 0 01-1-1H9a3 3 0 003 3v-2zm1-11v1h2V6h-2zm-2 1V6H9v1h2zm4-1c0-.768-.293-1.692-.725-2.423a3.895 3.895 0 00-.865-1.039C13.053 2.247 12.573 2 12 2v2c-.021 0 .026-.01.147.089.122.1.266.268.406.506C12.845 5.088 13 5.664 13 6h2zm-4 0c0-.337.155-.912.447-1.405.14-.238.284-.407.406-.506C11.974 3.99 12.021 4 12 4V2c-.573 0-1.053.247-1.41.538-.357.29-.644.664-.865 1.039C9.293 4.307 9 5.232 9 6h2z"
              fill="currentColor"/>
    </symbol>
    <symbol fill="none" viewBox="0 0 24 24" id="icon-calendar" xmlns="http://www.w3.org/2000/svg">
        <path d="M16 3v4M8 3v4m-4 4h16m-9 4h1v3M6 5h12a2 2 0 012 2v12a2 2 0 01-2 2H6a2 2 0 01-2-2V7a2 2 0 012-2z"
              stroke="currentColor" stroke-width="var(--icon-stroke-width)" stroke-linecap="round"
              stroke-linejoin="round"/>
    </symbol>
    <symbol fill="none" viewBox="0 0 24 24" id="icon-calendar-plus" xmlns="http://www.w3.org/2000/svg">
        <path d="M16 3v4M8 3v4m-4 4h16m-10 5h4m-2-2v4M6 5h12a2 2 0 012 2v12a2 2 0 01-2 2H6a2 2 0 01-2-2V7a2 2 0 012-2z"
              stroke="currentColor" stroke-width="var(--icon-stroke-width)" stroke-linecap="round"
              stroke-linejoin="round"/>
    </symbol>
    <symbol fill="none" viewBox="0 0 24 24" id="icon-camera" xmlns="http://www.w3.org/2000/svg">
        <path d="M9.5 5h5V3h-5v2zM5 8h1.5V6H5v2zM4 9a1 1 0 011-1V6a3 3 0 00-3 3h2zm0 9V9H2v9h2zm1 1a1 1 0 01-1-1H2a3 3 0 003 3v-2zm14 0H5v2h14v-2zm1-1a1 1 0 01-1 1v2a3 3 0 003-3h-2zm0-9v9h2V9h-2zm-1-1a1 1 0 011 1h2a3 3 0 00-3-3v2zm-1.5 0H19V6h-1.5v2zM7 5.5a.5.5 0 01-.5.5v2A2.5 2.5 0 009 5.5H7zm10.5.5a.5.5 0 01-.5-.5h-2A2.5 2.5 0 0017.5 8V6zm-3-1a.5.5 0 01.5.5h2A2.5 2.5 0 0014.5 3v2zm-5-2A2.5 2.5 0 007 5.5h2a.5.5 0 01.5-.5V3zM14 13a2 2 0 01-2 2v2a4 4 0 004-4h-2zm-2 2a2 2 0 01-2-2H8a4 4 0 004 4v-2zm-2-2a2 2 0 012-2V9a4 4 0 00-4 4h2zm2-2a2 2 0 012 2h2a4 4 0 00-4-4v2z"
              fill="currentColor"/>
    </symbol>
    <symbol fill="none" viewBox="0 0 24 24" id="icon-camera-rotate" xmlns="http://www.w3.org/2000/svg">
        <path d="M11.245 15.904A3.001 3.001 0 0015 13m-2.25-2.905A3 3 0 009 13m5 0h2v2m-6-2H8v-2M5 7h1a2 2 0 002-2 1 1 0 011-1h6a1 1 0 011 1 2 2 0 002 2h1a2 2 0 012 2v9a2 2 0 01-2 2H5a2 2 0 01-2-2V9a2 2 0 012-2z"
              stroke="currentColor" stroke-width="var(--icon-stroke-width)" stroke-linecap="round"
              stroke-linejoin="round"/>
    </symbol>
    <symbol fill="none" viewBox="0 0 24 24" id="icon-car" xmlns="http://www.w3.org/2000/svg">
        <g stroke="currentColor" stroke-width="var(--icon-stroke-width)" stroke-linecap="round" stroke-linejoin="round">
            <path d="M5 17a2 2 0 104 0 2 2 0 00-4 0zM15 17a2 2 0 104 0 2 2 0 00-4 0z"/>
            <path d="M5 17H3v-6m0 0l2-5h9l4 5M3 11h15m0 0h1a2 2 0 012 2v4h-2m-4 0H9m3-6V6"/>
        </g>
    </symbol>
    <symbol fill="none" viewBox="0 0 24 24" id="icon-cart" xmlns="http://www.w3.org/2000/svg">
        <path d="M4 7h16m-10 4v6m4-6v6M5 7l1 12a2 2 0 002 2h8a2 2 0 002-2l1-12M9 7V4a1 1 0 011-1h4a1 1 0 011 1v3"
              stroke="currentColor" stroke-width="var(--icon-stroke-width)" stroke-linecap="round"
              stroke-linejoin="round"/>
    </symbol>
    <symbol fill="none" viewBox="0 0 24 24" id="icon-cat" xmlns="http://www.w3.org/2000/svg">
        <path d="M8.682 5.341l-.447.894a1 1 0 00.736.063l-.289-.957zM4 3l.447-.894A1 1 0 003 3h1zm11.318 2.341l-.29.957a1 1 0 00.737-.063l-.447-.894zM20 3h1a1 1 0 00-1.447-.894L20 3zm0 6.124h-1a1 1 0 00.126.485L20 9.124zm-16 0l.874.485A1 1 0 005 9.124H4zm5.13-4.677L4.446 2.106l-.894 1.788 4.682 2.341.894-1.788zM11 4a9 9 0 00-2.607.384l.578 1.914A7 7 0 0111 6V4zm2 0h-2v2h2V4zm2.607.384A9 9 0 0013 4v2a7 7 0 012.029.298l.578-1.914zm3.946-2.278l-4.682 2.34.894 1.79 4.682-2.342-.894-1.788zM21 9.124V3h-2v6.124h2zM22 13c0-1.58-.408-3.068-1.126-4.361l-1.748.97A6.964 6.964 0 0120 13h2zm-9 9a9 9 0 009-9h-2a7 7 0 01-7 7v2zm-2 0h2v-2h-2v2zm-9-9a9 9 0 009 9v-2a7 7 0 01-7-7H2zm1.126-4.361A8.964 8.964 0 002 13h2c0-1.232.317-2.387.874-3.39l-1.748-.971zM3 3v6.124h2V3H3z"
              fill="currentColor"/>
        <circle cx="8" cy="13" r="1" fill="#8197BB" stroke="currentColor" stroke-width="var(--icon-stroke-width)"/>
        <circle cx="16" cy="13" r="1" stroke="currentColor" stroke-width="var(--icon-stroke-width)"/>
        <path d="M11.5 17h1" stroke="currentColor" stroke-width="var(--icon-stroke-width)" stroke-linecap="round"/>
    </symbol>
    <symbol fill="none" viewBox="0 0 24 24" id="icon-chart" xmlns="http://www.w3.org/2000/svg">
        <path d="M12 3v9h9m-9-9a9 9 0 109 9m-9-9a9 9 0 019 9" stroke="currentColor"
              stroke-width="var(--icon-stroke-width)" stroke-linecap="round" stroke-linejoin="round"/>
    </symbol>
    <symbol fill="none" viewBox="0 0 16 16" id="icon-check" xmlns="http://www.w3.org/2000/svg">
        <path d="M8 15A7 7 0 108 1a7 7 0 000 14z" fill="#3073DF"/>
        <path d="M5.667 8l1.555 1.556 3.111-3.112" fill="#3073DF"/>
        <path d="M5.667 8l1.555 1.556 3.111-3.112M15 8A7 7 0 111 8a7 7 0 0114 0z" stroke="#FCFCFD" stroke-width="2"
              stroke-linecap="round" stroke-linejoin="round"/>
    </symbol>
    <symbol fill="none" viewBox="0 0 24 24" id="icon-checkmark" xmlns="http://www.w3.org/2000/svg">
        <path d="M5 12l5 5L20 7" stroke="currentColor" stroke-width="var(--icon-stroke-width)" stroke-linecap="round"
              stroke-linejoin="round"/>
    </symbol>
    <symbol fill="none" viewBox="0 0 24 24" id="icon-checks" xmlns="http://www.w3.org/2000/svg">
        <path d="M8 13l4 4 9-9M3 13l4 4m5-5l4-4" stroke="currentColor" stroke-width="var(--icon-stroke-width)"
              stroke-linecap="round" stroke-linejoin="round"/>
    </symbol>
    <symbol fill="none" viewBox="0 0 20 20" id="icon-chevron-down-sm" xmlns="http://www.w3.org/2000/svg">
        <path d="M6 12l4-4 4 4" stroke="currentColor" stroke-width="var(--icon-stroke-width)" stroke-linecap="round"
              stroke-linejoin="round"/>
    </symbol>
    <symbol fill="none" viewBox="0 0 24 24" id="icon-chevron-left" xmlns="http://www.w3.org/2000/svg">
        <path d="M15 18l-6-6 6-6" stroke="#000" stroke-width="2" stroke-linecap="round" stroke-linejoin="round"/>
    </symbol>
    <symbol fill="none" viewBox="0 0 24 24" id="icon-chevron-right" xmlns="http://www.w3.org/2000/svg">
        <path d="M9 18l6-6-6-6" stroke="#000" stroke-width="2" stroke-linecap="round" stroke-linejoin="round"/>
    </symbol>
    <symbol fill="none" viewBox="0 0 24 24" id="icon-close" xmlns="http://www.w3.org/2000/svg">
        <path d="M18 6L6 18M6 6l12 12" stroke="currentColor" stroke-linecap="round" stroke-linejoin="round"
              stroke-width="var(--icon-stroke-width)"/>
    </symbol>
    <symbol fill="none" viewBox="0 0 24 24" id="icon-comment" xmlns="http://www.w3.org/2000/svg">
        <path d="M12 12v.01M8 12v.01m8-.01v.01M3 20l1.3-3.9c-1.124-1.662-1.53-3.63-1.144-5.538.386-1.908 1.54-3.626 3.244-4.836 1.704-1.21 3.845-1.827 6.024-1.739 2.179.089 4.248.877 5.821 2.22 1.574 1.342 2.546 3.147 2.735 5.078.19 1.931-.417 3.858-1.706 5.422-1.29 1.564-3.173 2.659-5.302 3.08-2.13.422-4.358.142-6.272-.787L3 20z"
              stroke="currentColor" stroke-width="var(--icon-stroke-width)" stroke-linecap="round"
              stroke-linejoin="round"/>
    </symbol>
    <symbol fill="none" viewBox="0 0 24 24" id="icon-community" xmlns="http://www.w3.org/2000/svg">
        <path d="M3 21v-2a4 4 0 014-4h4a4 4 0 014 4v2m1-17.87a4 4 0 010 7.75M21 21v-2a4 4 0 00-3-3.85M13 7a4 4 0 11-8 0 4 4 0 018 0z"
              stroke="currentColor" stroke-width="var(--icon-stroke-width)" stroke-linecap="round"
              stroke-linejoin="round"/>
    </symbol>
    <symbol fill="none" viewBox="0 0 24 24" id="icon-complain" xmlns="http://www.w3.org/2000/svg">
        <path d="M9 10h.01M15 10h.01M9.5 15.25a3.5 3.5 0 015 0M21 12a9 9 0 11-18 0 9 9 0 0118 0z" stroke="currentColor"
              stroke-width="var(--icon-stroke-width)" stroke-linecap="round" stroke-linejoin="round"/>
    </symbol>
    <symbol fill="none" viewBox="0 0 24 24" id="icon-copy" xmlns="http://www.w3.org/2000/svg">
        <path d="M16 8V6a2 2 0 00-2-2H6a2 2 0 00-2 2v8a2 2 0 002 2h2m2-8h8a2 2 0 012 2v8a2 2 0 01-2 2h-8a2 2 0 01-2-2v-8a2 2 0 012-2z"
              stroke="currentColor" stroke-width="var(--icon-stroke-width)" stroke-linecap="round"
              stroke-linejoin="round"/>
    </symbol>
    <symbol fill="none" viewBox="0 0 24 24" id="icon-copylink" xmlns="http://www.w3.org/2000/svg">
        <path d="M10 14a3.5 3.5 0 005 0l4-4a3.536 3.536 0 00-5-5l-.5.5M14 10a3.501 3.501 0 00-5 0l-4 4a3.536 3.536 0 005 5l.5-.5"
              stroke="currentColor" stroke-width="var(--icon-stroke-width)" stroke-linecap="round"
              stroke-linejoin="round"/>
    </symbol>
    <symbol fill="none" viewBox="0 0 24 24" id="icon-diagram" xmlns="http://www.w3.org/2000/svg">
        <path d="M13.5 4.5a1.5 1.5 0 11-3 0 1.5 1.5 0 013 0zM17.5 12a1.5 1.5 0 11-3 0 1.5 1.5 0 013 0zM9.5 12a1.5 1.5 0 11-3 0 1.5 1.5 0 013 0zM6 19.5a1.5 1.5 0 11-3 0 1.5 1.5 0 013 0zM21 19.5a1.5 1.5 0 11-3 0 1.5 1.5 0 013 0zM13.5 19.5a1.5 1.5 0 11-3 0 1.5 1.5 0 013 0z"
              stroke="currentColor" stroke-width="var(--icon-stroke-width)"/>
    </symbol>
    <symbol fill="none" viewBox="0 0 24 24" id="icon-direction-down-right" xmlns="http://www.w3.org/2000/svg">
        <path d="M6 6v6a3 3 0 003 3h10l-4-4m0 8l4-4" stroke="currentColor" stroke-width="var(--icon-stroke-width)"
              stroke-linecap="round" stroke-linejoin="round"/>
    </symbol>
    <symbol fill="none" viewBox="0 0 24 24" id="icon-dislike" xmlns="http://www.w3.org/2000/svg">
        <path d="M8 5.42c.601-1.012 1.694-1.92 3-1.92h5.5c1.5 0 2.84 1.823 3 2.504l1 4.999a1.999 1.999 0 01-2 2h-3V18a1.999 1.999 0 11-4 0v-1A3.998 3.998 0 008 13.033M4 3h2a2 2 0 012 2v7a2 2 0 01-2 2H4a2 2 0 01-2-2V5a2 2 0 012-2z"
              stroke="currentColor" stroke-width="var(--icon-stroke-width)" stroke-linecap="round"
              stroke-linejoin="round"/>
    </symbol>
    <symbol fill="none" viewBox="0 0 24 24" id="icon-down" xmlns="http://www.w3.org/2000/svg">
        <path d="M12 5v14m0 0l4-4m-4 4l-4-4" stroke="currentColor" stroke-width="var(--icon-stroke-width)"
              stroke-linecap="round" stroke-linejoin="round"/>
    </symbol>
    <symbol fill="none" viewBox="0 0 24 24" id="icon-download" xmlns="http://www.w3.org/2000/svg">
        <path d="M3 15v4a2 2 0 002 2h14a2 2 0 002-2v-4M7 12l5 5m0 0l5-5m-5 5V3" stroke="currentColor"
              stroke-width="var(--icon-stroke-width)" stroke-linecap="round" stroke-linejoin="round"/>
    </symbol>
    <symbol fill="none" viewBox="0 0 24 24" id="icon-editProfile" xmlns="http://www.w3.org/2000/svg">
        <path d="M13.5 6.776l4 4M4 20.276h4l10.5-10.5a2.829 2.829 0 00-4-4L4 16.276v4z" stroke="currentColor"
              stroke-width="var(--icon-stroke-width)" stroke-linecap="round" stroke-linejoin="round"/>
    </symbol>
    <symbol fill="none" viewBox="0 0 24 24" id="icon-education" xmlns="http://www.w3.org/2000/svg">
        <path d="M3 9.5l-.447-.894a1 1 0 000 1.788L3 9.5zM12 5l.447-.894a1 1 0 00-.894 0L12 5zm9 4.5l.447.894a1 1 0 000-1.788L21 9.5zM12 14l-.447.894a1 1 0 00.894 0L12 14zm-3.5-2.16a1 1 0 10-2 0h2zm-1 5.256h-1v.423l.304.295.696-.718zm8.998 1.717a1 1 0 10-1.012-1.725l1.012 1.725zM20 11a1 1 0 10-2 0h2zm-1 4v2a2 2 0 002-2h-2zm0 0h-2a2 2 0 002 2v-2zm0 0v-2a2 2 0 00-2 2h2zm0 0h2a2 2 0 00-2-2v2zM3.447 10.394l9-4.5-.894-1.788-9 4.5.894 1.788zm8.106-4.5l9 4.5.894-1.788-9-4.5-.894 1.788zm9 2.712l-9 4.5.894 1.788 9-4.5-.894-1.788zm-8.106 4.5l-9-4.5-.894 1.788 9 4.5.894-1.788zM6.5 11.84v5.256h2V11.84h-2zm1 5.256c-.696.718-.695.718-.695.719l.003.003.005.004a2.481 2.481 0 00.059.055 7.986 7.986 0 00.716.563 9.006 9.006 0 002.037 1.064c1.752.643 4.196.879 6.873-.69l-1.012-1.726c-2.063 1.21-3.865 1.018-5.173.539a7.004 7.004 0 01-2-1.146 3.477 3.477 0 01-.12-.107v.001l.001.001h.001l-.695.72zM20 14v-3h-2v3h2z"
              fill="currentColor"/>
    </symbol>
    <symbol fill="none" viewBox="0 0 24 24" id="icon-email" xmlns="http://www.w3.org/2000/svg">
        <path d="M21 7a2 2 0 00-2-2H5a2 2 0 00-2 2m18 0v10a2 2 0 01-2 2H5a2 2 0 01-2-2V7m18 0l-9 6-9-6"
              stroke="currentColor" stroke-width="var(--icon-stroke-width)" stroke-linejoin="round"/>
    </symbol>
    <symbol fill="none" viewBox="0 0 24 24" id="icon-error" xmlns="http://www.w3.org/2000/svg">
        <path d="M12 8v4m0 4h.01M8.7 3h6.6c.3 0 .5.1.7.3L20.7 8c.2.2.3.4.3.7v6.6c0 .3-.1.5-.3.7L16 20.7c-.2.2-.4.3-.7.3H8.7c-.3 0-.5-.1-.7-.3L3.3 16c-.2-.2-.3-.4-.3-.7V8.7c0-.3.1-.5.3-.7L8 3.3c.2-.2.4-.3.7-.3z"
              stroke="currentColor" stroke-width="var(--icon-stroke-width)" stroke-linecap="round"
              stroke-linejoin="round"/>
    </symbol>
    <symbol fill="none" viewBox="0 0 24 24" id="icon-events" xmlns="http://www.w3.org/2000/svg">
        <path d="M16 3v4M8 3v4m-4 4h16m-9 4h1v3M6 5h12a2 2 0 012 2v12a2 2 0 01-2 2H6a2 2 0 01-2-2V7a2 2 0 012-2z"
              stroke="currentColor" stroke-width="var(--icon-stroke-width)" stroke-linecap="round"
              stroke-linejoin="round"/>
    </symbol>
    <symbol fill="none" viewBox="0 0 24 24" id="icon-export" xmlns="http://www.w3.org/2000/svg">
        <path d="M13 8V5a2 2 0 00-2-2H5a2 2 0 00-2 2v14a2 2 0 002 2h6a2 2 0 002-2v-3" stroke="currentColor"
              stroke-width="var(--icon-stroke-width)" stroke-linecap="round"/>
        <path d="M8 12h13m0 0l-3-3m3 3l-3 3" stroke="currentColor" stroke-width="var(--icon-stroke-width)"
              stroke-linecap="round" stroke-linejoin="round"/>
    </symbol>
    <symbol fill="none" viewBox="0 0 24 24" id="icon-eye" xmlns="http://www.w3.org/2000/svg">
        <path d="M12 14a2 2 0 100-4 2 2 0 000 4z" stroke="currentColor" stroke-width="var(--icon-stroke-width)"
              stroke-linecap="round" stroke-linejoin="round"/>
        <path d="M22 12c-2.667 4.667-6 7-10 7s-7.333-2.333-10-7c2.667-4.667 6-7 10-7s7.333 2.333 10 7z"
              stroke="currentColor" stroke-width="var(--icon-stroke-width)" stroke-linecap="round"
              stroke-linejoin="round"/>
    </symbol>
    <symbol fill="none" viewBox="0 0 24 24" id="icon-eye-slash" xmlns="http://www.w3.org/2000/svg">
        <path d="M3 3l18 18M10.584 10.587a2 2 0 102.828 2.83M9.363 5.365A9.466 9.466 0 0112 5c4 0 7.333 2.333 10 7-.778 1.361-1.612 2.524-2.503 3.488m-2.14 1.861C15.726 18.449 13.942 19 12 19c-4 0-7.333-2.333-10-7 1.369-2.395 2.913-4.175 4.632-5.341"
              stroke="currentColor" stroke-width="var(--icon-stroke-width)" stroke-linecap="round"
              stroke-linejoin="round"/>
    </symbol>
    <symbol fill="none" viewBox="0 0 24 24" id="icon-favorites" xmlns="http://www.w3.org/2000/svg">
        <path d="M19.5 13.572L12 21l-7.5-7.428A5 5 0 1112 7.006a5 5 0 117.5 6.572" stroke="currentColor"
              stroke-width="var(--icon-stroke-width)" stroke-linecap="round" stroke-linejoin="round"/>
    </symbol>
    <symbol fill="none" viewBox="0 0 24 24" id="icon-file-excel" xmlns="http://www.w3.org/2000/svg">
        <path d="M14 3v4a1 1 0 001 1h4m-5-5H7a2 2 0 00-2 2v14a2 2 0 002 2h10a2 2 0 002-2V8m-5-5l5 5" stroke="#8197BB"
              stroke-width="2" stroke-linecap="round" stroke-linejoin="round"/>
        <path d="M9.5 12l5 5m0-5l-5 5" stroke="currentColor" stroke-width="var(--icon-stroke-width)"
              stroke-linecap="round" stroke-linejoin="round"/>
    </symbol>
    <symbol fill="none" viewBox="0 0 24 24" id="icon-file-pdf" xmlns="http://www.w3.org/2000/svg">
        <path d="M5 15h1.5a1.5 1.5 0 000-3H5v3zm0 0v2" stroke="#8197BB" stroke-width="2" stroke-linecap="round"
              stroke-linejoin="round"/>
        <path d="M18.5 15H17m2-3h-2v3m0 0v2" stroke="currentColor" stroke-width="var(--icon-stroke-width)"
              stroke-linecap="round" stroke-linejoin="round"/>
        <path d="M11 17h-1a1 1 0 001 1v-1zm0-5v-1a1 1 0 00-1 1h1zm0 1h1v-2h-1v2zm2 1v1h2v-1h-2zm-1 2h-1v2h1v-2zm1-1a1 1 0 01-1 1v2a3 3 0 003-3h-2zm-1-2a1 1 0 011 1h2a3 3 0 00-3-3v2zm-2-1v5h2v-5h-2z"
              fill="#8197BB"/>
        <path d="M14 3v4a1 1 0 001 1h4l-5-5zm0 0H7a2 2 0 00-2 2v3m.586 12.414A2 2 0 007 21h10a2 2 0 001.414-.586"
              stroke="currentColor" stroke-width="var(--icon-stroke-width)" stroke-linecap="round"
              stroke-linejoin="round"/>
    </symbol>
    <symbol fill="none" viewBox="0 0 24 24" id="icon-file-powerpoint" xmlns="http://www.w3.org/2000/svg">
        <path d="M14 3v4a1 1 0 001 1h4m-5-5H7a2 2 0 00-2 2v14a2 2 0 002 2h10a2 2 0 002-2V8m-5-5l5 5" stroke="#8197BB"
              stroke-width="2" stroke-linecap="round" stroke-linejoin="round"/>
        <path d="M10 15h2.5a1.5 1.5 0 000-3H10v3zm0 0v2" stroke="currentColor" stroke-width="var(--icon-stroke-width)"
              stroke-linecap="round" stroke-linejoin="round"/>
    </symbol>
    <symbol fill="none" viewBox="0 0 24 24" id="icon-file-text" xmlns="http://www.w3.org/2000/svg">
        <path d="M14 3v4a1 1 0 001 1h4m-5-5H7a2 2 0 00-2 2v14a2 2 0 002 2h10a2 2 0 002-2V8m-5-5l5 5M9 9h1m-1 4h6m-6 4h6"
              stroke="currentColor" stroke-width="var(--icon-stroke-width)" stroke-linecap="round"
              stroke-linejoin="round"/>
    </symbol>
    <symbol fill="none" viewBox="0 0 24 24" id="icon-file-word" xmlns="http://www.w3.org/2000/svg">
        <path d="M14 3v4a1 1 0 001 1h4m-5-5H7a2 2 0 00-2 2v14a2 2 0 002 2h10a2 2 0 002-2V8m-5-5l5 5" stroke="#8197BB"
              stroke-width="2" stroke-linecap="round" stroke-linejoin="round"/>
        <path d="M8 12l2 5 2-5 2 5 2-5" stroke="currentColor" stroke-width="var(--icon-stroke-width)"
              stroke-linecap="round" stroke-linejoin="round"/>
    </symbol>
    <symbol fill="none" viewBox="0 0 24 24" id="icon-flower" xmlns="http://www.w3.org/2000/svg">
        <g stroke="currentColor" stroke-width="var(--icon-stroke-width)">
            <path d="M12 17H7l2 4h6l2-4h-5zm0 0v-5" stroke-linejoin="round"/>
            <path d="M14 5V4a2 2 0 10-4 0v1m5.471 3.975l.951-.309a2 2 0 10-1.236-3.804l-.95.309m-2.09 6.432l.587.809a2 2 0 003.236-2.352l-.587-.809m-5.617-4.08l-.951-.31a2 2 0 10-1.236 3.805l.95.31m.09.275l-.587.81a2 2 0 103.236 2.35l.588-.808"
                  stroke-linecap="round"/>
        </g>
    </symbol>
    <symbol fill="none" viewBox="0 0 24 24" id="icon-form" xmlns="http://www.w3.org/2000/svg">
        <path d="M12 3a3 3 0 00-3 3v12a3 3 0 003 3M6 3a3 3 0 013 3v12a3 3 0 01-3 3M13 7h7a1 1 0 011 1v8a1 1 0 01-1 1h-7M5 7H4a1 1 0 00-1 1v8a1 1 0 001 1h1M17 12h.01M13 12h.01"
              stroke="currentColor" stroke-width="var(--icon-stroke-width)" stroke-linecap="round"
              stroke-linejoin="round"/>
    </symbol>
    <symbol fill="none" viewBox="0 0 24 24" id="icon-friends" xmlns="http://www.w3.org/2000/svg">
        <path d="M6 8h4M6 8v6m0-6v0a3 3 0 01-3-3V3m7 5v6m0-6h4m-4 6v7m0-7H6m0 7v-7m8-6h4m-4 0v6m4-6v6m0-6v0a3 3 0 003-3V3m-3 11v7m0-7h-4m0 7v-7M9 4a1 1 0 11-2 0 1 1 0 012 0zm8 0a1 1 0 11-2 0 1 1 0 012 0z"
              stroke="currentColor" stroke-width="var(--icon-stroke-width)" stroke-linecap="round"
              stroke-linejoin="round"/>
    </symbol>
    <symbol fill="none" viewBox="0 0 24 24" id="icon-gears" xmlns="http://www.w3.org/2000/svg">
        <g stroke="currentColor" stroke-width="var(--icon-stroke-width)">
            <path d="M8 3l4 2.25v4.5L8 12 4 9.75v-4.5L8 3zM16 12l4 2.25v4.5L16 21l-4-2.25v-4.5L16 12z"
                  stroke-linejoin="round"/>
            <path d="M8 7.5v.01M16 16.5v.01" stroke-linecap="round" stroke-linejoin="round"/>
            <circle cx="6.5" cy="17.5" r="2.5"/>
            <circle cx="17.5" cy="6.5" r="2.5"/>
        </g>
    </symbol>
    <symbol fill="none" viewBox="0 0 24 24" id="icon-geotag" xmlns="http://www.w3.org/2000/svg">
        <path d="M12 14a3 3 0 100-6 3 3 0 000 6z" stroke="#8197BB" stroke-width="2" stroke-linecap="round"
              stroke-linejoin="round"/>
        <path d="M17.657 16.657L13.414 20.9a2 2 0 01-2.827 0l-4.244-4.243a8 8 0 1111.314 0z" stroke="currentColor"
              stroke-width="var(--icon-stroke-width)" stroke-linecap="round" stroke-linejoin="round"/>
    </symbol>
    <symbol fill="none" viewBox="0 0 24 24" id="icon-gift" xmlns="http://www.w3.org/2000/svg">
        <path d="M12 8v13m0-13c-.362-1.49-.985-2.765-1.787-3.657C9.41 3.451 8.465 2.983 7.5 3a2.5 2.5 0 100 5M12 8c.362-1.49.985-2.765 1.787-3.657.803-.892 1.748-1.36 2.713-1.343a2.5 2.5 0 010 5m2.5 4v7a2 2 0 01-2 2H7a2 2 0 01-2-2v-7M4 8h16a1 1 0 011 1v2a1 1 0 01-1 1H4a1 1 0 01-1-1V9a1 1 0 011-1z"
              stroke="currentColor" stroke-width="var(--icon-stroke-width)" stroke-linecap="round"
              stroke-linejoin="round"/>
    </symbol>
    <symbol fill="none" viewBox="0 0 24 24" id="icon-globe" xmlns="http://www.w3.org/2000/svg">
        <path d="M3.6 9h16.8M3.6 15h16.8M11.5 3a17 17 0 000 18m1-18a17 17 0 010 18m8.5-9a9 9 0 11-18 0 9 9 0 0118 0z"
              stroke="currentColor" stroke-width="var(--icon-stroke-width)" stroke-linecap="round"
              stroke-linejoin="round"/>
    </symbol>
    <symbol fill="none" viewBox="0 0 24 24" id="icon-google" xmlns="http://www.w3.org/2000/svg">
        <path d="M17.788 5.108A9 9 0 1021 12h-8" stroke="currentColor" stroke-width="var(--icon-stroke-width)"
              stroke-linejoin="round"/>
    </symbol>
    <symbol fill="none" viewBox="0 0 24 24" id="icon-grid" xmlns="http://www.w3.org/2000/svg">
        <path d="M5 6a1 1 0 100-2 1 1 0 000 2zM12 6a1 1 0 100-2 1 1 0 000 2zM19 6a1 1 0 100-2 1 1 0 000 2zM5 13a1 1 0 100-2 1 1 0 000 2zM12 13a1 1 0 100-2 1 1 0 000 2zM19 13a1 1 0 100-2 1 1 0 000 2zM5 20a1 1 0 100-2 1 1 0 000 2zM12 20a1 1 0 100-2 1 1 0 000 2zM19 20a1 1 0 100-2 1 1 0 000 2z"
              stroke="currentColor" stroke-width="var(--icon-stroke-width)" stroke-linecap="round"
              stroke-linejoin="round"/>
    </symbol>
    <symbol fill="none" viewBox="0 0 24 24" id="icon-group" xmlns="http://www.w3.org/2000/svg">
        <path d="M3 21v-2a4 4 0 014-4h4a4 4 0 014 4v2m1-17.87a4 4 0 010 7.75M21 21v-2a4 4 0 00-3-3.85M13 7a4 4 0 11-8 0 4 4 0 018 0z"
              stroke="currentColor" stroke-width="var(--icon-stroke-width)" stroke-linecap="round"
              stroke-linejoin="round"/>
    </symbol>
    <symbol fill="none" viewBox="0 0 24 24" id="icon-guest" xmlns="http://www.w3.org/2000/svg">
        <path d="M3 11a4 4 0 100-8m6 18v-2a4 4 0 00-4-4H3m7-11.87a4 4 0 010 7.75M15 21v-2a4 4 0 00-3-3.85M15 12h6m-3-3v6"
              stroke="currentColor" stroke-width="var(--icon-stroke-width)" stroke-linecap="round"
              stroke-linejoin="round"/>
    </symbol>
    <symbol fill="none" viewBox="0 0 24 24" id="icon-hand" xmlns="http://www.w3.org/2000/svg">
        <path d="M7 7.5a1.5 1.5 0 10-3 0v6a7.5 7.5 0 0015 0v-4a1.5 1.5 0 00-3 0m-9-2V10m0-2.5v-3a1.5 1.5 0 113 0m0 0V10m0-5.5v-1a1.5 1.5 0 013 0v2m0 0a1.5 1.5 0 013 0v4m-3-4V10m3-.5V13a3 3 0 00-3 3"
              stroke="currentColor" stroke-width="var(--icon-stroke-width)" stroke-linecap="round"
              stroke-linejoin="round"/>
    </symbol>
    <symbol fill="none" viewBox="0 0 24 24" id="icon-has-no-sidebar" xmlns="http://www.w3.org/2000/svg">
        <rect x="3" y="5" width="18" height="14" rx="1" stroke="currentColor" stroke-width="var(--icon-stroke-width)"/>
    </symbol>
    <symbol fill="none" viewBox="0 0 24 24" id="icon-has-sidebar" xmlns="http://www.w3.org/2000/svg">
        <path d="M14 5H4a1 1 0 00-1 1v12a1 1 0 001 1h10m0-14h6a1 1 0 011 1v12a1 1 0 01-1 1h-6m0-14v14"
              stroke="currentColor" stroke-width="var(--icon-stroke-width)"/>
    </symbol>
    <symbol fill="none" viewBox="0 0 24 24" id="icon-heart" xmlns="http://www.w3.org/2000/svg">
        <path fill="var(--fill)" d="M19.5 13.572L12 21l-7.5-7.428A5 5 0 1112 7.006a5 5 0 117.5 6.572"
              stroke="currentColor" stroke-width="var(--icon-stroke-width)" stroke-linecap="round"
              stroke-linejoin="round"/>
    </symbol>
    <symbol fill="none" viewBox="0 0 24 24" id="icon-heart-off" xmlns="http://www.w3.org/2000/svg">
        <path d="M12 21l-.704.71a1 1 0 001.408 0L12 21zm-7.5-7.428l.704-.71-.007-.007-.697.717zM3.461 7.863l.905.425-.905-.425zm1.233-1.636l-.66-.753.66.753zm5.773-.58l.496-.868-.496.868zM12 7.006l-.803.597a1 1 0 001.602.004L12 7.006zm1.535-1.347l.492.87-.492-.87zm3.978-.413l-.304.953.304-.953zm1.779 1.004l.659-.752-.66.752zm-.493 6.615a1 1 0 101.402 1.426l-1.402-1.426zm-1.573 4.367a1 1 0 10-1.408-1.42l1.408 1.42zM6.075 6.475a1 1 0 10-.956-1.757l.956 1.757zm3.426-2.292a1 1 0 10-.505 1.935l.505-1.935zm10.702 10.1a1 1 0 00-1.408-1.421l1.408 1.42zm-2.33-.507a1 1 0 001.407 1.42l-1.408-1.42zM3.706 2.293a1 1 0 00-1.414 1.414l1.414-1.414zm16.586 19.414a1 1 0 001.414-1.414l-1.414 1.414zm-7.59-1.418l-7.5-7.428-1.407 1.421 7.5 7.428 1.408-1.42zm-7.506-7.434a4 4 0 01-.915-1.36l-1.853.754a6 6 0 001.374 2.04l1.394-1.434zm-.915-1.36a4 4 0 01-.294-1.612L1.99 9.831a6 6 0 00.44 2.418l1.853-.753zm-.294-1.612a4 4 0 01.378-1.595l-1.81-.85a6 6 0 00-.567 2.393l2 .052zm.378-1.595a4 4 0 01.986-1.309L4.035 5.474a6 6 0 00-1.479 1.964l1.81.85zm5.605-1.773a4 4 0 011.226 1.088l1.606-1.194a6 6 0 00-1.84-1.63L9.97 6.515zm2.828 1.092a4 4 0 011.228-1.078l-.984-1.74A6 6 0 0011.2 6.404l1.598 1.202zm1.228-1.078a4 4 0 011.557-.497l-.206-1.99a6 6 0 00-2.335.746l.984 1.741zm1.557-.497a4 4 0 011.625.167l.607-1.906a6 6 0 00-2.438-.25l.206 1.99zm1.625.167a4 4 0 011.424.803l1.318-1.504a6.001 6.001 0 00-2.135-1.205L17.21 6.2zm1.424.803a4 4 0 01.983 1.306l1.81-.852a6 6 0 00-1.475-1.958l-1.318 1.504zm.983 1.306a4 4 0 01.379 1.59l1.999-.058a6 6 0 00-.569-2.384l-1.81.852zm.379 1.59a4.001 4.001 0 01-.288 1.608l1.855.747a6.002 6.002 0 00.432-2.413l-2 .057zm-.288 1.608c-.206.51-.515.973-.908 1.359l1.402 1.426a6 6 0 001.36-2.038l-1.854-.747zm-3.889 4.305l-4.522 4.479 1.408 1.42 4.521-4.478-1.407-1.42zM5.352 6.98a4 4 0 01.724-.504L5.12 4.718a6 6 0 00-1.085.756L5.352 6.98zm3.645-.86a4 4 0 01.974.396l.992-1.736a6 6 0 00-1.461-.596l-.505 1.935zm9.8 6.742l-.924.915 1.408 1.42.923-.913-1.408-1.421zM2.292 3.707l18 18 1.414-1.414-18-18-1.414 1.414z"
              fill="currentColor"/>
    </symbol>
    <symbol fill="none" viewBox="0 0 24 24" id="icon-home" xmlns="http://www.w3.org/2000/svg">
        <path d="M21 11l-2-1.778M3 11l2-1.778m0 0L12 3l7 6.222m-14 0V20a1 1 0 001 1h4m9-11.778V20a1 1 0 01-1 1h-4m5-11.778V5m-9 16v-7h4v7m-4 0h4"
              stroke="currentColor" stroke-width="var(--icon-stroke-width)" stroke-linecap="round"
              stroke-linejoin="round"/>
    </symbol>
    <symbol fill="none" viewBox="0 0 24 24" id="icon-horn" xmlns="http://www.w3.org/2000/svg">
        <path d="M18 8a3 3 0 010 6m-8-6v11a1 1 0 01-1 1H8a1 1 0 01-1-1v-5m5-6l4.524-3.77A.9.9 0 0118 4.922v12.156a.9.9 0 01-1.476.692L12 14H4a1 1 0 01-1-1V9a1 1 0 011-1h8z"
              stroke="currentColor" stroke-width="var(--icon-stroke-width)" stroke-linecap="round"
              stroke-linejoin="round"/>
    </symbol>
    <symbol fill="none" viewBox="0 0 24 24" id="icon-hourglass" xmlns="http://www.w3.org/2000/svg">
        <path d="M6.5 7h11M6.5 17h11M6 20v-2a6 6 0 1112 0v2a1 1 0 01-1 1H7a1 1 0 01-1-1z" stroke="currentColor"
              stroke-width="var(--icon-stroke-width)" stroke-linecap="round" stroke-linejoin="round"/>
        <path d="M6 4v2a6 6 0 1012 0V4a1 1 0 00-1-1H7a1 1 0 00-1 1z" stroke="currentColor"
              stroke-width="var(--icon-stroke-width)" stroke-linecap="round" stroke-linejoin="round"/>
    </symbol>
    <symbol fill="none" viewBox="0 0 24 24" id="icon-id" xmlns="http://www.w3.org/2000/svg">
        <path d="M14 14h3M3.5 18h17a.5.5 0 00.5-.5v-11a.5.5 0 00-.5-.5h-17a.5.5 0 00-.5.5v11a.5.5 0 00.5.5zm4-4h3a.5.5 0 00.5-.5v-3a.5.5 0 00-.5-.5h-3a.5.5 0 00-.5.5v3a.5.5 0 00.5.5z"
              stroke="currentColor" stroke-width="var(--icon-stroke-width)" stroke-linejoin="round"/>
    </symbol>
    <symbol fill="none" viewBox="0 0 24 24" id="icon-image" xmlns="http://www.w3.org/2000/svg">
        <path d="M15 8h.01M4 15l4-4c.456-.439.973-.67 1.5-.67s1.044.231 1.5.67l5 5m-2-2l1-1c.456-.439.973-.67 1.5-.67s1.044.231 1.5.67l2 2M7 4h10a3 3 0 013 3v10a3 3 0 01-3 3H7a3 3 0 01-3-3V7a3 3 0 013-3z"
              stroke="currentColor" stroke-width="var(--icon-stroke-width)" stroke-linecap="round"
              stroke-linejoin="round"/>
    </symbol>
    <symbol fill="none" viewBox="0 0 24 24" id="icon-info" xmlns="http://www.w3.org/2000/svg">
        <path d="M12 8h.01M11 12h1v4h1M6 4h12a2 2 0 012 2v12a2 2 0 01-2 2H6a2 2 0 01-2-2V6a2 2 0 012-2z"
              stroke="currentColor" stroke-width="var(--icon-stroke-width)" stroke-linecap="round"
              stroke-linejoin="round"/>
    </symbol>
    <symbol fill="none" viewBox="0 0 24 24" id="icon-invite" xmlns="http://www.w3.org/2000/svg">
        <path d="M3 21v-2a4 4 0 014-4h4a4 4 0 014 4v2m1-10h6m-3-3v6m-6-7a4 4 0 11-8 0 4 4 0 018 0z"
              stroke="currentColor" stroke-width="var(--icon-stroke-width)" stroke-linecap="round"
              stroke-linejoin="round"/>
    </symbol>
    <symbol fill="none" viewBox="0 0 24 24" id="icon-landscape" xmlns="http://www.w3.org/2000/svg">
        <path d="M15 8h.01M4 15l4-4c.456-.439.973-.67 1.5-.67s1.044.231 1.5.67l5 5m-2-2l1-1c.456-.439.973-.67 1.5-.67s1.044.231 1.5.67l2 2M7 4h10a3 3 0 013 3v10a3 3 0 01-3 3H7a3 3 0 01-3-3V7a3 3 0 013-3z"
              stroke="currentColor" stroke-width="var(--icon-stroke-width)" stroke-linecap="round"
              stroke-linejoin="round"/>
    </symbol>
    <symbol fill="none" viewBox="0 0 24 24" id="icon-languages" xmlns="http://www.w3.org/2000/svg">
        <path d="M19.7 14.954a1 1 0 10.6-1.908l-.6 1.908zm-7.8-1.908a1 1 0 10.6 1.908l-.6-1.908zM21 7a1 1 0 100-2v2zM11 5a1 1 0 100 2V5zm6-1a1 1 0 10-2 0h2zm-6.929 16.371a1 1 0 001.857-.742l-1.857.742zM9.8 17l.928-.371L9.8 17zM7 10l.928-.371a1 1 0 00-1.856 0L7 10zm-4.928 9.629a1 1 0 001.856.742l-1.856-.742zM20.3 13.046c-1.296-.407-2.485-1.188-3.479-2.223l-1.442 1.384c1.193 1.243 2.662 2.226 4.321 2.747l.6-1.908zm-3.479-2.223A10.34 10.34 0 0114.18 5.8l-1.96.398a12.34 12.34 0 003.159 6.008l1.442-1.385zM12.5 14.954c1.659-.521 3.128-1.504 4.321-2.747l-1.442-1.385c-.994 1.036-2.183 1.817-3.479 2.224l.6 1.908zm4.321-2.747A12.34 12.34 0 0019.98 6.2L18.02 5.8a10.342 10.342 0 01-2.641 5.021l1.442 1.386zM21 5h-2v2h2V5zm-2 0h-3v2h3V5zm-3 0h-2.8v2H16V5zm-2.8 0H11v2h2.2V5zM17 6V4h-2v2h2zm-5.072 13.629l-1.2-3-1.857.742 1.2 3 1.857-.742zm-1.2-3l-2.8-7-1.856.742 2.8 7 1.856-.742zm-6.8 3.742l1.2-3-1.856-.742-1.2 3 1.856.742zm1.2-3l2.8-7-1.856-.742-2.8 7 1.856.742zM9.8 16H4.2v2h5.6v-2z"
              fill="#000"/>
    </symbol>
    <symbol fill="none" viewBox="0 0 16 16" id="icon-like-empty" xmlns="http://www.w3.org/2000/svg">
        <path fill-rule="evenodd" clip-rule="evenodd"
              d="M10.314 13.64L7.992 15.5 5.67 13.64C-.673 8.564.488 3.934.758 3.06a3.715 3.715 0 017.234 1.088 3.715 3.715 0 017.244-1.088c.288.874 1.421 5.504-4.922 10.58z"
              fill="#D1D9E6"/>
    </symbol>
    <symbol fill="none" viewBox="0 0 16 16" id="icon-like-full" xmlns="http://www.w3.org/2000/svg">
        <path fill-rule="evenodd" clip-rule="evenodd"
              d="M10.314 13.64L7.992 15.5 5.67 13.64C-.673 8.564.488 3.934.758 3.06a3.715 3.715 0 017.234 1.088 3.715 3.715 0 017.244-1.088c.288.874 1.421 5.504-4.922 10.58z"
              fill="#DE2E2B"/>
    </symbol>
    <symbol fill="none" viewBox="0 0 24 24" id="icon-likebig" xmlns="http://www.w3.org/2000/svg">
        <path d="M10.328 8.827l.707.707-.707-.707zm1.758-5.241l-.707-.708.707.708zM15.5 9.998h-1a1 1 0 001 1v-1zm5 2l.98.196c.014-.065.02-.13.02-.197h-1zm-1 4.998l.974.228.007-.032-.981-.196zM8.88 17.1a1 1 0 00-1.71 1.04l1.71-1.04zm-.986-8.129a1 1 0 10.262 1.983l-.262-1.983zm3.141.562A4.998 4.998 0 0012.5 5.999h-2c0 .795-.316 1.558-.879 2.12l1.414 1.415zM12.5 5.999V5h-2v1h2zm0-1a1 1 0 01.293-.706l-1.414-1.415A2.999 2.999 0 0010.5 5h2zm.293-.706A1 1 0 0113.5 4V2a3 3 0 00-2.121.878l1.414 1.415zM13.5 4a1 1 0 01.707.293l1.414-1.415A3 3 0 0013.5 2v2zm.707.293a1 1 0 01.293.706h2c0-.795-.316-1.558-.879-2.12l-1.414 1.414zm.293.706v4.999h2V4.999h-2zm1 5.999h3v-2h-3v2zm3 0a1 1 0 01.707.293l1.414-1.415a3 3 0 00-2.121-.878v2zm.707.293a1 1 0 01.293.706h2c0-.795-.316-1.558-.879-2.12l-1.414 1.414zm.312.51l-1 4.999 1.962.392 1-4.998-1.962-.393zM16.5 18.5H11v2h5.5v-2zm2.026-1.733c.002-.007-.005.025-.042.102a2.442 2.442 0 01-.15.265 4.053 4.053 0 01-.537.661c-.47.468-.938.705-1.297.705v2c1.14 0 2.093-.674 2.709-1.288.323-.323.598-.671.807-.997.197-.306.38-.659.458-.99l-1.948-.458zM11 18.5c-.818 0-1.623-.58-2.12-1.399l-1.71 1.04C7.886 19.314 9.243 20.5 11 20.5v-2zm-2.844-7.545a5 5 0 002.88-1.421L9.62 8.119a3 3 0 01-1.727.853l.262 1.983zM4 10h2V8H4v2zm3 1v7h2v-7H7zm-1 8H4v2h2v-2zm-3-1v-7H1v7h2zm1 1a1 1 0 01-1-1H1a3 3 0 003 3v-2zm3-1a1 1 0 01-1 1v2a3 3 0 003-3H7zm-1-8a1 1 0 011 1h2a3 3 0 00-3-3v2zM4 8a3 3 0 00-3 3h2a1 1 0 011-1V8z"
              fill="currentColor"/>
    </symbol>
    <symbol fill="none" viewBox="0 0 24 24" id="icon-likeblue" xmlns="http://www.w3.org/2000/svg">
        <path d="M10.328 8.827l.707.707-.707-.707zm1.758-5.241l-.707-.708.707.708zM15.5 9.998h-1a1 1 0 001 1v-1zm5 2l.98.196c.014-.065.02-.13.02-.197h-1zm-1 4.998l.974.228.007-.032-.981-.196zM8.88 17.1a1 1 0 00-1.71 1.04l1.71-1.04zm-.986-8.129a1 1 0 10.262 1.983l-.262-1.983zm3.141.562A4.998 4.998 0 0012.5 5.999h-2c0 .795-.316 1.558-.879 2.12l1.414 1.415zM12.5 5.999V5h-2v1h2zm0-1a1 1 0 01.293-.706l-1.414-1.415A2.999 2.999 0 0010.5 5h2zm.293-.706A1 1 0 0113.5 4V2a3 3 0 00-2.121.878l1.414 1.415zM13.5 4a1 1 0 01.707.293l1.414-1.415A3 3 0 0013.5 2v2zm.707.293a1 1 0 01.293.706h2c0-.795-.316-1.558-.879-2.12l-1.414 1.414zm.293.706v4.999h2V4.999h-2zm1 5.999h3v-2h-3v2zm3 0a1 1 0 01.707.293l1.414-1.415a3 3 0 00-2.121-.878v2zm.707.293a1 1 0 01.293.706h2c0-.795-.316-1.558-.879-2.12l-1.414 1.414zm.312.51l-1 4.999 1.962.392 1-4.998-1.962-.393zM16.5 18.5H11v2h5.5v-2zm2.026-1.733c.002-.007-.005.025-.042.102a2.442 2.442 0 01-.15.265 4.053 4.053 0 01-.537.661c-.47.468-.938.705-1.297.705v2c1.14 0 2.093-.674 2.709-1.288.323-.323.598-.671.807-.997.197-.306.38-.659.458-.99l-1.948-.458zM11 18.5c-.818 0-1.623-.58-2.12-1.399l-1.71 1.04C7.886 19.314 9.243 20.5 11 20.5v-2zm-2.844-7.545a5 5 0 002.88-1.421L9.62 8.119a3 3 0 01-1.727.853l.262 1.983zM4 10h2V8H4v2zm3 1v7h2v-7H7zm-1 8H4v2h2v-2zm-3-1v-7H1v7h2zm1 1a1 1 0 01-1-1H1a3 3 0 003 3v-2zm3-1a1 1 0 01-1 1v2a3 3 0 003-3H7zm-1-8a1 1 0 011 1h2a3 3 0 00-3-3v2zM4 8a3 3 0 00-3 3h2a1 1 0 011-1V8z"
              fill="currentColor"/>
    </symbol>
    <symbol fill="none" viewBox="0 0 16 14" id="icon-likesmall" xmlns="http://www.w3.org/2000/svg">
        <path d="M6.06 5.238l.673.74-.672-.74zM10.993 5h-1a1 1 0 001 1V5zM15 6.454l.986.167A.997.997 0 0016 6.454h-1zm-.802 4.725l.969.25a.98.98 0 00.017-.083l-.986-.167zm-8.368-.103a1 1 0 10-1.66 1.115l1.66-1.115zM4.444 5.043a1 1 0 00.577 1.914l-.577-1.914zm2.289.935C7.577 5.212 8 4.004 8 3H6c0 .539-.253 1.172-.61 1.497l1.343 1.481zM10.992 6h2.405V4h-2.405v2zm2.405 0c.19 0 .354.07.462.167l1.343-1.482A2.69 2.69 0 0013.397 4v2zm.462.167a.39.39 0 01.141.287h2c0-.684-.3-1.318-.798-1.769L13.86 6.167zm.155.12l-.801 4.724 1.971.335.802-4.725-1.972-.334zM11.794 12h-4.41v2h4.41v-2zm1.436-1.072c.013-.05.003.01-.108.166a2.777 2.777 0 01-.394.44c-.35.316-.688.466-.934.466v2c.956 0 1.756-.513 2.276-.983a4.77 4.77 0 00.684-.766c.164-.232.336-.524.413-.822l-1.937-.5zM7.385 12c-.61 0-1.198-.392-1.555-.924l-1.66 1.115C4.785 13.107 5.929 14 7.385 14v-2zm2.607-9v2h2V3h-2zM9 2c.505 0 .703.134.784.22.09.093.208.306.208.78h2c0-.782-.196-1.57-.761-2.162C10.657.238 9.859 0 9 0v2zM8 3c0-.57.114-.756.167-.813C8.207 2.144 8.372 2 9 2V0c-.88 0-1.713.197-2.298.825C6.132 1.438 6 2.252 6 3h2zM5.021 6.957a4.917 4.917 0 001.712-.979L5.389 4.497a2.958 2.958 0 01-.945.546l.577 1.914zM4 7v4h2V7H4zm-2 4V7H0v4h2zm1 1a1 1 0 01-1-1H0a3 3 0 003 3v-2zm1-1a1 1 0 01-1 1v2a3 3 0 003-3H4zM3 6a1 1 0 011 1h2a3 3 0 00-3-3v2zm0-2a3 3 0 00-3 3h2a1 1 0 011-1V4z"
              fill="#8197BB"/>
    </symbol>
    <symbol fill="none" viewBox="0 0 24 24" id="icon-likewhite" xmlns="http://www.w3.org/2000/svg">
        <g filter="url(#dpfilter0_d_4578_112)">
            <path d="M10.328 8.827l.707.707-.707-.707zm1.758-5.241l-.707-.708.707.708zM15.5 9.998h-1a1 1 0 001 1v-1zm5 2l.98.196c.014-.065.02-.13.02-.197h-1zm-1 4.998l.974.228.007-.032-.981-.196zM8.88 17.1a1 1 0 00-1.71 1.04l1.71-1.04zm-.986-8.129a1 1 0 10.262 1.983l-.262-1.983zm3.141.562A4.998 4.998 0 0012.5 5.999h-2c0 .795-.316 1.558-.879 2.12l1.414 1.415zM12.5 5.999V5h-2v1h2zm0-1a1 1 0 01.293-.706l-1.414-1.415A2.999 2.999 0 0010.5 5h2zm.293-.706A1 1 0 0113.5 4V2a3 3 0 00-2.121.878l1.414 1.415zM13.5 4a1 1 0 01.707.293l1.414-1.415A3 3 0 0013.5 2v2zm.707.293a1 1 0 01.293.706h2c0-.795-.316-1.558-.879-2.12l-1.414 1.414zm.293.706v4.999h2V4.999h-2zm1 5.999h3v-2h-3v2zm3 0a1 1 0 01.707.293l1.414-1.415a3 3 0 00-2.121-.878v2zm.707.293a1 1 0 01.293.706h2c0-.795-.316-1.558-.879-2.12l-1.414 1.414zm.312.51l-1 4.999 1.962.392 1-4.998-1.962-.393zM16.5 18.5H11v2h5.5v-2zm2.026-1.733c.002-.007-.005.025-.042.102a2.442 2.442 0 01-.15.265 4.053 4.053 0 01-.537.661c-.47.468-.938.705-1.297.705v2c1.14 0 2.093-.674 2.709-1.288.323-.323.598-.671.807-.997.197-.306.38-.659.458-.99l-1.948-.458zM11 18.5c-.818 0-1.623-.58-2.12-1.399l-1.71 1.04C7.886 19.314 9.243 20.5 11 20.5v-2zm-2.844-7.545a5 5 0 002.88-1.421L9.62 8.119a3 3 0 01-1.727.853l.262 1.983zM4 10h2V8H4v2zm3 1v7h2v-7H7zm-1 8H4v2h2v-2zm-3-1v-7H1v7h2zm1 1a1 1 0 01-1-1H1a3 3 0 003 3v-2zm3-1a1 1 0 01-1 1v2a3 3 0 003-3H7zm-1-8a1 1 0 011 1h2a3 3 0 00-3-3v2zM4 8a3 3 0 00-3 3h2a1 1 0 011-1V8z"
                  fill="#fff" fill-opacity=".87"/>
        </g>
        <defs>
            <filter id="dpfilter0_d_4578_112" x="0" y="0" width="24" height="25" filterUnits="userSpaceOnUse"
                    color-interpolation-filters="sRGB">
                <feFlood flood-opacity="0" result="BackgroundImageFix"/>
                <feColorMatrix in="SourceAlpha" values="0 0 0 0 0 0 0 0 0 0 0 0 0 0 0 0 0 0 127 0" result="hardAlpha"/>
                <feOffset dy="1"/>
                <feColorMatrix values="0 0 0 0 0 0 0 0 0 0 0 0 0 0 0 0 0 0 0.12 0"/>
                <feBlend in2="BackgroundImageFix" result="effect1_dropShadow_4578_112"/>
                <feBlend in="SourceGraphic" in2="effect1_dropShadow_4578_112" result="shape"/>
            </filter>
        </defs>
    </symbol>
    <symbol fill="none" viewBox="0 0 24 24" id="icon-list" xmlns="http://www.w3.org/2000/svg">
        <path d="M9 6h11M9 12h11M9 18h11M5 6v.01M5 12v.01M5 18v.01" stroke="currentColor"
              stroke-width="var(--icon-stroke-width)" stroke-linecap="round" stroke-linejoin="round"/>
    </symbol>
    <symbol fill="none" viewBox="0 0 24 24" id="icon-loader-progress" xmlns="http://www.w3.org/2000/svg">
        <path d="M12 6V3m4.25 13.25l2.15 2.15M12 18v3m-4.25-4.75L5.6 18.4M6 12H3m4.75-4.25L5.6 5.6"
              stroke="currentColor" stroke-width="var(--icon-stroke-width)" stroke-linecap="round"
              stroke-linejoin="round"/>
    </symbol>
    <symbol fill="none" viewBox="0 0 24 24" id="icon-lock" xmlns="http://www.w3.org/2000/svg">
        <path d="M8 11V7a4 4 0 018 0v4m-9 0h10a2 2 0 012 2v6a2 2 0 01-2 2H7a2 2 0 01-2-2v-6a2 2 0 012-2zm6 5a1 1 0 11-2 0 1 1 0 012 0z"
              stroke="currentColor" stroke-width="var(--icon-stroke-width)" stroke-linecap="round"
              stroke-linejoin="round"/>
    </symbol>
    <symbol fill="none" viewBox="0 0 24 24" id="icon-lock-big" xmlns="http://www.w3.org/2000/svg">
        <path d="M16 10V7a4 4 0 00-8 0v3M7 21h10a2 2 0 002-2v-7a2 2 0 00-2-2H7a2 2 0 00-2 2v7a2 2 0 002 2z"
              stroke="currentColor" stroke-width="var(--icon-stroke-width)" stroke-linejoin="round"/>
    </symbol>
    <symbol fill="none" viewBox="0 0 24 24" id="icon-lock-open" xmlns="http://www.w3.org/2000/svg">
        <path d="M17 11H7a2 2 0 00-2 2v6a2 2 0 002 2h10a2 2 0 002-2v-6a2 2 0 00-2-2z" stroke="currentColor"
              stroke-width="var(--icon-stroke-width)" stroke-linecap="round" stroke-linejoin="round"/>
        <path d="M12 17a1 1 0 100-2 1 1 0 000 2zM8 11V6a4 4 0 018 0" stroke="currentColor"
              stroke-width="var(--icon-stroke-width)" stroke-linecap="round" stroke-linejoin="round"/>
    </symbol>
    <symbol fill="none" viewBox="0 0 24 24" id="icon-mail" xmlns="http://www.w3.org/2000/svg">
        <path d="M21 7a2 2 0 00-2-2H5a2 2 0 00-2 2m18 0v10a2 2 0 01-2 2H5a2 2 0 01-2-2V7m18 0l-9 6-9-6"
              stroke="currentColor" stroke-width="var(--icon-stroke-width)" stroke-linecap="round"
              stroke-linejoin="round"/>
    </symbol>
    <symbol fill="none" viewBox="0 0 32 32" id="icon-main-star" xmlns="http://www.w3.org/2000/svg">
        <path d="M16 5.1l3.292 6.67 7.36 1.069-5.326 5.191 1.257 7.331L16 21.9l-6.583 3.461 1.257-7.33-5.326-5.192 7.36-1.07L16 5.1z"
              fill="url(#dwpaint0_linear_11189_145098)" stroke="#3D3D29" stroke-opacity=".5" stroke-linejoin="round"/>
        <path d="M16 6.23l2.843 5.76a.5.5 0 00.377.274l6.357.924-4.6 4.484a.5.5 0 00-.144.443l1.086 6.332-5.686-2.99a.5.5 0 00-.466 0l-5.686 2.99 1.086-6.332a.5.5 0 00-.144-.442l-4.6-4.485 6.357-.924a.5.5 0 00.377-.273L16 6.23z"
              stroke="#3D3D29" stroke-opacity=".3" stroke-linejoin="round"/>
        <defs>
            <linearGradient id="dwpaint0_linear_11189_145098" x1="4.8" y1="5.1" x2="27.2" y2="27.5"
                            gradientUnits="userSpaceOnUse">
                <stop stop-color="#FAFAE0"/>
                <stop offset=".479" stop-color="#F0F000"/>
                <stop offset="1" stop-color="#ACAC1B"/>
            </linearGradient>
        </defs>
    </symbol>
    <symbol fill="none" viewBox="0 0 24 24" id="icon-mantion" xmlns="http://www.w3.org/2000/svg">
        <path d="M16 12a4 4 0 11-8 0 4 4 0 018 0zm0 0v1.5a2.5 2.5 0 005 0V12a9 9 0 10-5.5 8.28" stroke="currentColor"
              stroke-width="var(--icon-stroke-width)" stroke-linecap="round" stroke-linejoin="round"/>
    </symbol>
    <symbol fill="none" viewBox="0 0 24 24" id="icon-messages" xmlns="http://www.w3.org/2000/svg">
        <path d="M14 15v2a1 1 0 01-1 1H6l-3 3V11a1 1 0 011-1h2m15 4l-3-3h-7a1 1 0 01-1-1V4a1 1 0 011-1h9a1 1 0 011 1v10z"
              stroke="currentColor" stroke-width="var(--icon-stroke-width)" stroke-linecap="round"
              stroke-linejoin="round"/>
    </symbol>
    <symbol fill="none" viewBox="0 0 24 24" id="icon-messenger" xmlns="http://www.w3.org/2000/svg">
        <path d="M12 12v.01M8 12v.01m8-.01v.01M3 20l1.3-3.9c-1.124-1.662-1.53-3.63-1.144-5.538.386-1.908 1.54-3.626 3.244-4.836 1.704-1.21 3.845-1.827 6.024-1.739 2.179.089 4.248.877 5.821 2.22 1.574 1.342 2.546 3.147 2.735 5.078.19 1.931-.417 3.858-1.706 5.422-1.29 1.564-3.173 2.659-5.302 3.08-2.13.422-4.358.142-6.272-.787L3 20z"
              stroke="currentColor" stroke-width="var(--icon-stroke-width)" stroke-linecap="round"
              stroke-linejoin="round"/>
    </symbol>
    <symbol fill="none" viewBox="0 0 24 24" id="icon-messenger-block" xmlns="http://www.w3.org/2000/svg">
        <path d="M3 3l18 18M8.585 4.581c3.225-1.181 7.032-.616 9.66 1.626 2.983 2.543 3.602 6.525 1.634 9.662m-1.908 2.108C15.185 20.167 11.081 20.642 7.7 19L3 20l1.3-3.9C2.063 12.792 2.811 8.56 6.014 6.016"
              stroke="currentColor" stroke-width="var(--icon-stroke-width)" stroke-linecap="round"
              stroke-linejoin="round"/>
    </symbol>
    <symbol fill="none" viewBox="0 0 24 24" id="icon-mic" xmlns="http://www.w3.org/2000/svg">
        <path d="M5 10a7 7 0 007 7m0 0a7 7 0 007-7m-7 7v4m-4 0h8M12 2a3 3 0 013 3v5a3 3 0 11-6 0V5a3 3 0 013-3z"
              stroke="currentColor" stroke-width="var(--icon-stroke-width)" stroke-linecap="round"
              stroke-linejoin="round"/>
    </symbol>
    <symbol fill="none" viewBox="0 0 24 24" id="icon-mic-off" xmlns="http://www.w3.org/2000/svg">
        <path d="M6 10a1 1 0 10-2 0h2zm2 10a1 1 0 100 2v-2zm8 2a1 1 0 000-2v2zM8 5.187a1 1 0 002 0H8zm5.884 5.485a1 1 0 001.884.672l-1.884-.672zm-1.148 3.26a1 1 0 00-.366-1.966l.366 1.966zM10 9.422a1 1 0 10-2 0h2zm6.947 3.973a1 1 0 001.65 1.131l-1.65-1.131zM20 10a1 1 0 00-2 0h2zm-3.879 6.857a1 1 0 10-1.03-1.714l1.03 1.714zm2.758 3.85a1 1 0 101.414-1.414l-1.414 1.414zM4.737 3.737A1 1 0 003.322 5.15l1.415-1.414zM12 3a2 2 0 012 2h2a4 4 0 00-4-4v2zm2 2v5h2V5h-2zm-2 7a2 2 0 01-2-2H8a4 4 0 004 4v-2zm-2-7a2 2 0 012-2V1a4 4 0 00-4 4h2zm-6 5a8 8 0 002.343 5.657l1.414-1.414A6 6 0 016 10H4zm2.343 5.657A8 8 0 0012 18v-2a6 6 0 01-4.243-1.757l-1.414 1.414zM8 22h4v-2H8v2zm4 0h4v-2h-4v2zm-1-5v4h2v-4h-2zM10 5.187V5H8v.188h2zM14 10c0 .238-.041.463-.116.672l1.884.672c.15-.421.232-.874.232-1.344h-2zm-1.63 1.966c-.12.022-.243.034-.37.034v2c.25 0 .497-.023.736-.068l-.366-1.966zM10 10v-.578H8V10h2zm8.596 4.526A8 8 0 0020 10h-2a6 6 0 01-1.053 3.395l1.65 1.131zM12 18a8 8 0 004.121-1.143l-1.03-1.714A6 6 0 0112 16v2zm8.293 1.293L4.737 3.737 3.322 5.15 18.88 20.707l1.414-1.414z"
              fill="currentColor"/>
    </symbol>
    <symbol fill="none" viewBox="0 0 24 24" id="icon-money" xmlns="http://www.w3.org/2000/svg">
        <path d="M18 12h.01M6 12h.01M15 12a3 3 0 11-6 0 3 3 0 016 0zM5 6h14a2 2 0 012 2v8a2 2 0 01-2 2H5a2 2 0 01-2-2V8a2 2 0 012-2z"
              stroke="currentColor" stroke-width="var(--icon-stroke-width)" stroke-linecap="round"
              stroke-linejoin="round"/>
    </symbol>
    <symbol fill="none" viewBox="0 0 24 24" id="icon-money-off" xmlns="http://www.w3.org/2000/svg">
        <path d="M21 15.344V8a2 2 0 00-2-2h-7.344M18 12h.01M6 12h.01m11.74 6H5a2 2 0 01-2-2V8a2 2 0 012-2h1.01m3.837 3.91a3 3 0 004.244 4.24M3 3l18 18"
              stroke="currentColor" stroke-width="var(--icon-stroke-width)" stroke-linecap="round"
              stroke-linejoin="round"/>
    </symbol>
    <symbol fill="none" viewBox="0 0 24 24" id="icon-more" xmlns="http://www.w3.org/2000/svg">
        <path d="M5 13a1 1 0 100-2 1 1 0 000 2zM12 13a1 1 0 100-2 1 1 0 000 2zM19 13a1 1 0 100-2 1 1 0 000 2z"
              stroke="currentColor" stroke-width="var(--icon-stroke-width)" stroke-linecap="round"
              stroke-linejoin="round"/>
    </symbol>
    <symbol fill="none" viewBox="0 0 24 24" id="icon-news" xmlns="http://www.w3.org/2000/svg">
        <path d="M16 5a1 1 0 100 2V5zm0 13h1-1zM15 4V3v1zM4 5H3h1zm3 15v1-1zM8 7a1 1 0 000 2V7zm4 2a1 1 0 100-2v2zm-4 2a1 1 0 100 2v-2zm4 2a1 1 0 100-2v2zm-4 2a1 1 0 100 2v-2zm4 2a1 1 0 100-2v2zm4-10h3V5h-3v2zm3 0l1.414-1.414A2 2 0 0019 5v2zm0 0h2a2 2 0 00-.586-1.414L19 7zm0 0v11h2V7h-2zm0 11a1 1 0 01-.293.707l1.414 1.414A3 3 0 0021 18h-2zm-.293.707A1 1 0 0118 19v2a3 3 0 002.121-.879l-1.414-1.414zM18 19a1 1 0 01-.707-.293l-1.414 1.414A3 3 0 0018 21v-2zm-.707-.293A1 1 0 0117 18h-2a3 3 0 00.879 2.121l1.414-1.414zM17 18V5h-2v13h2zm0-13a2 2 0 00-.586-1.414L15 5h2zm-.586-1.414A2 2 0 0015 3v2l1.414-1.414zM15 3H5v2h10V3zM5 3a2 2 0 00-1.414.586L5 5V3zm-1.414.586A2 2 0 003 5h2L3.586 3.586zM3 5v12h2V5H3zm0 12a4 4 0 001.172 2.828l1.414-1.414A2 2 0 015 17H3zm1.172 2.828A4 4 0 007 21v-2a2 2 0 01-1.414-.586l-1.414 1.414zM7 21h11v-2H7v2zM8 9h4V7H8v2zm0 4h4v-2H8v2zm0 4h4v-2H8v2z"
              fill="currentColor"/>
    </symbol>
    <symbol fill="none" viewBox="0 0 24 24" id="icon-ok" xmlns="http://www.w3.org/2000/svg">
        <path d="M12 15a9.955 9.955 0 01-5-1.338M12 15c1.821 0 3.53-.487 5-1.338M12 15l5 6m-5-6l-5 6m9-14a4 4 0 11-8 0 4 4 0 018 0z"
              stroke="currentColor" stroke-width="var(--icon-stroke-width)" stroke-linecap="round"/>
    </symbol>
    <symbol fill="none" viewBox="0 0 24 24" id="icon-ol" xmlns="http://www.w3.org/2000/svg">
        <path d="M11 6h9m-9 6h9m-8 6h8M4 16a2 2 0 014 0c0 .591-.5 1-1 1.5L4 20h4M6 10V4L4 6" stroke="currentColor"
              stroke-width="var(--icon-stroke-width)" stroke-linecap="round" stroke-linejoin="round"/>
    </symbol>
    <symbol fill="none" viewBox="0 0 24 24" id="icon-organizations" xmlns="http://www.w3.org/2000/svg">
        <path d="M17 13a1 1 0 100-2v2zm-2-2a1 1 0 100 2v-2zm2 6a1 1 0 100-2v2zm-2-2a1 1 0 100 2v-2zM4 5h6V3H4v2zm7 14H4v2h7v-2zm-7 0H2a2 2 0 002 2v-2zm6-14h2a2 2 0 00-2-2v2zM4 3a2 2 0 00-2 2h2V3zm7 6h9V7h-9v2zm9 0v10h2V9h-2zm0 10h-9v2h9v-2zm0 0v2a2 2 0 002-2h-2zm0-10h2a2 2 0 00-2-2v2zM4 8V5H2v3h2zm7-1H3v2h8V7zm1 5V8h-2v4h2zm-2-7v7h2V5h-2zm-6 7V8H2v4h2zm7-1H3v2h8v-2zm1 9v-4h-2v4h2zm0-4v-4h-2v4h2zm-8 3v-3H2v3h2zm0-3v-4H2v4h2zm7-1H3v2h8v-2zm6-4h-2v2h2v-2zm0 4h-2v2h2v-2z"
              fill="currentColor"/>
    </symbol>
    <symbol fill="none" viewBox="0 0 24 24" id="icon-partially" xmlns="http://www.w3.org/2000/svg">
        <rect x="3" y="5" width="18" height="14" rx="2" stroke="currentColor" stroke-width="var(--icon-stroke-width)"/>
        <path stroke="currentColor" stroke-width="var(--icon-stroke-width)" stroke-linecap="round" d="M7 16V8M11 16V8"/>
    </symbol>
    <symbol fill="none" viewBox="0 0 24 24" id="icon-phone" xmlns="http://www.w3.org/2000/svg">
        <path d="M5 4h4l2 5-2.5 1.5a11 11 0 005 5L15 13l5 2v4a2 2 0 01-2 2A16 16 0 013 6a2 2 0 012-2"
              stroke="currentColor" stroke-width="var(--icon-stroke-width)" stroke-linecap="round"
              stroke-linejoin="round"/>
    </symbol>
    <symbol fill="none" viewBox="0 0 24 24" id="icon-phone-mobile" xmlns="http://www.w3.org/2000/svg">
        <g stroke="currentColor" stroke-width="var(--icon-stroke-width)" stroke-linecap="round" stroke-linejoin="round">
            <path d="M6 5a2 2 0 012-2h8a2 2 0 012 2v14a2 2 0 01-2 2H8a2 2 0 01-2-2V5zM11 4h2M12 17v.01"/>
        </g>
    </symbol>
    <symbol fill="none" viewBox="0 0 24 24" id="icon-pin" xmlns="http://www.w3.org/2000/svg">
        <path d="M12 14a3 3 0 100-6 3 3 0 000 6z" stroke="currentColor" stroke-width="var(--icon-stroke-width)"
              stroke-linecap="round" stroke-linejoin="round"/>
        <path d="M17.657 16.657L13.414 20.9a2 2 0 01-2.827 0l-4.244-4.243a8 8 0 1111.314 0z" stroke="currentColor"
              stroke-width="var(--icon-stroke-width)" stroke-linecap="round" stroke-linejoin="round"/>
    </symbol>
    <symbol fill="none" viewBox="0 0 24 24" id="icon-plus" xmlns="http://www.w3.org/2000/svg">
        <path d="M12 5v14m-7-7h14" stroke="currentColor" stroke-width="var(--icon-stroke-width)" stroke-linecap="round"
              stroke-linejoin="round"/>
    </symbol>
    <symbol fill="none" viewBox="0 0 24 24" id="icon-poll" xmlns="http://www.w3.org/2000/svg">
        <path d="M7 18h2m-2-4h6m-6-4h10M9 6H7M5 21h14a2 2 0 002-2V5a2 2 0 00-2-2H5a2 2 0 00-2 2v14a2 2 0 002 2z"
              stroke="#000" stroke-width="2" stroke-linecap="round" stroke-linejoin="round"/>
    </symbol>
    <symbol fill="none" viewBox="0 0 24 24" id="icon-portfolio" xmlns="http://www.w3.org/2000/svg">
        <path d="M3 13v5a2 2 0 002 2h14a2 2 0 002-2v-5M3 13V9a2 2 0 012-2h3m-5 6c6 3 12 3 18 0m0 0V9a2 2 0 00-2-2h-3M8 7V5a2 2 0 012-2h4a2 2 0 012 2v2M8 7h8m-4 5v.01"
              stroke="currentColor" stroke-width="var(--icon-stroke-width)" stroke-linecap="round"
              stroke-linejoin="round"/>
    </symbol>
    <symbol fill="none" viewBox="0 0 24 24" id="icon-promotions" xmlns="http://www.w3.org/2000/svg">
        <path d="M12 8v13m0-13c-.362-1.49-.985-2.765-1.787-3.657C9.41 3.451 8.465 2.983 7.5 3a2.5 2.5 0 100 5M12 8c.362-1.49.985-2.765 1.787-3.657.803-.892 1.748-1.36 2.713-1.343a2.5 2.5 0 010 5m2.5 4v7a2 2 0 01-2 2H7a2 2 0 01-2-2v-7M4 8h16a1 1 0 011 1v2a1 1 0 01-1 1H4a1 1 0 01-1-1V9a1 1 0 011-1z"
              stroke="currentColor" stroke-width="var(--icon-stroke-width)" stroke-linecap="round"
              stroke-linejoin="round"/>
    </symbol>
    <symbol fill="none" viewBox="0 0 20 20" id="icon-radio-checked" xmlns="http://www.w3.org/2000/svg">
        <circle cx="10" cy="10" r="9" fill="#fff" stroke="#2061CB" stroke-width="2"/>
        <circle cx="10" cy="10" r="5" fill="#2061CB"/>
    </symbol>
    <symbol fill="none" viewBox="0 0 20 20" id="icon-radio-empty" xmlns="http://www.w3.org/2000/svg">
        <circle cx="10" cy="10" r="9" fill="#fff" stroke="#8197BB" stroke-width="2"/>
    </symbol>
    <symbol fill="none" viewBox="0 0 24 24" id="icon-railroad" xmlns="http://www.w3.org/2000/svg">
        <path d="M4 14.747l11-11m5 5l-11 11m-4-8l7 7m-3.5-10.5l7 7M12 4.747l7 7" stroke="currentColor"
              stroke-width="var(--icon-stroke-width)" stroke-linecap="round" stroke-linejoin="round"/>
    </symbol>
    <symbol fill="none" viewBox="0 0 24 24" id="icon-recomend" xmlns="http://www.w3.org/2000/svg">
        <path d="M6 21v1a1 1 0 001-1H6zm8 .5l-.242.97a1 1 0 00.578-.028L14 21.5zm7-2.5l.336.942A1 1 0 0022 19h-1zm-10.053-3.894a1 1 0 10-.894 1.788l.894-1.788zM14 14l.371-.928L14 14zm-5.5-2l.316-.949A1 1 0 008.5 11v1zM17 3l.897-.443a1 1 0 00-1.794 0L17 3zm1.176 2.382l-.897.443a1 1 0 00.753.547l.144-.99zm2.628.382l.698.716a1 1 0 00-.554-1.706l-.144.99zm-1.902 1.854l-.698-.716a1 1 0 00-.288.885l.986-.169zm.45 2.618l-.466.885a1 1 0 001.45-1.054l-.985.17zM17 9l.465-.885a1 1 0 00-.93 0L17 9zm-2.351 1.236l-.986-.169a1 1 0 001.451 1.054l-.465-.885zm.449-2.618l.986.17a1 1 0 00-.288-.886l-.698.716zm-1.902-1.854l-.144-.99a1 1 0 00-.554 1.706l.698-.716zm2.628-.382l.144.99a1 1 0 00.753-.547l-.897-.443zM4 13h2v-2H4v2zm1-1v9h2v-9H5zm1 8H4v2h2v-2zm-3-1v-5H1v5h2zm1 1a1 1 0 01-1-1H1a3 3 0 003 3v-2zm0-9a3 3 0 00-3 3h2a1 1 0 011-1v-2zm1.757 9.47l8 2 .486-1.94-8-2-.486 1.94zm8.58 1.972l7-2.5-.673-1.884-7 2.5.672 1.884zM22 19c0-.493-.14-1.211-.588-1.834C20.925 16.49 20.125 16 19 16v2c.474 0 .674.175.788.334.152.21.212.493.212.666h2zm-8-3c-1.245 0-2.06-.398-3.053-.894l-.894 1.788C11.06 17.398 12.245 18 14 18v-2zm5 0h-3.156v2H19v-2zm-3.156 0H14v2h1.844v-2zm.95 1.312c.178-.542.222-1.341-.118-2.15-.354-.842-1.087-1.603-2.305-2.09l-.742 1.857c.782.312 1.08.717 1.203 1.009.137.325.103.625.062.75l1.9.624zm-2.423-4.24c-2.026-.81-4.546-1.684-5.555-2.02l-.632 1.897c.991.33 3.47 1.19 5.445 1.98l.742-1.857zM8.5 11H6v2h2.5v-2zm7.603-7.557l1.176 2.382 1.793-.886-1.175-2.382-1.794.886zm1.929 2.929l2.628.382.288-1.98-2.629-.382-.287 1.98zm2.074-1.324l-1.902 1.854L19.6 8.334l1.902-1.854-1.396-1.432zm-2.19 2.74l.45 2.617 1.97-.338-.448-2.618-1.972.338zm1.9 1.563l-2.35-1.236-.931 1.77 2.35 1.236.931-1.77zm-3.281-1.236L14.184 9.35l.93 1.77 2.351-1.236-.93-1.77zm-.9 2.29l.449-2.618-1.972-.338-.449 2.618 1.971.338zm.16-3.503l-1.901-1.854-1.396 1.432L14.4 8.334l1.396-1.432zm-2.455-.148l2.628-.382-.287-1.98-2.629.382.288 1.98zm3.381-.93l1.176-2.381-1.794-.886-1.175 2.382 1.793.886z"
              fill="currentColor"/>
    </symbol>
    <symbol fill="none" viewBox="0 0 24 24" id="icon-repeat" xmlns="http://www.w3.org/2000/svg">
        <path d="M7 18H5a2 2 0 01-2-2V6a2 2 0 012-2h14a2 2 0 012 2v10a2 2 0 01-2 2h-8m0 0l3 3m-3-3l3-3"
              stroke="currentColor" stroke-width="var(--icon-stroke-width)" stroke-linecap="round"
              stroke-linejoin="round"/>
    </symbol>
    <symbol fill="none" viewBox="0 0 24 24" id="icon-repposts" xmlns="http://www.w3.org/2000/svg">
        <path d="M8 10a1 1 0 000-2v2zm8-2a1 1 0 100 2V8zm-1.707-2.293a1 1 0 101.414-1.414l-1.414 1.414zM12 2l.707-.707a1 1 0 00-1.414 0L12 2zM8.293 4.293a1 1 0 001.414 1.414L8.293 4.293zM11 14a1 1 0 102 0h-2zm7-3v8h2v-8h-2zm-1 9H7v2h10v-2zM6 19v-8H4v8h2zm1-9h1V8H7v2zm9 0h1V8h-1v2zM7 20a1 1 0 01-1-1H4a3 3 0 003 3v-2zm11-1a1 1 0 01-1 1v2a3 3 0 003-3h-2zm2-8a3 3 0 00-3-3v2a1 1 0 011 1h2zM6 11a1 1 0 011-1V8a3 3 0 00-3 3h2zm9.707-6.707l-3-3-1.414 1.414 3 3 1.414-1.414zm-4.414-3l-3 3 1.414 1.414 3-3-1.414-1.414zM11 2v12h2V2h-2z"
              fill="currentColor"/>
    </symbol>
    <symbol fill="none" viewBox="0 0 24 24" id="icon-scooter" xmlns="http://www.w3.org/2000/svg">
        <circle cx="19" cy="17" r="2" stroke="currentColor" stroke-width="var(--icon-stroke-width)"/>
        <path d="M7.79 16.105a2 2 0 11-3.578 0" stroke="currentColor" stroke-width="var(--icon-stroke-width)"/>
        <path d="M9.857 12H7a4 4 0 00-4 4h8m-1.143-4L9 9H5.5m4.357 3L11 16m0 0h3l2.5-3.5-1-4.5h2a1.5 1.5 0 000-3h-4"
              stroke="currentColor" stroke-width="var(--icon-stroke-width)" stroke-linecap="round"
              stroke-linejoin="round"/>
    </symbol>
    <symbol fill="none" viewBox="0 0 24 24" id="icon-search" xmlns="http://www.w3.org/2000/svg">
        <path d="M14.95 14.95a7 7 0 10-9.9-9.9 7 7 0 009.9 9.9zm0 0L21 21" stroke="currentColor"
              stroke-width="var(--icon-stroke-width)" stroke-linecap="round" stroke-linejoin="round"/>
    </symbol>
    <symbol fill="none" viewBox="0 0 25 24" id="icon-sell" xmlns="http://www.w3.org/2000/svg">
        <path d="M14.941 21h-11l1-12h16l.167 2" stroke="currentColor" stroke-width="var(--icon-stroke-width)"
              stroke-linecap="round" stroke-linejoin="round"/>
        <path d="M16.941 11V7a4 4 0 00-8 0v4" stroke="currentColor" stroke-width="var(--icon-stroke-width)"
              stroke-linecap="round"/>
        <path d="M18.941 14v7m0-7l3 3m-3-3l-3 3" stroke="currentColor" stroke-width="var(--icon-stroke-width)"
              stroke-linecap="round" stroke-linejoin="round"/>
    </symbol>
    <symbol fill="none" viewBox="0 0 24 24" id="icon-send" xmlns="http://www.w3.org/2000/svg">
        <path d="M12 5L5 19l7-2m0-12l7 14-7-2m0-12v12" stroke="currentColor" stroke-width="var(--icon-stroke-width)"
              stroke-linejoin="round"/>
    </symbol>
    <symbol fill="none" viewBox="0 0 24 24" id="icon-settings" xmlns="http://www.w3.org/2000/svg">
        <path d="M16 6a2 2 0 11-4 0m4 0a2 2 0 10-4 0m4 0h4m-8 0H4m6 6a2 2 0 11-4 0m4 0a2 2 0 10-4 0m4 0h10M6 12H4m15 6a2 2 0 11-4 0m4 0a2 2 0 10-4 0m4 0h1m-5 0H4"
              stroke="currentColor" stroke-width="var(--icon-stroke-width)" stroke-linecap="round"
              stroke-linejoin="round"/>
    </symbol>
    <symbol fill="none" viewBox="0 0 24 24" id="icon-shopping" xmlns="http://www.w3.org/2000/svg">
        <path d="M6 17a2 2 0 100 4 2 2 0 000-4zm0 0h11M6 17V3H4m13 14a2 2 0 100 4 2 2 0 000-4zM6 5l14 1-1 7H6"
              stroke="currentColor" stroke-width="var(--icon-stroke-width)" stroke-linecap="round"
              stroke-linejoin="round"/>
    </symbol>
    <symbol fill="none" viewBox="0 0 24 24" id="icon-shovel" xmlns="http://www.w3.org/2000/svg">
        <path d="M11.1 16.757a1 1 0 010-1.414l4.243-4.242a1 1 0 011.414 0l3.95 3.95a1 1 0 01.293.706V20a1 1 0 01-1 1h-4.243a1 1 0 01-.707-.293l-3.95-3.95z"
              stroke="currentColor" stroke-width="var(--icon-stroke-width)" stroke-linejoin="round"/>
        <path d="M2.83 7.197l2.12-2.122m0 0l2.122-2.12M4.95 5.074L15 15" stroke="currentColor"
              stroke-width="var(--icon-stroke-width)" stroke-linecap="round"/>
    </symbol>
    <symbol fill="none" viewBox="0 0 20 20" id="icon-sm-add" xmlns="http://www.w3.org/2000/svg">
        <path d="M10 17V3m-7 7h14" stroke="#fff" stroke-opacity=".87" stroke-width="2" stroke-linecap="round"/>
    </symbol>
    <symbol fill="none" viewBox="0 0 20 20" id="icon-sm-chevron-up-down" xmlns="http://www.w3.org/2000/svg">
        <path d="M6 12l4 4 4-4M6 8l4-4 4 4" stroke="currentColor" stroke-width="var(--icon-stroke-width)"
              stroke-linecap="round" stroke-linejoin="round"/>
    </symbol>
    <symbol fill="none" viewBox="0 0 20 20" id="icon-sm-gift" xmlns="http://www.w3.org/2000/svg">
        <path d="M10 7v10m0-10c-.258-1.192-.703-2.212-1.277-2.925C8.15 3.36 7.475 2.987 6.786 3c-.474 0-.928.211-1.263.586A2.128 2.128 0 005 5c0 .53.188 1.04.523 1.414.335.375.79.586 1.263.586M10 7c.258-1.192.703-2.212 1.277-2.925.573-.714 1.248-1.088 1.937-1.075.474 0 .928.211 1.263.586.335.375.523.884.523 1.414 0 .53-.188 1.04-.523 1.414-.335.375-.79.586-1.263.586M16 11v4.667c0 .353-.18.692-.502.943-.322.25-.758.39-1.212.39H5.714c-.454 0-.89-.14-1.212-.39-.321-.25-.502-.59-.502-.943V11m-.222-4h12.444c.43 0 .778.448.778 1v2c0 .552-.348 1-.778 1H3.778C3.348 11 3 10.552 3 10V8c0-.552.348-1 .778-1z"
              stroke="#fff" stroke-opacity=".87" stroke-width="2" stroke-linecap="round" stroke-linejoin="round"/>
    </symbol>
    <symbol fill="none" viewBox="0 0 20 20" id="icon-sm-like" xmlns="http://www.w3.org/2000/svg">
        <path d="M8.06 8.238l.673.74-.672-.74zM12.993 8h-1a1 1 0 001 1V8zM17 9.454l.986.167A.997.997 0 0018 9.454h-1zm-.802 4.725l.969.25a.98.98 0 00.017-.083l-.986-.167zm-8.368-.103a1 1 0 10-1.66 1.115l1.66-1.115zM6.444 8.043a1 1 0 00.577 1.914l-.577-1.914zm2.289.935C9.577 8.212 10 7.004 10 6H8c0 .539-.253 1.172-.61 1.497l1.343 1.481zM12.992 9h2.405V7h-2.405v2zm2.405 0c.19 0 .354.07.462.167l1.343-1.482A2.69 2.69 0 0015.397 7v2zm.462.167a.39.39 0 01.141.287h2c0-.684-.3-1.318-.798-1.769L15.86 9.167zm.155.12l-.801 4.724 1.971.335.802-4.725-1.972-.334zM13.794 15h-4.41v2h4.41v-2zm1.436-1.072c.013-.05.003.01-.108.166a2.777 2.777 0 01-.394.44c-.35.316-.688.466-.934.466v2c.956 0 1.756-.513 2.276-.983a4.77 4.77 0 00.683-.766c.165-.232.337-.524.414-.822l-1.937-.5zM9.385 15c-.61 0-1.198-.392-1.555-.924l-1.66 1.115C6.785 16.107 7.929 17 9.385 17v-2zm2.607-9v2h2V6h-2zM11 5c.505 0 .703.134.784.22.09.093.208.306.208.78h2c0-.782-.196-1.57-.761-2.162C12.657 3.238 11.859 3 11 3v2zm-1 1c0-.57.114-.756.167-.813.04-.043.205-.187.833-.187V3c-.88 0-1.713.197-2.298.825C8.132 4.438 8 5.252 8 6h2zM7.021 9.957a4.917 4.917 0 001.712-.979L7.389 7.497a2.958 2.958 0 01-.945.546l.577 1.914zM6 10v4h2v-4H6zm-2 4v-4H2v4h2zm1 1a1 1 0 01-1-1H2a3 3 0 003 3v-2zm1-1a1 1 0 01-1 1v2a3 3 0 003-3H6zM5 9a1 1 0 011 1h2a3 3 0 00-3-3v2zm0-2a3 3 0 00-3 3h2a1 1 0 011-1V7z"
              fill="currentColor"/>
    </symbol>
    <symbol fill="none" viewBox="0 0 20 20" id="icon-sm-mention" xmlns="http://www.w3.org/2000/svg">
        <path d="M13.111 10.009a3.111 3.111 0 11-6.222 0 3.111 3.111 0 016.222 0zm0 0v1.167a1.945 1.945 0 003.889 0v-1.167a7 7 0 10-4.278 6.44"
              stroke="#fff" stroke-opacity=".87" stroke-width="2" stroke-linecap="round" stroke-linejoin="round"/>
    </symbol>
    <symbol fill="none" viewBox="0 0 20 20" id="icon-sm-message" xmlns="http://www.w3.org/2000/svg">
        <path d="M4.01 13.079L3 16l3.653-.749c1.487.696 3.22.906 4.874.59 1.655-.316 3.119-1.136 4.12-2.307 1.002-1.172 1.474-2.615 1.327-4.062-.147-1.446-.903-2.798-2.126-3.803-1.223-1.006-2.83-1.597-4.524-1.663-1.693-.066-3.357.397-4.682 1.303-1.325.906-2.22 2.193-2.52 3.622-.3 1.43.015 2.903.888 4.148z"
              stroke="#fff" stroke-opacity=".87" stroke-width="2" stroke-linecap="round" stroke-linejoin="round"/>
    </symbol>
    <symbol fill="none" viewBox="0 0 20 20" id="icon-sm-mic" xmlns="http://www.w3.org/2000/svg">
        <path d="M7 16a1 1 0 100 2v-2zm6 2a1 1 0 100-2v2zm3-9a1 1 0 10-2 0h2zM6 9a1 1 0 00-2 0h2zm5-4v4h2V5h-2zM9 9V5H7v4h2zm1 1a1 1 0 01-1-1H7a3 3 0 003 3v-2zm1-1a1 1 0 01-1 1v2a3 3 0 003-3h-2zm-1-5a1 1 0 011 1h2a3 3 0 00-3-3v2zm0-2a3 3 0 00-3 3h2a1 1 0 011-1V2zm0 11a4 4 0 01-4-4H4a6 6 0 006 6v-2zm4-4a4 4 0 01-4 4v2a6 6 0 006-6h-2zm-7 9h3v-2H7v2zm3 0h3v-2h-3v2zm1-1v-3H9v3h2z"
              fill="currentColor"/>
    </symbol>
    <symbol fill="none" viewBox="0 0 20 20" id="icon-sm-mic-off" xmlns="http://www.w3.org/2000/svg">
        <path d="M6 9a1 1 0 10-2 0h2zm1 7a1 1 0 100 2v-2zm5.5 2a1 1 0 100-2v2zM7.135 4.11a1 1 0 001.91.593l-1.91-.594zM11 8.34a1 1 0 102 0h-2zm-2 .246a1 1 0 10-2 0h2zm1.566 3.36a1 1 0 10-.376-1.964l.376 1.965zM16 9a1 1 0 10-2 0h2zm-2.32 1.571a1 1 0 001.839.787l-1.84-.787zm-.48 3.505a1 1 0 10-1.068-1.69l1.067 1.69zM4.12 3.293a1 1 0 00-1.414 1.414l1.414-1.414zm11.314 14.142a1 1 0 101.414-1.414l-1.414 1.414zM10 10a1 1 0 01-1-1H7a3 3 0 003 3v-2zm0-6a1 1 0 011 1h2a3 3 0 00-3-3v2zm0 9a4 4 0 01-4-4H4a6 6 0 006 6v-2zm-3 5h3v-2H7v2zm3 0h2.5v-2H10v2zm1-1v-3H9v3h2zM10 2a3 3 0 00-2.865 2.11l1.91.593A1 1 0 0110 4V2zm1 3v3.34h2V5h-2zM9 9v-.414H7V9h2zm1.19.982A1.01 1.01 0 0110 10v2c.193 0 .382-.018.566-.053l-.376-1.965zM14 9c0 .56-.114 1.09-.32 1.571l1.839.787C15.829 10.631 16 9.835 16 9h-2zm-1.868 3.385A3.977 3.977 0 0110 13v2a5.976 5.976 0 003.2-.924l-1.068-1.69zM2.707 4.707l12.728 12.728 1.414-1.414L4.121 3.293 2.707 4.707z"
              fill="currentColor"/>
    </symbol>
    <symbol fill="none" viewBox="0 0 20 20" id="icon-sm-remove" xmlns="http://www.w3.org/2000/svg">
        <path d="M7.879 7.879L10 10m0 0l2.121 2.121M10 10l-2.121 2.121M10 10l2.121-2.121M17 10a7 7 0 11-14 0 7 7 0 0114 0z"
              stroke="currentColor" stroke-width="var(--icon-stroke-width)" stroke-linecap="round"/>
    </symbol>
    <symbol fill="none" viewBox="0 0 32 32" id="icon-sm-star" xmlns="http://www.w3.org/2000/svg">
        <path d="M16 5.1l3.292 6.67 7.36 1.069-5.326 5.191 1.257 7.331L16 21.9l-6.583 3.461 1.257-7.33-5.326-5.192 7.36-1.07L16 5.1z"
              fill="url(#fmpaint0_linear_11189_145098)" stroke="#3D3D29" stroke-opacity=".5" stroke-linejoin="round"/>
        <path d="M16 6.23l2.843 5.76a.5.5 0 00.377.274l6.357.924-4.6 4.484a.5.5 0 00-.144.443l1.086 6.332-5.686-2.99a.5.5 0 00-.466 0l-5.686 2.99 1.086-6.332a.5.5 0 00-.144-.442l-4.6-4.485 6.357-.924a.5.5 0 00.377-.273L16 6.23z"
              stroke="#3D3D29" stroke-opacity=".3" stroke-linejoin="round"/>
        <defs>
            <linearGradient id="fmpaint0_linear_11189_145098" x1="4.8" y1="5.1" x2="27.2" y2="27.5"
                            gradientUnits="userSpaceOnUse">
                <stop stop-color="#FAFAE0"/>
                <stop offset=".479" stop-color="#F0F000"/>
                <stop offset="1" stop-color="#ACAC1B"/>
            </linearGradient>
        </defs>
    </symbol>
    <symbol fill="none" viewBox="0 0 24 24" id="icon-sort" xmlns="http://www.w3.org/2000/svg">
        <path d="M4 6h9m-9 6h7m-7 6h7m4-3l3 3m0 0l3-3m-3 3V6" stroke="currentColor"
              stroke-width="var(--icon-stroke-width)" stroke-linecap="round" stroke-linejoin="round"/>
    </symbol>
    <symbol fill="none" viewBox="0 0 24 24" id="icon-star" xmlns="http://www.w3.org/2000/svg">
        <path fill="var(--fill)"
              d="M12 17.75l-6.172 3.245 1.179-6.873-5-4.867 6.9-1 3.086-6.253 3.086 6.253 6.9 1-5 4.867 1.179 6.873L12 17.75z"
              stroke="currentColor" stroke-width="var(--icon-stroke-width)" stroke-linecap="round"
              stroke-linejoin="round"/>
    </symbol>
    <symbol fill="none" viewBox="0 0 24 24" id="icon-stats" xmlns="http://www.w3.org/2000/svg">
        <path d="M9 19v-6a1 1 0 00-1-1H4a1 1 0 00-1 1v6a1 1 0 001 1m5-1a1 1 0 01-1 1H4m5-1a1 1 0 001 1h4a1 1 0 001-1m-6 0V9a1 1 0 011-1h4a1 1 0 011 1v10M4 20h14m-3-1a1 1 0 001 1h4a1 1 0 001-1V5a1 1 0 00-1-1h-4a1 1 0 00-1 1v14z"
              stroke="currentColor" stroke-width="var(--icon-stroke-width)" stroke-linecap="round"
              stroke-linejoin="round"/>
    </symbol>
    <symbol fill="none" viewBox="0 0 24 24" id="icon-store" xmlns="http://www.w3.org/2000/svg">
        <path d="M21 7l-2-4H5L3 7m18 0v1a3.001 3.001 0 01-2 2.83M21 7h-6M3 7h6M3 7v1c0 1.306.835 2.418 2 2.83M9 8a3 3 0 01-4 2.83M9 8a3 3 0 106 0M9 8V7m6 1a3 3 0 004 2.83M15 8V7M9 7h6m6 14h-2M3 21h2m0 0V10.83M5 21h4m10 0V10.83M19 21h-4m-6 0v-4a2 2 0 012-2h2a2 2 0 012 2v4m-6 0h6"
              stroke="currentColor" stroke-width="var(--icon-stroke-width)" stroke-linecap="round"
              stroke-linejoin="round"/>
    </symbol>
    <symbol fill="none" viewBox="0 0 24 24" id="icon-subscribe" xmlns="http://www.w3.org/2000/svg">
        <path d="M6 7h12M8 3h8m-4 11v2m0 0v2m0-2h-2m2 0h2M4 21h16a1 1 0 001-1v-8a1 1 0 00-1-1H4a1 1 0 00-1 1v8a1 1 0 001 1z"
              stroke="currentColor" stroke-width="var(--icon-stroke-width)" stroke-linecap="round"/>
    </symbol>
    <symbol fill="none" viewBox="0 0 24 24" id="icon-success" xmlns="http://www.w3.org/2000/svg">
        <path d="M9 12l2 2 4-4m6 2a9 9 0 11-18 0 9 9 0 0118 0z" stroke="currentColor"
              stroke-width="var(--icon-stroke-width)" stroke-linecap="round" stroke-linejoin="round"/>
    </symbol>
    <symbol fill="none" viewBox="0 0 24 24" id="icon-t-shirt" xmlns="http://www.w3.org/2000/svg">
        <path d="M15 3V2a1 1 0 00-1 1h1zM9 3h1a1 1 0 00-1-1v1zM7.154 3V2a1 1 0 00-.495.13l.495.87zM3 5.364l-.495-.87a1 1 0 00-.486 1.063L3 5.364zm.77 3.909l-.982.193a1 1 0 001.065.803l-.084-.996zM6 9.084h1a1 1 0 00-1.084-.996L6 9.084zm12 0l.084-.996A1 1 0 0017 9.084h1zm2.23.189l-.083.996a1 1 0 001.065-.803l-.981-.193zm.77-3.91l.981.194a1 1 0 00-.486-1.063l-.495.87zM16.846 3l.495-.87a1 1 0 00-.495-.13v1zM12 7a4 4 0 004-4h-2a2 2 0 01-2 2v2zM8 3a4 4 0 004 4V5a2 2 0 01-2-2H8zm-.846 1H9V2H7.154v2zm-3.66 2.233l4.154-2.364-.989-1.738-4.154 2.363.99 1.739zM4.75 9.08l-.769-3.91-1.962.387.769 3.909L4.75 9.08zm1.166-.992l-2.23.188.167 1.993 2.231-.188-.168-1.993zM7 20V9.084H5V20h2zm0 0H5a2 2 0 002 2v-2zm10 0H7v2h10v-2zm0 0v2a2 2 0 002-2h-2zm0-10.916V20h2V9.084h-2zm3.315-.808l-2.23-.188-.17 1.993 2.232.188.168-1.993zm-.296-3.105l-.77 3.909 1.963.386.77-3.91-1.963-.385zm-3.667-1.302l4.153 2.364.99-1.739-4.154-2.363-.99 1.738zM15 4h1.846V2H15v2z"
              fill="currentColor"/>
        <path d="M10 10h4" stroke="currentColor" stroke-width="var(--icon-stroke-width)" stroke-linecap="round"
              stroke-linejoin="round"/>
    </symbol>
    <symbol fill="none" viewBox="0 0 24 24" id="icon-tag" xmlns="http://www.w3.org/2000/svg">
        <path d="M11 3l9 9a1.5 1.5 0 010 2l-6 6a1.5 1.5 0 01-2 0l-9-9V7a4 4 0 014-4h4z" stroke="currentColor"
              stroke-width="var(--icon-stroke-width)" stroke-linecap="round" stroke-linejoin="round"/>
        <path d="M9 11a2 2 0 100-4 2 2 0 000 4z" stroke="currentColor" stroke-width="var(--icon-stroke-width)"
              stroke-linecap="round" stroke-linejoin="round"/>
    </symbol>
    <symbol fill="none" viewBox="0 0 24 24" id="icon-telegram" xmlns="http://www.w3.org/2000/svg">
        <path d="M15 10l-4 4 6 6 4-16-18 7 4 2 2 6 3-4" stroke="currentColor" stroke-width="var(--icon-stroke-width)"
              stroke-linejoin="round"/>
    </symbol>
    <symbol fill="none" viewBox="0 0 25 24" id="icon-text" xmlns="http://www.w3.org/2000/svg">
        <path d="M12.5 19V5m0 14H9m3.5 0H16M12.5 5h-6v4m6-4h6v4" stroke="currentColor"
              stroke-width="var(--icon-stroke-width)" stroke-linecap="round" stroke-linejoin="round"/>
    </symbol>
    <symbol fill="none" viewBox="0 0 24 24" id="icon-textbig" xmlns="http://www.w3.org/2000/svg">
        <path d="M11 4l.916-.4a1 1 0 00-1.832 0L11 4zm6.084 16.4a1 1 0 001.832-.8l-1.832.8zm-14-.8a1 1 0 101.832.8l-1.832-.8zM21 7a1 1 0 100-2v2zm-4-2a1 1 0 100 2V5zm1 3a1 1 0 102 0h-2zm2-4a1 1 0 10-2 0h2zm1 1h-2v2h2V5zm-2 0h-2v2h2V5zm1 3V6h-2v2h2zm0-2V4h-2v2h2zM4.916 20.4l2.188-5-1.833-.8-2.187 5 1.832.8zm2.188-5l4.812-11-1.832-.8-4.813 11 1.833.8zm2.98-11l4.812 11 1.833-.8-4.813-11-1.832.8zm4.812 11l2.188 5 1.832-.8-2.187-5-1.833.8zm-8.709.6h9.625v-2H6.188v2z"
              fill="currentColor"/>
    </symbol>
    <symbol fill="none" viewBox="0 0 24 24" id="icon-textbold" xmlns="http://www.w3.org/2000/svg">
        <path d="M8 8V7a1 1 0 00-1 1h1zm8 0h1a1 1 0 00-1-1v1zm-6 7a1 1 0 100 2v-2zm4 2a1 1 0 100-2v2zm-7-7a1 1 0 102 0H7zm8 0a1 1 0 102 0h-2zM6 5h12V3H6v2zm13 1v12h2V6h-2zm-1 13H6v2h12v-2zM5 18V6H3v12h2zm1 1a1 1 0 01-1-1H3a3 3 0 003 3v-2zm13-1a1 1 0 01-1 1v2a3 3 0 003-3h-2zM18 5a1 1 0 011 1h2a3 3 0 00-3-3v2zM6 3a3 3 0 00-3 3h2a1 1 0 011-1V3zm2 6h4V7H8v2zm4 0h4V7h-4v2zm1 7V8h-2v8h2zm-1-1h-2v2h2v-2zm0 2h2v-2h-2v2zM7 8v2h2V8H7zm8 0v2h2V8h-2z"
              fill="currentColor"/>
    </symbol>
    <symbol fill="none" viewBox="0 0 24 24" id="icon-textsmall" xmlns="http://www.w3.org/2000/svg">
        <path d="M5.086 19.594a1 1 0 101.828.812l-1.828-.812zM6.89 18l-.914-.406.914.406zM10 11l.914-.406a1 1 0 00-1.828 0L10 11zm3.086 9.406a1 1 0 101.828-.812l-1.828.812zM19 9a1 1 0 100-2v2zm-4-2a1 1 0 100 2V7zM6.914 20.406l.889-2-1.828-.812-.889 2 1.828.812zm.889-2l3.11-7-1.827-.812-3.11 7 1.827.812zm1.283-7l3.111 7 1.828-.812-3.111-7-1.828.812zm3.111 7l.89 2 1.827-.812-.89-2-1.827.812zM6.89 19h6.222v-2H6.89v2zM19 7h-4v2h4V7z"
              fill="currentColor"/>
    </symbol>
    <symbol fill="none" viewBox="0 0 24 24" id="icon-time" xmlns="http://www.w3.org/2000/svg">
        <path d="M12 7v5l3 3m6-3a9 9 0 11-18 0 9 9 0 0118 0z" stroke="currentColor"
              stroke-width="var(--icon-stroke-width)" stroke-linecap="round" stroke-linejoin="round"/>
    </symbol>
    <symbol fill="none" viewBox="0 0 24 24" id="icon-tools" xmlns="http://www.w3.org/2000/svg">
        <path d="M6 3h1a1 1 0 00-1.5-.866L6 3zm4 0l.5-.866A1 1 0 009 3h1zm-.89 7.31l-.278-.962a1 1 0 00-.72 1.044l.997-.083zm.724 8.697l-.997.083.997-.083zm-3.668 0l-.996-.083.996.083zm.725-8.698l.996.083a1 1 0 00-.72-1.044l-.276.961zM5.499 2.134A4.998 4.998 0 003 6.464h2c0-1.108.601-2.078 1.5-2.598l-1-1.732zM7 5.464V3H5v2.465h2zm1 1a1 1 0 01-1-1H5a3 3 0 003 3v-2zm1-1a1 1 0 01-1 1v2a3 3 0 003-3H9zM9 3v2.465h2V3H9zm4 3.465a4.998 4.998 0 00-2.5-4.33l-1 1.73c.899.52 1.5 1.49 1.5 2.6h2zM9.386 11.27A5.002 5.002 0 0013 6.465h-2a3.002 3.002 0 01-2.168 2.883l.554 1.922zm-1.273-.878l.724 8.698 1.994-.166-.725-8.698-1.993.166zm.724 8.698A.84.84 0 018 20v2a2.84 2.84 0 002.83-3.076l-1.993.166zM8 20a.84.84 0 01-.837-.91l-1.993-.166A2.84 2.84 0 008 22v-2zm-.837-.91l.724-8.698-1.993-.166-.724 8.698 1.993.166zM3 6.465a5.002 5.002 0 003.614 4.805l.554-1.922A3.002 3.002 0 015 6.465H3z"
              fill="currentColor"/>
        <path d="M19 17v-4h-4v4m4 0v2a2 2 0 01-2 2v0a2 2 0 01-2-2v-2m4 0h-4M17 13V7m0 0l-1-2 1-2 1 2-1 2z"
              stroke="currentColor" stroke-width="var(--icon-stroke-width)" stroke-linejoin="round"/>
    </symbol>
    <symbol fill="none" viewBox="0 0 24 24" id="icon-truck" xmlns="http://www.w3.org/2000/svg">
        <path d="M7 19a2 2 0 100-4 2 2 0 000 4zM17 19a2 2 0 100-4 2 2 0 000 4z" stroke="currentColor"
              stroke-width="var(--icon-stroke-width)" stroke-linecap="round" stroke-linejoin="round"/>
        <path d="M5 17H3V6a1 1 0 011-1h9v12m-4 0h6m4 0h2v-6h-8m0-5h5l3 5" stroke="currentColor"
              stroke-width="var(--icon-stroke-width)" stroke-linecap="round" stroke-linejoin="round"/>
    </symbol>
    <symbol fill="none" viewBox="0 0 24 24" id="icon-turn-off" xmlns="http://www.w3.org/2000/svg">
        <path d="M3 3l18 18m-4-4H4a4 4 0 002-3v-3a7 7 0 011.279-3.716M9.351 5.35c.209-.127.425-.244.649-.35a2 2 0 114 0 7 7 0 014 6v3m-9 3v1a3 3 0 006 0v-1"
              stroke="currentColor" stroke-width="var(--icon-stroke-width)" stroke-linecap="round"
              stroke-linejoin="round"/>
    </symbol>
    <symbol fill="none" viewBox="0 0 24 24" id="icon-unsubscribe" xmlns="http://www.w3.org/2000/svg">
        <path d="M14 18l-2-2m0 0l-2-2m2 2l-2 2m2-2l2-2M6 7h12M8 3h8M4 21h16a1 1 0 001-1v-8a1 1 0 00-1-1H4a1 1 0 00-1 1v8a1 1 0 001 1z"
              stroke="currentColor" stroke-width="var(--icon-stroke-width)" stroke-linecap="round"/>
    </symbol>
    <symbol fill="none" viewBox="0 0 24 24" id="icon-upload" xmlns="http://www.w3.org/2000/svg">
        <path d="M14 3v4a1 1 0 001 1h4m-5-5H7a2 2 0 00-2 2v14a2 2 0 002 2h10a2 2 0 002-2V8m-5-5l5 5m-7 3v6m0-6l-3 3m3-3l3 3"
              stroke="currentColor" stroke-width="var(--icon-stroke-width)" stroke-linecap="round"
              stroke-linejoin="round"/>
    </symbol>
    <symbol fill="none" viewBox="0 0 24 24" id="icon-user" xmlns="http://www.w3.org/2000/svg">
        <path d="M6 21v-2a4 4 0 014-4h4a4 4 0 014 4v2M16 7a4 4 0 11-8 0 4 4 0 018 0z" stroke="currentColor"
              stroke-width="var(--icon-stroke-width)" stroke-linecap="round" stroke-linejoin="round"/>
    </symbol>
    <symbol fill="none" viewBox="0 0 24 24" id="icon-user-off" xmlns="http://www.w3.org/2000/svg">
        <path d="M14.274 10.291a4 4 0 10-5.554-5.58M6 21v-2a4 4 0 014-4M3 3l18 18" stroke="currentColor"
              stroke-width="var(--icon-stroke-width)" stroke-linecap="round" stroke-linejoin="round"/>
    </symbol>
    <symbol fill="none" viewBox="0 0 24 24" id="icon-vcamera" xmlns="http://www.w3.org/2000/svg">
        <path d="M13 5H5a2 2 0 00-2 2v10a2 2 0 002 2h8a2 2 0 002-2V7a2 2 0 00-2-2zM15 11.414l4.146-4.146A.5.5 0 0120 7.62v8.758a.5.5 0 01-.854.353L15 12.586v-1.172z"
              stroke="currentColor" stroke-width="var(--icon-stroke-width)" stroke-linejoin="round"/>
    </symbol>
    <symbol fill="none" viewBox="0 0 24 24" id="icon-viber" xmlns="http://www.w3.org/2000/svg">
        <path d="M7.5 18.305C4.81 17.407 3 15.73 3 13.808V7.192C3 4.325 7.03 2 12 2s9 2.325 9 5.192v6.616C21 16.675 16.97 19 12 19l-3 3m2.71-14.242c.65.074 1.281.36 1.78.86.499.498.785 1.129.86 1.78m-2.542-5.36a4.988 4.988 0 013.803 1.458 4.988 4.988 0 011.457 3.803m-7.467-.621c0-.707-.707-2.077-1.768-2.475-.643-.241-1.605.342-1.878.994-1.216 2.9 5.055 9.171 7.954 7.955.653-.273 1.236-1.235.995-1.878-.398-1.06-1.768-1.768-2.475-1.768"
              stroke="currentColor" stroke-width="var(--icon-stroke-width)" stroke-linejoin="round"/>
    </symbol>
    <symbol fill="none" viewBox="0 0 24 24" id="icon-video" xmlns="http://www.w3.org/2000/svg">
        <path d="M13 5H5a2 2 0 00-2 2v10a2 2 0 002 2h8a2 2 0 002-2V7a2 2 0 00-2-2zM15 11.414l4.146-4.146A.5.5 0 0120 7.62v8.758a.5.5 0 01-.854.353L15 12.586v-1.172z"
              stroke="currentColor" stroke-width="var(--icon-stroke-width)" stroke-linejoin="round"/>
    </symbol>
    <symbol fill="none" viewBox="0 0 24 24" id="icon-vk" xmlns="http://www.w3.org/2000/svg">
        <path d="M10 6h2v12c-4.5-1-8-6.5-9-12m17 0c-1 2-3 5-5 6m0 0h-3m3 0c2 1 4 4 5 6" stroke="currentColor"
              stroke-width="var(--icon-stroke-width)" stroke-linecap="round" stroke-linejoin="round"/>
    </symbol>
    <symbol fill="none" viewBox="0 0 24 24" id="icon-wallet" xmlns="http://www.w3.org/2000/svg">
        <path d="M16 8a1 1 0 102 0h-2zm0-4V3v1zM6 4V3v1zM4 6H3h1zm2 2v1-1zm12 0v1-1zm0 4a1 1 0 102 0h-2zm2 4a1 1 0 10-2 0h2zM4 18H3h1zm16-6h1a1 1 0 00-1-1v1zm0 4v1a1 1 0 001-1h-1zm-4-4v1-1zm2-4V5h-2v3h2zm0-3a2 2 0 00-.586-1.414L16 5h2zm-.586-1.414A2 2 0 0016 3v2l1.414-1.414zM16 3H6v2h10V3zM6 3a3 3 0 00-2.121.879l1.414 1.414A1 1 0 016 5V3zm-2.121.879A3 3 0 003 6h2a1 1 0 01.293-.707L3.879 3.879zM3 6a3 3 0 00.879 2.121l1.414-1.414A1 1 0 015 6H3zm.879 2.121A3 3 0 006 9V7a1 1 0 01-.707-.293L3.879 8.121zM6 9h12V7H6v2zm12 0l1.414-1.414A2 2 0 0018 7v2zm0 0h2a2 2 0 00-.586-1.414L18 9zm0 0v3h2V9h-2zm0 7v3h2v-3h-2zm0 3l1.414 1.414A2 2 0 0020 19h-2zm0 0v2a2 2 0 001.414-.586L18 19zm0 0H6v2h12v-2zM6 19a1 1 0 01-.707-.293l-1.414 1.414A3 3 0 006 21v-2zm-.707-.293A1 1 0 015 18H3a3 3 0 00.879 2.121l1.414-1.414zM5 18V6H3v12h2zm14-6v4h2v-4h-2zm1 3h-4v2h4v-2zm-4 0a1 1 0 01-.707-.293l-1.414 1.414A3 3 0 0016 17v-2zm-.707-.293A1 1 0 0115 14h-2a3 3 0 00.879 2.121l1.414-1.414zM15 14a1 1 0 01.293-.707l-1.414-1.414A3 3 0 0013 14h2zm.293-.707A1 1 0 0116 13v-2a3 3 0 00-2.121.879l1.414 1.414zM16 13h4v-2h-4v2z"
              fill="currentColor"/>
    </symbol>
    <symbol fill="none" viewBox="0 0 24 24" id="icon-whatsapp" xmlns="http://www.w3.org/2000/svg">
        <path d="M3 21l1.65-3.8a9 9 0 113.4 2.9L3 21" stroke="currentColor" stroke-width="currentColor"
              stroke-linecap="round" stroke-linejoin="round"/>
        <path d="M9 10a.5.5 0 001 0V9a.5.5 0 10-1 0v1zm0 0a5 5 0 005 5h1a.5.5 0 000-1h-1a.5.5 0 000 1"
              stroke="currentColor" stroke-width="currentColor" stroke-linecap="round" stroke-linejoin="round"/>
    </symbol>
    <symbol fill="none" viewBox="0 0 24 24" id="icon-wheel" xmlns="http://www.w3.org/2000/svg">
        <g stroke="currentColor" stroke-width="var(--icon-stroke-width)">
            <circle cx="12" cy="12" r="9"/>
            <circle cx="12" cy="12" r="5"/>
            <path d="M12 11V8m.951 3.691l2.853-.927m-3.216 2.045l1.763 2.427m-3.302-3.545l-2.853-.927m3.216 2.045L9.65 15.236"
                  stroke-linecap="round"/>
        </g>
    </symbol>
    <symbol fill="none" viewBox="0 0 24 24" id="icon-work" xmlns="http://www.w3.org/2000/svg">
        <path d="M3 13v5a2 2 0 002 2h14a2 2 0 002-2v-5M3 13V9a2 2 0 012-2h3m-5 6c6 3 12 3 18 0m0 0V9a2 2 0 00-2-2h-3M8 7V5a2 2 0 012-2h4a2 2 0 012 2v2M8 7h8m-4 5v.01"
              stroke="currentColor" stroke-width="var(--icon-stroke-width)" stroke-linecap="round"
              stroke-linejoin="round"/>
    </symbol>
    <symbol fill="none" viewBox="0 0 24 24" id="icon-x-mark" xmlns="http://www.w3.org/2000/svg">
        <path d="M18 6L6 18M6 6l12 12" stroke="currentColor" stroke-width="var(--icon-stroke-width)"
              stroke-linecap="round" stroke-linejoin="round"/>
    </symbol>
    <symbol fill="none" viewBox="0 0 24 24" id="icon-yandex" xmlns="http://www.w3.org/2000/svg">
        <path d="M16 21V3.004c-3.79 0-8.842-.324-9 4.864C7 13.218 12.5 14 12.5 14L7 21" stroke="currentColor"
              stroke-width="var(--icon-stroke-width)" stroke-linejoin="round"/>
    </symbol>
    <symbol fill="none" viewBox="0 0 20 20" id="input-checkbox" xmlns="http://www.w3.org/2000/svg">
        <rect width="20" height="20" rx="5" fill="#2061CB"/>
        <path d="M6 11l3 3 6-6" stroke="#fff" stroke-width="2" stroke-linecap="round" stroke-linejoin="round"/>
    </symbol>
    <symbol fill="none" viewBox="0 0 20 20" id="like-alt" xmlns="http://www.w3.org/2000/svg">
        <path d="M8.06 8.238l.673.74-.672-.74zM12.993 8h-1a1 1 0 001 1V8zM17 9.454l.986.167A.997.997 0 0018 9.454h-1zm-.802 4.725l.969.25a.98.98 0 00.017-.083l-.986-.167zm-8.368-.103a1 1 0 10-1.66 1.115l1.66-1.115zM6.444 8.043a1 1 0 00.577 1.914l-.577-1.914zm2.289.935C9.577 8.212 10 7.004 10 6H8c0 .539-.253 1.172-.61 1.497l1.343 1.481zM12.992 9h2.405V7h-2.405v2zm2.405 0c.19 0 .354.07.462.167l1.343-1.482A2.69 2.69 0 0015.397 7v2zm.462.167a.39.39 0 01.141.287h2c0-.684-.3-1.318-.798-1.769L15.86 9.167zm.155.12l-.801 4.724 1.971.335.802-4.725-1.972-.334zM13.794 15h-4.41v2h4.41v-2zm1.436-1.072c.013-.05.003.01-.108.166a2.777 2.777 0 01-.394.44c-.35.316-.688.466-.934.466v2c.956 0 1.756-.513 2.276-.983a4.77 4.77 0 00.683-.766c.165-.232.337-.524.414-.822l-1.937-.5zM9.385 15c-.61 0-1.198-.392-1.555-.924l-1.66 1.115C6.785 16.107 7.929 17 9.385 17v-2zm2.607-9v2h2V6h-2zM11 5c.505 0 .703.134.784.22.09.093.208.306.208.78h2c0-.782-.196-1.57-.761-2.162C12.657 3.238 11.859 3 11 3v2zm-1 1c0-.57.114-.756.167-.813.04-.043.205-.187.833-.187V3c-.88 0-1.713.197-2.298.825C8.132 4.438 8 5.252 8 6h2zM7.021 9.957a4.917 4.917 0 001.712-.979L7.389 7.497a2.958 2.958 0 01-.945.546l.577 1.914zM6 10v4h2v-4H6zm-2 4v-4H2v4h2zm1 1a1 1 0 01-1-1H2a3 3 0 003 3v-2zm1-1a1 1 0 01-1 1v2a3 3 0 003-3H6zM5 9a1 1 0 011 1h2a3 3 0 00-3-3v2zm0-2a3 3 0 00-3 3h2a1 1 0 011-1V7z"
              fill="currentColor"/>
    </symbol>
    <symbol fill="none" viewBox="0 0 24 24" id="pause" xmlns="http://www.w3.org/2000/svg">
        <path d="M9 5H7a1 1 0 00-1 1v12a1 1 0 001 1h2a1 1 0 001-1V6a1 1 0 00-1-1zm8 0h-2a1 1 0 00-1 1v12a1 1 0 001 1h2a1 1 0 001-1V6a1 1 0 00-1-1z"
              stroke="currentColor" stroke-width="var(--icon-stroke-width)" stroke-linejoin="round"/>
    </symbol>
    <symbol fill="none" viewBox="0 0 24 25" id="play" xmlns="http://www.w3.org/2000/svg">
        <path d="M6 3.253v18l14-9-14-9z" stroke="currentColor" stroke-width="var(--icon-stroke-width)"
              stroke-linecap="round" stroke-linejoin="round"/>
    </symbol>
    <symbol fill="none" viewBox="0 0 272 8" id="topbar" xmlns="http://www.w3.org/2000/svg">
        <path fill="#3073DF" d="M1 0h271v8H1z"/>
        <path fill="#2061CB" d="M0 0h96v8H0z"/>
        <path fill="#4F88E3" d="M168 0h-59v8h59zM212 0h-18v8h18z"/>
        <path fill="#2061CB" d="M230 0h7v8h-7z"/>
    </symbol>
    <symbol fill="none" viewBox="0 0 24 24" id="user-lock" xmlns="http://www.w3.org/2000/svg">
        <path d="M9 11a4 4 0 100-8 4 4 0 000 8zM3 21v-2a4 4 0 014-4h4a4 4 0 014 4v2M17 9l4 4m0-4l-4 4"
              stroke="currentColor" stroke-width="var(--icon-stroke-width)" stroke-linecap="round"
              stroke-linejoin="round"/>
    </symbol>
    <symbol fill="none" viewBox="0 0 24 24" id="volume" xmlns="http://www.w3.org/2000/svg">
        <path d="M15 8a5 5 0 010 8m2.7-11a9 9 0 010 14M6 15H4a1 1 0 01-1-1v-4a1 1 0 011-1h2l3.5-4.5A.8.8 0 0111 5v14a.8.8 0 01-1.5.5L6 15z"
              stroke="currentColor" stroke-width="var(--icon-stroke-width)" stroke-linejoin="round"/>
    </symbol>
</svg>
